STARTFONT 2.1
COMMENT
COMMENT Converted from OpenType font "ipam.ttf" by "..\otf2bdf.exe 3.0".
COMMENT
FONT -FreeType-IPAMincho-Medium-R-Normal--28-280-72-72-P-248-ISO10646-1
SIZE 28 72 72
FONTBOUNDINGBOX 28 29 0 -4
STARTPROPERTIES 19
FOUNDRY "FreeType"
FAMILY_NAME "IPAMincho"
WEIGHT_NAME "Medium"
SLANT "R"
SETWIDTH_NAME "Normal"
ADD_STYLE_NAME ""
PIXEL_SIZE 28
POINT_SIZE 280
RESOLUTION_X 72
RESOLUTION_Y 72
SPACING "P"
AVERAGE_WIDTH 248
CHARSET_REGISTRY "ISO10646"
CHARSET_ENCODING "1"
FONT_ASCENT 24
FONT_DESCENT 3
COPYRIGHT "Copyright(c) Information-technology Promotion Agency, Japan (IPA), 2003-2011. You must accept "http://ipafont.ipa.go.jp/ipa_font_license_v1.html" to use this product."
_OTF_FONTFILE "ipam.ttf"
_OTF_PSNAME "IPAMincho"
ENDPROPERTIES
CHARS 11158
STARTCHAR 0020
ENCODING 32
SWIDTH 500 0
DWIDTH 14 0
BBX 0 0 0 0
BITMAP
ENDCHAR
STARTCHAR 0021
ENCODING 33
SWIDTH 500 0
DWIDTH 14 0
BBX 3 23 5 -1
BITMAP
60
60
60
60
60
60
60
60
60
60
60
60
60
60
20
40
40
00
00
00
E0
E0
E0
ENDCHAR
STARTCHAR 0022
ENCODING 34
SWIDTH 500 0
DWIDTH 14 0
BBX 10 8 2 15
BITMAP
6180
73C0
73C0
30C0
2080
6180
4300
8400
ENDCHAR
STARTCHAR 0023
ENCODING 35
SWIDTH 500 0
DWIDTH 14 0
BBX 12 23 1 -1
BITMAP
0840
0840
0880
0880
0880
0880
7FF0
7FF0
0880
0880
1080
1080
1100
1100
1100
FFE0
FFE0
1100
1100
2100
2100
2100
2200
ENDCHAR
STARTCHAR 0024
ENCODING 36
SWIDTH 500 0
DWIDTH 14 0
BBX 11 24 2 -1
BITMAP
0400
0400
0E00
3580
6440
C4C0
C4C0
C4C0
E400
7400
3C00
0F00
0780
04C0
04E0
C460
C460
8460
C460
44C0
3F80
0400
0400
0400
ENDCHAR
STARTCHAR 0025
ENCODING 37
SWIDTH 500 0
DWIDTH 14 0
BBX 12 25 1 -2
BITMAP
0010
3020
4820
CC40
CC40
CC40
CC80
CC80
CD00
4900
3A00
0200
0600
0400
04C0
0920
0B30
1330
1330
2330
2330
2330
4320
41C0
8000
ENDCHAR
STARTCHAR 0026
ENCODING 38
SWIDTH 500 0
DWIDTH 14 0
BBX 12 21 1 0
BITMAP
1E00
3300
2300
2300
2300
3600
1400
1800
18F0
2820
6C20
4C40
C440
C640
C240
C340
C190
C190
61D0
32F0
1C60
ENDCHAR
STARTCHAR 0027
ENCODING 39
SWIDTH 500 0
DWIDTH 14 0
BBX 4 8 2 15
BITMAP
60
70
70
30
20
60
40
80
ENDCHAR
STARTCHAR 0028
ENCODING 40
SWIDTH 500 0
DWIDTH 14 0
BBX 8 25 4 -2
BITMAP
03
04
08
10
30
20
60
60
C0
C0
C0
C0
C0
C0
C0
C0
C0
60
60
60
30
10
08
0C
02
ENDCHAR
STARTCHAR 0029
ENCODING 41
SWIDTH 500 0
DWIDTH 14 0
BBX 8 25 2 -2
BITMAP
C0
20
10
08
0C
04
06
06
03
03
03
03
03
03
03
03
02
06
06
04
0C
08
10
20
40
ENDCHAR
STARTCHAR 002A
ENCODING 42
SWIDTH 500 0
DWIDTH 14 0
BBX 11 12 2 5
BITMAP
0C00
0C00
CCC0
EDC0
7F80
1E00
1E00
7FC0
EDE0
CC60
0C00
0C00
ENDCHAR
STARTCHAR 002B
ENCODING 43
SWIDTH 500 0
DWIDTH 14 0
BBX 12 15 1 3
BITMAP
0600
0600
0600
0600
0600
0600
0600
FFF0
0600
0600
0600
0600
0600
0600
0600
ENDCHAR
STARTCHAR 002C
ENCODING 44
SWIDTH 500 0
DWIDTH 14 0
BBX 4 8 2 -3
BITMAP
60
70
70
30
20
20
40
80
ENDCHAR
STARTCHAR 002D
ENCODING 45
SWIDTH 500 0
DWIDTH 14 0
BBX 12 1 1 10
BITMAP
FFF0
ENDCHAR
STARTCHAR 002E
ENCODING 46
SWIDTH 500 0
DWIDTH 14 0
BBX 4 4 2 0
BITMAP
60
F0
F0
70
ENDCHAR
STARTCHAR 002F
ENCODING 47
SWIDTH 500 0
DWIDTH 14 0
BBX 12 25 1 -1
BITMAP
0030
0020
0060
0040
0040
0080
0080
0180
0100
0100
0200
0200
0600
0400
0C00
0800
0800
1800
1000
3000
2000
2000
4000
4000
C000
ENDCHAR
STARTCHAR 0030
ENCODING 48
SWIDTH 500 0
DWIDTH 14 0
BBX 10 21 2 0
BITMAP
1E00
3300
2100
6180
4180
C080
C0C0
C0C0
C0C0
C0C0
C0C0
C0C0
C0C0
C0C0
C0C0
C0C0
4080
6180
6180
3300
1E00
ENDCHAR
STARTCHAR 0031
ENCODING 49
SWIDTH 500 0
DWIDTH 14 0
BBX 6 20 4 3
BITMAP
30
F0
30
30
30
30
30
30
30
30
30
30
30
30
30
30
30
30
30
FC
ENDCHAR
STARTCHAR 0032
ENCODING 50
SWIDTH 500 0
DWIDTH 14 0
BBX 10 19 2 2
BITMAP
3F00
6180
C0C0
E0C0
E0C0
E0C0
0180
0180
0300
0600
0400
0800
1800
1000
2040
4040
40C0
FFC0
FFC0
ENDCHAR
STARTCHAR 0033
ENCODING 51
SWIDTH 500 0
DWIDTH 14 0
BBX 10 21 2 0
BITMAP
3E00
6180
C1C0
E0C0
E0C0
00C0
00C0
0180
0300
1C00
0300
0180
00C0
00C0
00C0
C0C0
C0C0
C0C0
C180
6300
1E00
ENDCHAR
STARTCHAR 0034
ENCODING 52
SWIDTH 500 0
DWIDTH 14 0
BBX 12 19 1 2
BITMAP
0180
0380
0380
0580
0580
0980
0980
1180
1180
2180
6180
4180
C180
FFF0
0180
0180
0180
0180
07F0
ENDCHAR
STARTCHAR 0035
ENCODING 53
SWIDTH 500 0
DWIDTH 14 0
BBX 10 21 2 0
BITMAP
7F80
7F80
4000
4000
4000
4000
4000
C000
DE00
E300
C180
00C0
00C0
00C0
00C0
C0C0
C0C0
C180
C180
6300
3E00
ENDCHAR
STARTCHAR 0036
ENCODING 54
SWIDTH 500 0
DWIDTH 14 0
BBX 10 21 2 0
BITMAP
0F00
10C0
31C0
21C0
6000
4000
C000
C000
DE00
F380
E180
C0C0
C0C0
C0C0
C0C0
C0C0
40C0
6080
6180
3300
1E00
ENDCHAR
STARTCHAR 0037
ENCODING 55
SWIDTH 500 0
DWIDTH 14 0
BBX 10 21 2 0
BITMAP
FFC0
FFC0
C080
8080
8100
8100
0300
0200
0200
0600
0400
0400
0C00
0C00
0C00
1800
1800
1800
1800
1800
1800
ENDCHAR
STARTCHAR 0038
ENCODING 56
SWIDTH 500 0
DWIDTH 14 0
BBX 10 21 2 0
BITMAP
1E00
6180
E1C0
C0C0
C0C0
C0C0
4080
6100
3200
0E00
3300
6380
61C0
C0C0
C0C0
C0C0
C0C0
C0C0
6180
7380
1E00
ENDCHAR
STARTCHAR 0039
ENCODING 57
SWIDTH 500 0
DWIDTH 14 0
BBX 10 21 2 0
BITMAP
1E00
3300
6180
C180
C080
C0C0
C0C0
C0C0
C0C0
61C0
73C0
1EC0
00C0
00C0
00C0
E080
E180
C180
C300
6600
3C00
ENDCHAR
STARTCHAR 003A
ENCODING 58
SWIDTH 500 0
DWIDTH 14 0
BBX 4 13 5 2
BITMAP
60
F0
F0
60
00
00
00
00
00
60
F0
F0
60
ENDCHAR
STARTCHAR 003B
ENCODING 59
SWIDTH 500 0
DWIDTH 14 0
BBX 4 17 5 -2
BITMAP
60
F0
F0
60
00
00
00
00
00
00
60
F0
F0
30
20
40
80
ENDCHAR
STARTCHAR 003C
ENCODING 60
SWIDTH 500 0
DWIDTH 14 0
BBX 9 17 3 2
BITMAP
0080
0180
0300
0600
0C00
1800
2000
C000
C000
6000
3000
1800
0C00
0600
0300
0180
0080
ENDCHAR
STARTCHAR 003D
ENCODING 61
SWIDTH 500 0
DWIDTH 14 0
BBX 12 6 1 8
BITMAP
FFF0
0000
0000
0000
0000
FFF0
ENDCHAR
STARTCHAR 003E
ENCODING 62
SWIDTH 500 0
DWIDTH 14 0
BBX 9 17 2 2
BITMAP
8000
C000
6000
3000
1800
0C00
0200
0100
0180
0300
0600
0C00
1800
3000
6000
C000
8000
ENDCHAR
STARTCHAR 003F
ENCODING 63
SWIDTH 500 0
DWIDTH 14 0
BBX 11 24 2 -1
BITMAP
1F00
21C0
40C0
8060
8060
E060
E060
60C0
00C0
0180
0300
0200
0600
0400
0400
0400
0400
0400
0000
0000
0000
0E00
0E00
0E00
ENDCHAR
STARTCHAR 0040
ENCODING 64
SWIDTH 500 0
DWIDTH 14 0
BBX 12 22 1 0
BITMAP
0F80
18C0
3060
3020
6020
6750
CCD0
CC90
D890
D890
D890
D890
D890
D890
D9A0
CDA0
6EC0
6000
3010
3020
1C60
0780
ENDCHAR
STARTCHAR 0041
ENCODING 65
SWIDTH 500 0
DWIDTH 14 0
BBX 14 20 0 2
BITMAP
0200
0300
0300
0300
0500
0580
0580
0480
0880
08C0
08C0
0840
1FE0
1060
1060
1060
2030
2030
2030
F8FC
ENDCHAR
STARTCHAR 0042
ENCODING 66
SWIDTH 500 0
DWIDTH 14 0
BBX 12 19 1 2
BITMAP
FF00
30C0
3060
3060
3060
3060
3060
3040
3080
3F00
30C0
3060
3030
3030
3030
3030
3070
30E0
FF80
ENDCHAR
STARTCHAR 0043
ENCODING 67
SWIDTH 500 0
DWIDTH 14 0
BBX 11 21 2 0
BITMAP
0F40
11C0
20C0
6040
4040
4040
C000
C000
C000
C000
C000
C000
C000
C040
C060
4040
6040
60C0
3080
3180
0E00
ENDCHAR
STARTCHAR 0044
ENCODING 68
SWIDTH 500 0
DWIDTH 14 0
BBX 12 19 1 2
BITMAP
FF00
3180
30C0
3060
3060
3030
3030
3030
3030
3030
3030
3030
3030
3030
3060
3060
30C0
3180
FF00
ENDCHAR
STARTCHAR 0045
ENCODING 69
SWIDTH 500 0
DWIDTH 14 0
BBX 11 19 1 2
BITMAP
FFE0
3060
3020
3020
3020
3000
3080
3080
3080
3F80
3080
3080
3080
3000
3020
3020
3020
3060
FFE0
ENDCHAR
STARTCHAR 0046
ENCODING 70
SWIDTH 500 0
DWIDTH 14 0
BBX 12 19 1 2
BITMAP
FFF0
3030
3030
3010
3010
3000
3080
3080
3080
3F80
3080
3080
3080
3000
3000
3000
3000
3000
FC00
ENDCHAR
STARTCHAR 0047
ENCODING 71
SWIDTH 500 0
DWIDTH 14 0
BBX 12 21 1 0
BITMAP
0FA0
18E0
3060
6020
6020
4000
C000
C000
C000
C000
C1F0
C060
C060
C060
C060
4060
6060
6060
30A0
3120
0E00
ENDCHAR
STARTCHAR 0048
ENCODING 72
SWIDTH 500 0
DWIDTH 14 0
BBX 14 19 0 2
BITMAP
FCFC
3030
3030
3030
3030
3030
3030
3030
3030
3FF0
3030
3030
3030
3030
3030
3030
3030
3030
FCFC
ENDCHAR
STARTCHAR 0049
ENCODING 73
SWIDTH 500 0
DWIDTH 14 0
BBX 6 19 4 2
BITMAP
FC
30
30
30
30
30
30
30
30
30
30
30
30
30
30
30
30
30
FC
ENDCHAR
STARTCHAR 004A
ENCODING 74
SWIDTH 500 0
DWIDTH 14 0
BBX 11 21 2 0
BITMAP
07E0
0180
0180
0180
0180
0180
0180
0180
0180
0180
0180
0180
0180
0180
0180
E180
E180
C100
C300
6600
3C00
ENDCHAR
STARTCHAR 004B
ENCODING 75
SWIDTH 500 0
DWIDTH 14 0
BBX 13 19 0 2
BITMAP
FCF0
3040
3040
3080
3080
3100
3300
3200
3700
3700
3980
3980
3080
30C0
3040
3060
3020
3030
FCF8
ENDCHAR
STARTCHAR 004C
ENCODING 76
SWIDTH 500 0
DWIDTH 14 0
BBX 11 19 1 2
BITMAP
FC00
3000
3000
3000
3000
3000
3000
3000
3000
3000
3000
3000
3000
3020
3020
3020
3020
3060
FFE0
ENDCHAR
STARTCHAR 004D
ENCODING 77
SWIDTH 500 0
DWIDTH 14 0
BBX 12 19 1 2
BITMAP
E0F0
60E0
70E0
70E0
5160
5160
5160
5160
5960
5960
4A60
4A60
4A60
4E60
4E60
4460
4460
4460
E0F0
ENDCHAR
STARTCHAR 004E
ENCODING 78
SWIDTH 500 0
DWIDTH 14 0
BBX 14 20 0 1
BITMAP
F07C
3810
3810
2C10
2C10
2610
2610
2310
2310
2310
2190
2190
20D0
20D0
2070
2070
2030
2030
F810
0010
ENDCHAR
STARTCHAR 004F
ENCODING 79
SWIDTH 500 0
DWIDTH 14 0
BBX 12 21 1 0
BITMAP
0F00
1080
3040
6060
6060
4020
C030
C030
C030
C030
C030
C030
C030
C030
C030
4060
6060
6060
20C0
1180
0F00
ENDCHAR
STARTCHAR 0050
ENCODING 80
SWIDTH 500 0
DWIDTH 14 0
BBX 12 19 1 2
BITMAP
FF80
30E0
3060
3030
3030
3030
3030
3030
3060
30E0
3F80
3000
3000
3000
3000
3000
3000
3000
FC00
ENDCHAR
STARTCHAR 0051
ENCODING 81
SWIDTH 500 0
DWIDTH 14 0
BBX 12 22 1 -1
BITMAP
0F00
10C0
20C0
6060
6060
4030
C030
C030
C030
C030
C030
C030
C030
CE30
D330
7360
7160
7140
31C0
1990
0E90
00E0
ENDCHAR
STARTCHAR 0052
ENCODING 82
SWIDTH 500 0
DWIDTH 14 0
BBX 13 19 1 2
BITMAP
FF80
30E0
3060
3030
3030
3030
3030
3060
30C0
3F00
3300
3100
3180
3080
30C0
30C0
3060
3060
FC38
ENDCHAR
STARTCHAR 0053
ENCODING 83
SWIDTH 500 0
DWIDTH 14 0
BBX 10 21 2 0
BITMAP
3E80
4380
C180
C080
C080
C000
E000
7000
3800
1C00
0700
0380
0180
81C0
80C0
80C0
80C0
C0C0
C180
A380
1E00
ENDCHAR
STARTCHAR 0054
ENCODING 84
SWIDTH 500 0
DWIDTH 14 0
BBX 12 19 1 2
BITMAP
FFF0
C630
8610
8610
8610
0600
0600
0600
0600
0600
0600
0600
0600
0600
0600
0600
0600
0600
1F80
ENDCHAR
STARTCHAR 0055
ENCODING 85
SWIDTH 500 0
DWIDTH 14 0
BBX 14 21 0 0
BITMAP
FC7C
3010
3010
3010
3010
3010
3010
3010
3010
3010
3010
3010
3010
3010
3010
3010
3010
3030
1820
1C40
0780
ENDCHAR
STARTCHAR 0056
ENCODING 86
SWIDTH 500 0
DWIDTH 14 0
BBX 14 20 0 1
BITMAP
FC7C
3010
3010
1010
1820
1820
1820
0820
0C40
0C40
0C40
0440
0680
0680
0680
0280
0300
0300
0300
0200
ENDCHAR
STARTCHAR 0057
ENCODING 87
SWIDTH 500 0
DWIDTH 14 0
BBX 14 20 0 1
BITMAP
F7BC
6308
6110
2310
2310
2390
3390
3390
3490
3490
14A0
14E0
14E0
14E0
1460
1860
1860
0840
0840
0840
ENDCHAR
STARTCHAR 0058
ENCODING 88
SWIDTH 500 0
DWIDTH 14 0
BBX 14 19 0 2
BITMAP
7CF8
3820
1820
0C40
0C40
0480
0680
0700
0300
0300
0380
0580
04C0
08C0
1060
1060
2020
2030
F8FC
ENDCHAR
STARTCHAR 0059
ENCODING 89
SWIDTH 500 0
DWIDTH 14 0
BBX 14 19 0 2
BITMAP
F87C
3010
3010
1820
1820
1840
0C40
0C40
0680
0680
0300
0300
0300
0300
0300
0300
0300
0300
0FC0
ENDCHAR
STARTCHAR 005A
ENCODING 90
SWIDTH 500 0
DWIDTH 14 0
BBX 10 19 2 2
BITMAP
FFC0
C0C0
8180
8180
8300
0300
0600
0600
0C00
0C00
0800
1800
1000
3040
2040
4040
4040
80C0
FFC0
ENDCHAR
STARTCHAR 005B
ENCODING 91
SWIDTH 500 0
DWIDTH 14 0
BBX 7 25 5 -2
BITMAP
FE
C0
C0
C0
C0
C0
C0
C0
C0
C0
C0
C0
C0
C0
C0
C0
C0
C0
C0
C0
C0
C0
C0
C0
FE
ENDCHAR
STARTCHAR 005C
ENCODING 92
SWIDTH 500 0
DWIDTH 14 0
BBX 14 19 0 2
BITMAP
F87C
6010
3010
1020
1820
1860
0C40
7FF8
0480
0680
0780
0300
7FF8
0300
0300
0300
0300
0300
0FC0
ENDCHAR
STARTCHAR 005D
ENCODING 93
SWIDTH 500 0
DWIDTH 14 0
BBX 7 25 2 -2
BITMAP
FE
06
06
06
06
06
06
06
06
06
06
06
06
06
06
06
06
06
06
06
06
06
06
06
FE
ENDCHAR
STARTCHAR 005E
ENCODING 94
SWIDTH 500 0
DWIDTH 14 0
BBX 8 3 3 18
BITMAP
3C
66
81
ENDCHAR
STARTCHAR 005F
ENCODING 95
SWIDTH 500 0
DWIDTH 14 0
BBX 0 0 0 -3
BITMAP
ENDCHAR
STARTCHAR 0060
ENCODING 96
SWIDTH 500 0
DWIDTH 14 0
BBX 8 3 2 18
BITMAP
F8
0E
03
ENDCHAR
STARTCHAR 0061
ENCODING 97
SWIDTH 500 0
DWIDTH 14 0
BBX 11 15 2 0
BITMAP
3E00
C300
E180
E180
0180
0780
1980
7180
6180
C180
C180
C1A0
C3A0
65A0
38C0
ENDCHAR
STARTCHAR 0062
ENCODING 98
SWIDTH 500 0
DWIDTH 14 0
BBX 12 22 1 0
BITMAP
3000
F000
3000
3000
3000
3000
3000
3780
38C0
3060
3060
3030
3030
3030
3030
3030
3030
3030
3060
3060
28C0
0780
ENDCHAR
STARTCHAR 0063
ENCODING 99
SWIDTH 500 0
DWIDTH 14 0
BBX 10 15 2 0
BITMAP
1F00
3080
61C0
61C0
C000
C000
C000
C000
C000
C000
C040
6040
6080
3180
1E00
ENDCHAR
STARTCHAR 0064
ENCODING 100
SWIDTH 500 0
DWIDTH 14 0
BBX 12 22 1 0
BITMAP
00C0
03C0
00C0
00C0
00C0
00C0
00C0
1FC0
31C0
60C0
60C0
C0C0
C0C0
C0C0
C0C0
C0C0
C0C0
C0C0
60C0
61C0
3170
1E00
ENDCHAR
STARTCHAR 0065
ENCODING 101
SWIDTH 500 0
DWIDTH 14 0
BBX 10 15 2 0
BITMAP
1E00
3100
6180
4080
C0C0
C0C0
FFC0
C000
C000
C000
C040
4080
6080
3100
1E00
ENDCHAR
STARTCHAR 0066
ENCODING 102
SWIDTH 500 0
DWIDTH 14 0
BBX 10 19 2 2
BITMAP
0780
0CC0
18C0
1800
1800
1800
FF00
1800
1800
1800
1800
1800
1800
1800
1800
1800
1800
1800
7E00
ENDCHAR
STARTCHAR 0067
ENCODING 103
SWIDTH 500 0
DWIDTH 14 0
BBX 13 18 1 -3
BITMAP
1F78
31B8
60C0
60C0
60C0
60C0
3180
1F00
6000
4000
3E00
67C0
C060
C030
C030
C030
7060
1FC0
ENDCHAR
STARTCHAR 0068
ENCODING 104
SWIDTH 500 0
DWIDTH 14 0
BBX 12 20 1 2
BITMAP
3000
F000
3000
3000
3000
3000
3000
3780
3980
30C0
30C0
30C0
30C0
30C0
30C0
30C0
30C0
30C0
30C0
F9F0
ENDCHAR
STARTCHAR 0069
ENCODING 105
SWIDTH 500 0
DWIDTH 14 0
BBX 6 19 4 2
BITMAP
70
70
70
00
00
00
F0
30
30
30
30
30
30
30
30
30
30
30
FC
ENDCHAR
STARTCHAR 006A
ENCODING 106
SWIDTH 500 0
DWIDTH 14 0
BBX 8 24 1 -3
BITMAP
07
07
07
00
00
00
07
0B
03
03
03
03
03
03
03
03
03
03
03
E3
E3
E3
46
3C
ENDCHAR
STARTCHAR 006B
ENCODING 107
SWIDTH 500 0
DWIDTH 14 0
BBX 13 20 1 2
BITMAP
1000
F000
3000
3000
3000
3000
3000
31F0
30C0
3180
3300
3200
3700
3B00
3180
3180
30C0
3060
3070
FCF8
ENDCHAR
STARTCHAR 006C
ENCODING 108
SWIDTH 500 0
DWIDTH 14 0
BBX 6 20 4 3
BITMAP
70
F0
30
30
30
30
30
30
30
30
30
30
30
30
30
30
30
30
30
FC
ENDCHAR
STARTCHAR 006D
ENCODING 109
SWIDTH 500 0
DWIDTH 14 0
BBX 12 14 1 2
BITMAP
4000
DDC0
7660
6660
6660
6660
6660
6660
6660
6660
6660
6660
6660
FFF0
ENDCHAR
STARTCHAR 006E
ENCODING 110
SWIDTH 500 0
DWIDTH 14 0
BBX 12 14 1 2
BITMAP
2000
E700
3980
30C0
30C0
30C0
30C0
30C0
30C0
30C0
30C0
30C0
30C0
F9F0
ENDCHAR
STARTCHAR 006F
ENCODING 111
SWIDTH 500 0
DWIDTH 14 0
BBX 10 15 2 0
BITMAP
1E00
7300
6180
E180
C0C0
C0C0
C0C0
C0C0
C0C0
C0C0
C0C0
6180
6180
3300
1E00
ENDCHAR
STARTCHAR 0070
ENCODING 112
SWIDTH 500 0
DWIDTH 14 0
BBX 12 19 1 -3
BITMAP
1000
F780
38C0
3060
3030
3030
3030
3030
3030
3030
3070
3060
38C0
3780
3000
3000
3000
3000
FC00
ENDCHAR
STARTCHAR 0071
ENCODING 113
SWIDTH 500 0
DWIDTH 14 0
BBX 12 19 1 -3
BITMAP
0040
1F40
31C0
60C0
E0C0
C0C0
C0C0
C0C0
C0C0
C0C0
E0C0
60C0
31C0
1EC0
00C0
00C0
00C0
00C0
03F0
ENDCHAR
STARTCHAR 0072
ENCODING 114
SWIDTH 500 0
DWIDTH 14 0
BBX 10 14 3 2
BITMAP
2000
E3C0
2CC0
3800
3000
3000
3000
3000
3000
3000
3000
3000
3000
FC00
ENDCHAR
STARTCHAR 0073
ENCODING 115
SWIDTH 500 0
DWIDTH 14 0
BBX 9 15 3 0
BITMAP
3D00
6300
C100
C100
C000
6000
3800
0E00
0300
8180
8180
8180
C380
A300
1E00
ENDCHAR
STARTCHAR 0074
ENCODING 116
SWIDTH 500 0
DWIDTH 14 0
BBX 10 19 2 1
BITMAP
0800
0800
1800
3800
FF80
1800
1800
1800
1800
1800
1800
1800
1800
1800
1800
1840
1880
1C80
0F00
ENDCHAR
STARTCHAR 0075
ENCODING 117
SWIDTH 500 0
DWIDTH 14 0
BBX 12 16 1 0
BITMAP
1040
F1C0
30C0
30C0
30C0
30C0
30C0
30C0
30C0
30C0
30C0
30C0
30C0
11C0
1970
0E00
ENDCHAR
STARTCHAR 0076
ENCODING 118
SWIDTH 500 0
DWIDTH 14 0
BBX 12 14 1 1
BITMAP
F8F0
6060
2040
3040
30C0
1080
1880
1980
0900
0D00
0D00
0600
0600
0400
ENDCHAR
STARTCHAR 0077
ENCODING 119
SWIDTH 500 0
DWIDTH 14 0
BBX 14 14 0 1
BITMAP
F7BC
6108
2110
2110
3390
3390
3290
14A0
14A0
1CE0
1CE0
0840
0840
0840
ENDCHAR
STARTCHAR 0078
ENCODING 120
SWIDTH 500 0
DWIDTH 14 0
BBX 12 13 1 2
BITMAP
F9E0
30C0
1880
1900
0E00
0600
0600
0B00
0980
1080
30C0
6060
F9F0
ENDCHAR
STARTCHAR 0079
ENCODING 121
SWIDTH 500 0
DWIDTH 14 0
BBX 13 18 1 -3
BITMAP
F8F8
6020
3020
3040
1040
1880
0880
0C80
0D00
0500
0700
0200
0200
0200
0400
6400
4C00
3800
ENDCHAR
STARTCHAR 007A
ENCODING 122
SWIDTH 500 0
DWIDTH 14 0
BBX 10 13 2 2
BITMAP
7FC0
6180
4180
4300
0600
0600
0C00
1800
3840
3040
6040
E0C0
FFC0
ENDCHAR
STARTCHAR 007B
ENCODING 123
SWIDTH 500 0
DWIDTH 14 0
BBX 7 26 4 -3
BITMAP
02
06
0C
18
18
18
18
18
18
18
18
30
30
C0
30
18
18
18
18
18
18
18
18
18
0C
06
ENDCHAR
STARTCHAR 007C
ENCODING 124
SWIDTH 500 0
DWIDTH 14 0
BBX 2 28 6 -3
BITMAP
C0
C0
C0
C0
C0
C0
C0
C0
C0
C0
C0
C0
C0
C0
C0
C0
C0
C0
C0
C0
C0
C0
C0
C0
C0
C0
C0
C0
ENDCHAR
STARTCHAR 007D
ENCODING 125
SWIDTH 500 0
DWIDTH 14 0
BBX 7 25 3 -2
BITMAP
E0
30
18
18
18
18
18
18
18
18
18
0C
02
0C
18
18
18
18
18
18
18
18
30
30
C0
ENDCHAR
STARTCHAR 007E
ENCODING 126
SWIDTH 500 0
DWIDTH 14 0
BBX 10 3 2 18
BITMAP
3840
4C80
8700
ENDCHAR
STARTCHAR 00A0
ENCODING 160
SWIDTH 500 0
DWIDTH 14 0
BBX 0 0 0 0
BITMAP
ENDCHAR
STARTCHAR 00A1
ENCODING 161
SWIDTH 500 0
DWIDTH 14 0
BBX 3 23 5 -1
BITMAP
E0
E0
E0
00
00
00
40
40
40
60
60
60
60
60
60
60
60
60
60
60
60
60
60
ENDCHAR
STARTCHAR 00A2
ENCODING 162
SWIDTH 1000 0
DWIDTH 28 0
BBX 12 20 8 1
BITMAP
00C0
0080
0080
0FC0
3960
6170
6270
C270
C200
C600
C400
C400
CC10
6810
7820
3860
1F80
1000
1000
2000
ENDCHAR
STARTCHAR 00A3
ENCODING 163
SWIDTH 1000 0
DWIDTH 28 0
BBX 16 20 6 1
BITMAP
03E0
0718
0E0C
0C1C
0C1C
0C00
0C00
0C00
0C00
7FF0
0600
0600
0300
0300
7B00
C700
8381
83E3
C67E
7C1C
ENDCHAR
STARTCHAR 00A4
ENCODING 164
SWIDTH 500 0
DWIDTH 14 0
BBX 10 10 2 6
BITMAP
8040
5E80
3100
4080
4080
4080
4080
2100
5E80
8040
ENDCHAR
STARTCHAR 00A5
ENCODING 165
SWIDTH 1000 0
DWIDTH 28 0
BBX 19 19 4 2
BITMAP
FF07E0
180180
080100
0C0300
060200
020400
030C00
3FFFC0
019000
00D000
00E000
006000
3FFFC0
006000
006000
006000
006000
006000
01F800
ENDCHAR
STARTCHAR 00A6
ENCODING 166
SWIDTH 500 0
DWIDTH 14 0
BBX 2 25 6 -2
BITMAP
C0
C0
C0
C0
C0
C0
C0
C0
C0
C0
C0
00
00
00
C0
C0
C0
C0
C0
C0
C0
C0
C0
C0
C0
ENDCHAR
STARTCHAR 00A7
ENCODING 167
SWIDTH 1000 0
DWIDTH 28 0
BBX 12 25 8 -2
BITMAP
0F80
3860
6070
6070
6070
6000
3000
3C00
1F00
63C0
C0E0
C070
C030
E030
7830
1E60
07C0
01C0
00E0
E030
E030
E030
6060
30E0
1F80
ENDCHAR
STARTCHAR 00A8
ENCODING 168
SWIDTH 1000 0
DWIDTH 28 0
BBX 11 3 8 18
BITMAP
E0E0
E0E0
60E0
ENDCHAR
STARTCHAR 00A9
ENCODING 169
SWIDTH 500 0
DWIDTH 14 0
BBX 12 12 1 5
BITMAP
0F00
30C0
7FA0
70A0
A090
A010
A010
A090
90B0
4F60
20C0
1F80
ENDCHAR
STARTCHAR 00AA
ENCODING 170
SWIDTH 500 0
DWIDTH 14 0
BBX 9 11 1 10
BITMAP
7C00
C600
C600
3E00
4600
C600
C680
7F00
0000
0000
FF00
ENDCHAR
STARTCHAR 00AB
ENCODING 171
SWIDTH 500 0
DWIDTH 14 0
BBX 9 12 4 2
BITMAP
0D80
1200
3600
2400
4800
9000
9000
4800
2400
3600
1200
0900
ENDCHAR
STARTCHAR 00AC
ENCODING 172
SWIDTH 1000 0
DWIDTH 28 0
BBX 23 11 2 5
BITMAP
FFFFFE
000002
000002
000002
000002
000002
000002
000002
000002
000002
000002
ENDCHAR
STARTCHAR 00AD
ENCODING 173
SWIDTH 500 0
DWIDTH 14 0
BBX 12 1 1 10
BITMAP
FFF0
ENDCHAR
STARTCHAR 00AE
ENCODING 174
SWIDTH 500 0
DWIDTH 14 0
BBX 12 13 1 4
BITMAP
0F00
30C0
7F60
50A0
9090
9090
9F10
9210
9310
9120
78E0
20C0
1F00
ENDCHAR
STARTCHAR 00AF
ENCODING 175
SWIDTH 500 0
DWIDTH 14 0
BBX 10 1 2 19
BITMAP
FFC0
ENDCHAR
STARTCHAR 00B0
ENCODING 176
SWIDTH 1000 0
DWIDTH 28 0
BBX 6 5 1 19
BITMAP
78
CC
84
CC
78
ENDCHAR
STARTCHAR 00B1
ENCODING 177
SWIDTH 1000 0
DWIDTH 28 0
BBX 20 19 4 2
BITMAP
004000
004000
004000
004000
004000
004000
004000
FFFFF0
004000
004000
004000
004000
004000
004000
004000
000000
000000
000000
FFFFF0
ENDCHAR
STARTCHAR 00B2
ENCODING 178
SWIDTH 500 0
DWIDTH 14 0
BBX 6 10 2 14
BITMAP
78
8C
CC
0C
18
10
20
44
84
FC
ENDCHAR
STARTCHAR 00B3
ENCODING 179
SWIDTH 500 0
DWIDTH 14 0
BBX 6 11 2 13
BITMAP
78
84
C4
04
08
30
08
04
C4
84
48
ENDCHAR
STARTCHAR 00B4
ENCODING 180
SWIDTH 1000 0
DWIDTH 28 0
BBX 8 3 11 18
BITMAP
1F
70
C0
ENDCHAR
STARTCHAR 00B6
ENCODING 182
SWIDTH 1000 0
DWIDTH 28 0
BBX 11 25 7 -2
BITMAP
1FE0
7C20
7C20
FC20
FC20
FC20
FC20
7C20
3C20
0C20
0420
0420
0420
0420
0420
0420
0420
0420
0420
0420
0420
0420
0420
0420
0420
ENDCHAR
STARTCHAR 00B7
ENCODING 183
SWIDTH 500 0
DWIDTH 14 0
BBX 4 4 5 9
BITMAP
60
F0
F0
70
ENDCHAR
STARTCHAR 00B8
ENCODING 184
SWIDTH 500 0
DWIDTH 14 0
BBX 6 6 4 -1
BITMAP
60
40
78
8C
0C
F8
ENDCHAR
STARTCHAR 00B9
ENCODING 185
SWIDTH 500 0
DWIDTH 14 0
BBX 3 10 4 15
BITMAP
C0
40
40
40
40
40
40
40
40
E0
ENDCHAR
STARTCHAR 00BA
ENCODING 186
SWIDTH 500 0
DWIDTH 14 0
BBX 8 11 1 10
BITMAP
3C
42
C3
C3
C3
C3
42
24
18
00
FF
ENDCHAR
STARTCHAR 00BB
ENCODING 187
SWIDTH 500 0
DWIDTH 14 0
BBX 9 12 1 2
BITMAP
D800
2400
3600
1200
0900
0480
0480
0900
1200
3600
2400
4800
ENDCHAR
STARTCHAR 00BC
ENCODING 188
SWIDTH 500 0
DWIDTH 14 0
BBX 12 26 1 -3
BITMAP
1040
F020
3060
3040
3040
3080
3080
3080
3100
3100
3300
3200
F200
04C0
05C0
0DC0
0AC0
0AC0
14C0
14C0
34C0
28C0
2FF0
60C0
40C0
41E0
ENDCHAR
STARTCHAR 00BD
ENCODING 189
SWIDTH 500 0
DWIDTH 14 0
BBX 12 26 1 -3
BITMAP
1020
F030
3020
3060
3040
3040
3080
3080
3180
3100
3100
3200
FA00
07E0
0730
0710
0B10
0810
1830
1020
1040
20C0
2090
6110
4210
43F0
ENDCHAR
STARTCHAR 00BE
ENCODING 190
SWIDTH 500 0
DWIDTH 14 0
BBX 12 27 1 -3
BITMAP
7000
C830
C820
C860
0840
0840
3080
0880
0980
C900
C900
DA00
7200
06C0
05C0
05C0
0AC0
0AC0
1CC0
14C0
14C0
28C0
2FF0
40C0
40C0
41E0
8000
ENDCHAR
STARTCHAR 00BF
ENCODING 191
SWIDTH 500 0
DWIDTH 14 0
BBX 11 23 2 -1
BITMAP
0E00
0E00
0E00
0000
0000
0400
0400
0400
0400
0400
0C00
0800
1800
3000
6000
6000
C0C0
C0E0
C020
C020
6040
70C0
1F00
ENDCHAR
STARTCHAR 00C0
ENCODING 192
SWIDTH 500 0
DWIDTH 14 0
BBX 14 22 0 2
BITMAP
1E00
0100
0280
0300
0300
0300
0500
0580
0580
0480
0880
08C0
08C0
0840
1FC0
1060
1060
1060
2020
2030
2030
F8FC
ENDCHAR
STARTCHAR 00C1
ENCODING 193
SWIDTH 500 0
DWIDTH 14 0
BBX 14 22 0 2
BITMAP
01E0
0200
0600
0300
0300
0300
0500
0580
0580
0480
0880
08C0
08C0
0840
1FC0
1060
1060
1060
2020
2030
2030
F8FC
ENDCHAR
STARTCHAR 00C2
ENCODING 194
SWIDTH 500 0
DWIDTH 14 0
BBX 14 22 0 2
BITMAP
0300
0CC0
0200
0300
0300
0300
0500
0580
0580
0480
0880
08C0
08C0
0840
1FC0
1060
1060
1060
2020
2030
2030
F8FC
ENDCHAR
STARTCHAR 00C3
ENCODING 195
SWIDTH 500 0
DWIDTH 14 0
BBX 14 23 0 2
BITMAP
0E00
0B60
11C0
0200
0300
0300
0300
0500
0580
0580
0480
0880
08C0
08C0
0840
1FC0
1060
1060
1060
2030
2030
2030
F8FC
ENDCHAR
STARTCHAR 00C4
ENCODING 196
SWIDTH 500 0
DWIDTH 14 0
BBX 14 22 0 2
BITMAP
18C0
18C0
0200
0300
0300
0300
0500
0580
0580
0480
0880
08C0
08C0
0840
1FC0
1060
1060
1060
2030
2030
2030
F8FC
ENDCHAR
STARTCHAR 00C5
ENCODING 197
SWIDTH 500 0
DWIDTH 14 0
BBX 14 23 0 2
BITMAP
0300
0480
0480
0480
0300
0300
0300
0500
0580
0580
0480
0880
08C0
08C0
0840
1FC0
1060
1060
1060
2020
2030
2030
F8FC
ENDCHAR
STARTCHAR 00C6
ENCODING 198
SWIDTH 500 0
DWIDTH 14 0
BBX 13 19 0 2
BITMAP
03F8
0398
0388
0388
0588
0580
0590
0990
0990
09F0
0990
1F90
1180
1180
3180
2188
2188
6188
F7F8
ENDCHAR
STARTCHAR 00C7
ENCODING 199
SWIDTH 500 0
DWIDTH 14 0
BBX 11 24 2 -3
BITMAP
0F40
31C0
20C0
6040
4040
4040
C000
C000
C000
C000
C000
C000
C000
C040
C060
4040
6040
60C0
3080
1180
0E00
0F00
0300
1E00
ENDCHAR
STARTCHAR 00C8
ENCODING 200
SWIDTH 500 0
DWIDTH 14 0
BBX 11 22 1 2
BITMAP
3C00
0200
0100
FFE0
3060
3020
3020
3020
3000
3080
3080
3080
3F80
3080
3080
3080
3000
3020
3020
3020
3060
FFE0
ENDCHAR
STARTCHAR 00C9
ENCODING 201
SWIDTH 500 0
DWIDTH 14 0
BBX 11 22 1 2
BITMAP
03C0
0400
0800
FFE0
3060
3020
3020
3020
3000
3080
3080
3080
3F80
3080
3080
3080
3000
3020
3020
3020
3060
FFE0
ENDCHAR
STARTCHAR 00CA
ENCODING 202
SWIDTH 500 0
DWIDTH 14 0
BBX 11 22 1 2
BITMAP
0700
0880
1000
FFE0
3060
3020
3020
3020
3000
3080
3080
3080
3F80
3080
3080
3080
3000
3020
3020
3020
3060
FFE0
ENDCHAR
STARTCHAR 00CB
ENCODING 203
SWIDTH 500 0
DWIDTH 14 0
BBX 11 22 1 2
BITMAP
30C0
30C0
0000
FFE0
3060
3020
3020
3020
3000
3080
3080
3080
3F80
3080
3080
3080
3000
3020
3020
3020
3060
FFE0
ENDCHAR
STARTCHAR 00CC
ENCODING 204
SWIDTH 500 0
DWIDTH 14 0
BBX 7 22 3 2
BITMAP
F0
08
04
7E
18
18
18
18
18
18
18
18
18
18
18
18
18
18
18
18
18
7E
ENDCHAR
STARTCHAR 00CD
ENCODING 205
SWIDTH 500 0
DWIDTH 14 0
BBX 7 22 4 2
BITMAP
1E
20
40
FC
30
30
30
30
30
30
30
30
30
30
30
30
30
30
30
30
30
FC
ENDCHAR
STARTCHAR 00CE
ENCODING 206
SWIDTH 500 0
DWIDTH 14 0
BBX 6 22 4 2
BITMAP
78
CC
00
FC
30
30
30
30
30
30
30
30
30
30
30
30
30
30
30
30
30
FC
ENDCHAR
STARTCHAR 00CF
ENCODING 207
SWIDTH 500 0
DWIDTH 14 0
BBX 8 22 3 2
BITMAP
C3
C3
00
7E
18
18
18
18
18
18
18
18
18
18
18
18
18
18
18
18
18
7E
ENDCHAR
STARTCHAR 00D0
ENCODING 208
SWIDTH 500 0
DWIDTH 14 0
BBX 12 19 1 2
BITMAP
FF00
3180
30C0
3060
3060
3030
3030
3030
3030
FC30
3030
3030
3030
3020
3060
3060
30C0
3180
FE00
ENDCHAR
STARTCHAR 00D1
ENCODING 209
SWIDTH 500 0
DWIDTH 14 0
BBX 14 23 0 1
BITMAP
0E20
11C0
0000
F07C
3810
3810
2C10
2C10
2610
2610
2310
2310
2310
2190
2190
20D0
20D0
2070
2070
2030
2030
F810
0010
ENDCHAR
STARTCHAR 00D2
ENCODING 210
SWIDTH 500 0
DWIDTH 14 0
BBX 12 24 1 0
BITMAP
3C00
0200
0100
0F00
1080
3040
6060
6060
4020
C030
C030
C030
C030
C030
C030
C030
C030
C030
4060
6060
6060
20C0
1180
0F00
ENDCHAR
STARTCHAR 00D3
ENCODING 211
SWIDTH 500 0
DWIDTH 14 0
BBX 12 24 1 0
BITMAP
03C0
0400
0800
0F00
1080
3040
6060
6060
4020
C030
C030
C030
C030
C030
C030
C030
C030
C030
4060
6060
6060
20C0
1180
0F00
ENDCHAR
STARTCHAR 00D4
ENCODING 212
SWIDTH 500 0
DWIDTH 14 0
BBX 12 24 1 0
BITMAP
0600
1980
0000
0F00
1080
3040
6060
6060
4020
C030
C030
C030
C030
C030
C030
C030
C030
C030
4060
6060
6060
20C0
1180
0F00
ENDCHAR
STARTCHAR 00D5
ENCODING 213
SWIDTH 500 0
DWIDTH 14 0
BBX 12 24 1 0
BITMAP
1C40
2380
0000
0F00
1080
3040
6060
6060
4020
C030
C030
C030
C030
C030
C030
C030
C030
C030
4060
6060
6060
20C0
1180
0F00
ENDCHAR
STARTCHAR 00D6
ENCODING 214
SWIDTH 500 0
DWIDTH 14 0
BBX 12 24 1 0
BITMAP
3180
3180
0000
0F00
1080
3040
6060
6060
4020
C030
C030
C030
C030
C030
C030
C030
C030
C030
4060
6060
6060
20C0
1180
0F00
ENDCHAR
STARTCHAR 00D7
ENCODING 215
SWIDTH 1000 0
DWIDTH 28 0
BBX 16 17 6 2
BITMAP
8001
C003
6006
300C
1818
0C30
0660
03C0
0180
03C0
0660
0C30
1818
300C
6006
C003
8001
ENDCHAR
STARTCHAR 00D8
ENCODING 216
SWIDTH 500 0
DWIDTH 14 0
BBX 12 22 1 1
BITMAP
0030
0F20
31C0
30C0
60E0
60E0
C160
C130
C130
C230
C230
C430
C430
C830
C830
7030
7020
6060
2060
50C0
5880
8F00
ENDCHAR
STARTCHAR 00D9
ENCODING 217
SWIDTH 500 0
DWIDTH 14 0
BBX 14 24 0 0
BITMAP
1E00
0100
0080
FC7C
3010
3010
3010
3010
3010
3010
3010
3010
3010
3010
3010
3010
3010
3010
3010
3010
3030
1820
1C40
0780
ENDCHAR
STARTCHAR 00DA
ENCODING 218
SWIDTH 500 0
DWIDTH 14 0
BBX 14 24 0 0
BITMAP
01E0
0200
0400
FC7C
3010
3010
3010
3010
3010
3010
3010
3010
3010
3010
3010
3010
3010
3010
3010
3010
3030
1820
1C40
0780
ENDCHAR
STARTCHAR 00DB
ENCODING 219
SWIDTH 500 0
DWIDTH 14 0
BBX 14 24 0 0
BITMAP
0380
0C40
0000
FC7C
3010
3010
3010
3010
3010
3010
3010
3010
3010
3010
3010
3010
3010
3010
3010
3010
3030
1820
1C40
0780
ENDCHAR
STARTCHAR 00DC
ENCODING 220
SWIDTH 500 0
DWIDTH 14 0
BBX 14 24 0 0
BITMAP
1860
1860
0000
FC7C
3010
3010
3010
3010
3010
3010
3010
3010
3010
3010
3010
3010
3010
3010
3010
3010
3030
1820
1C40
0780
ENDCHAR
STARTCHAR 00DD
ENCODING 221
SWIDTH 500 0
DWIDTH 14 0
BBX 14 22 0 2
BITMAP
01E0
0200
0400
F87C
3010
3010
1820
1820
1840
0C40
0C40
0680
0680
0300
0300
0300
0300
0300
0300
0300
0300
0FC0
ENDCHAR
STARTCHAR 00DE
ENCODING 222
SWIDTH 500 0
DWIDTH 14 0
BBX 12 19 1 2
BITMAP
FC00
3000
3000
3000
3F80
30C0
3060
3030
3030
3030
3030
3030
3060
30E0
3F80
3000
3000
3000
FC00
ENDCHAR
STARTCHAR 00DF
ENCODING 223
SWIDTH 500 0
DWIDTH 14 0
BBX 11 21 1 0
BITMAP
0F00
1980
30C0
30C0
30C0
30C0
3080
3180
3E00
3180
30C0
30C0
3060
3060
3060
3060
3C60
3C60
F8C0
0CC0
0780
ENDCHAR
STARTCHAR 00E0
ENCODING 224
SWIDTH 500 0
DWIDTH 14 0
BBX 11 19 2 0
BITMAP
7800
0400
0200
0000
3E00
C300
E180
E180
0180
0780
1980
7180
6180
C180
C180
C1A0
C3A0
65A0
38C0
ENDCHAR
STARTCHAR 00E1
ENCODING 225
SWIDTH 500 0
DWIDTH 14 0
BBX 11 19 2 0
BITMAP
0780
1800
0000
0000
3E00
C300
E180
E180
0180
0780
1980
7180
6180
C180
C180
C1A0
C3A0
65A0
38C0
ENDCHAR
STARTCHAR 00E2
ENCODING 226
SWIDTH 500 0
DWIDTH 14 0
BBX 11 19 2 0
BITMAP
1C00
2300
4000
0000
3E00
C300
E180
E180
0180
0780
1980
7180
6180
C180
C180
C1A0
C3A0
65A0
38C0
ENDCHAR
STARTCHAR 00E3
ENCODING 227
SWIDTH 500 0
DWIDTH 14 0
BBX 11 19 2 1
BITMAP
3880
4700
0000
0000
3E00
C300
E180
E180
0180
0780
1980
7180
6180
C180
C180
C1A0
C3A0
65A0
38C0
ENDCHAR
STARTCHAR 00E4
ENCODING 228
SWIDTH 500 0
DWIDTH 14 0
BBX 11 19 2 0
BITMAP
6300
6300
0000
0000
3E00
C300
E180
E180
0180
0780
1980
7180
6180
C180
C180
C1A0
C3A0
65A0
38C0
ENDCHAR
STARTCHAR 00E5
ENCODING 229
SWIDTH 500 0
DWIDTH 14 0
BBX 11 20 2 1
BITMAP
1E00
1200
1400
0800
0000
3E00
C300
E180
E180
0180
0780
1980
7180
6180
C180
C180
C1A0
C3A0
65A0
38C0
ENDCHAR
STARTCHAR 00E6
ENCODING 230
SWIDTH 500 0
DWIDTH 14 0
BBX 11 15 1 0
BITMAP
3980
4E40
6640
6660
0460
0460
1FE0
3400
6400
C400
C420
C620
C640
CA40
7180
ENDCHAR
STARTCHAR 00E7
ENCODING 231
SWIDTH 500 0
DWIDTH 14 0
BBX 10 18 2 -3
BITMAP
1F00
3080
61C0
61C0
C000
C000
C000
C000
C000
C000
4040
6040
2080
1180
0E00
1F00
0300
1E00
ENDCHAR
STARTCHAR 00E8
ENCODING 232
SWIDTH 500 0
DWIDTH 14 0
BBX 10 19 2 0
BITMAP
7800
0400
0200
0000
1E00
3100
6180
4080
C0C0
C0C0
FFC0
C000
C000
C000
C040
4080
6080
3100
1E00
ENDCHAR
STARTCHAR 00E9
ENCODING 233
SWIDTH 500 0
DWIDTH 14 0
BBX 10 19 2 0
BITMAP
0780
0800
1000
0000
1E00
3100
6180
4080
C0C0
C0C0
FFC0
C000
C000
C000
C040
4080
6080
3100
1E00
ENDCHAR
STARTCHAR 00EA
ENCODING 234
SWIDTH 500 0
DWIDTH 14 0
BBX 10 19 2 0
BITMAP
0C00
3300
0000
0000
1E00
3100
6180
4080
C0C0
C0C0
FFC0
C000
C000
C000
C040
4080
6080
3100
1E00
ENDCHAR
STARTCHAR 00EB
ENCODING 235
SWIDTH 500 0
DWIDTH 14 0
BBX 10 19 2 0
BITMAP
6300
6300
0000
0000
1E00
3100
6180
4080
C0C0
C0C0
FFC0
C000
C000
C000
C040
4080
6080
3100
1E00
ENDCHAR
STARTCHAR 00EC
ENCODING 236
SWIDTH 500 0
DWIDTH 14 0
BBX 7 17 3 2
BITMAP
F0
08
04
08
78
18
18
18
18
18
18
18
18
18
18
18
7E
ENDCHAR
STARTCHAR 00ED
ENCODING 237
SWIDTH 500 0
DWIDTH 14 0
BBX 7 17 4 2
BITMAP
1E
60
80
10
F0
30
30
30
30
30
30
30
30
30
30
30
FC
ENDCHAR
STARTCHAR 00EE
ENCODING 238
SWIDTH 500 0
DWIDTH 14 0
BBX 7 17 3 2
BITMAP
38
46
80
08
78
18
18
18
18
18
18
18
18
18
18
18
7E
ENDCHAR
STARTCHAR 00EF
ENCODING 239
SWIDTH 500 0
DWIDTH 14 0
BBX 8 17 3 2
BITMAP
C3
C3
00
08
78
18
18
18
18
18
18
18
18
18
18
18
7E
ENDCHAR
STARTCHAR 00F0
ENCODING 240
SWIDTH 500 0
DWIDTH 14 0
BBX 10 22 2 1
BITMAP
4300
3400
0800
3400
4200
0300
0100
1F80
3380
6180
61C0
C0C0
C0C0
C0C0
C0C0
C0C0
C0C0
C0C0
6180
6180
3300
1E00
ENDCHAR
STARTCHAR 00F1
ENCODING 241
SWIDTH 500 0
DWIDTH 14 0
BBX 12 17 1 3
BITMAP
1C80
2300
0000
2000
E700
3980
30C0
30C0
30C0
30C0
30C0
30C0
30C0
30C0
30C0
30C0
F9F0
ENDCHAR
STARTCHAR 00F2
ENCODING 242
SWIDTH 500 0
DWIDTH 14 0
BBX 10 19 2 0
BITMAP
7800
0400
0200
0000
1E00
7300
6180
E180
C0C0
C0C0
C0C0
C0C0
C0C0
C0C0
C0C0
6180
6180
3300
1E00
ENDCHAR
STARTCHAR 00F3
ENCODING 243
SWIDTH 500 0
DWIDTH 14 0
BBX 10 19 2 0
BITMAP
0780
0800
1000
0000
1E00
7300
6180
E180
C0C0
C0C0
C0C0
C0C0
C0C0
C0C0
C0C0
6180
6180
3300
1E00
ENDCHAR
STARTCHAR 00F4
ENCODING 244
SWIDTH 500 0
DWIDTH 14 0
BBX 10 19 2 0
BITMAP
0C00
3300
0000
0000
1E00
7300
6180
E180
C0C0
C0C0
C0C0
C0C0
C0C0
C0C0
C0C0
6180
6180
3300
1E00
ENDCHAR
STARTCHAR 00F5
ENCODING 245
SWIDTH 500 0
DWIDTH 14 0
BBX 10 19 2 1
BITMAP
3880
4700
0000
0000
1E00
7300
6180
E180
C0C0
C0C0
C0C0
C0C0
C0C0
C0C0
C0C0
6180
6180
3300
1E00
ENDCHAR
STARTCHAR 00F6
ENCODING 246
SWIDTH 500 0
DWIDTH 14 0
BBX 10 19 2 0
BITMAP
6300
6300
0000
0000
1E00
7300
6180
E180
C0C0
C0C0
C0C0
C0C0
C0C0
C0C0
C0C0
6180
6180
3300
1E00
ENDCHAR
STARTCHAR 00F7
ENCODING 247
SWIDTH 1000 0
DWIDTH 28 0
BBX 20 14 4 3
BITMAP
00E000
00E000
00E000
000000
000000
000000
FFFFF0
000000
000000
000000
000000
00E000
00E000
00E000
ENDCHAR
STARTCHAR 00F8
ENCODING 248
SWIDTH 500 0
DWIDTH 14 0
BBX 10 17 2 0
BITMAP
0080
00C0
1F80
7180
6180
E2C0
C2C0
C4C0
C4C0
C8C0
C8C0
D0C0
D0C0
6180
6180
7300
9E00
ENDCHAR
STARTCHAR 00F9
ENCODING 249
SWIDTH 500 0
DWIDTH 14 0
BBX 12 19 1 0
BITMAP
1C00
0200
0000
1040
F1C0
30C0
30C0
30C0
30C0
30C0
30C0
30C0
30C0
30C0
30C0
30C0
11C0
1970
0E00
ENDCHAR
STARTCHAR 00FA
ENCODING 250
SWIDTH 500 0
DWIDTH 14 0
BBX 12 19 1 0
BITMAP
03C0
0400
0000
1040
F1C0
30C0
30C0
30C0
30C0
30C0
30C0
30C0
30C0
30C0
30C0
30C0
11C0
1970
0E00
ENDCHAR
STARTCHAR 00FB
ENCODING 251
SWIDTH 500 0
DWIDTH 14 0
BBX 12 19 1 0
BITMAP
0600
0980
1000
1040
F1C0
30C0
30C0
30C0
30C0
30C0
30C0
30C0
30C0
30C0
30C0
30C0
11C0
1970
0E00
ENDCHAR
STARTCHAR 00FC
ENCODING 252
SWIDTH 500 0
DWIDTH 14 0
BBX 12 18 1 0
BITMAP
1980
1980
0000
30C0
F1C0
30C0
30C0
30C0
30C0
30C0
30C0
30C0
30C0
30C0
30C0
11C0
1970
0E00
ENDCHAR
STARTCHAR 00FD
ENCODING 253
SWIDTH 500 0
DWIDTH 14 0
BBX 13 22 1 -3
BITMAP
03C0
0400
0800
0000
F8F8
6020
3020
3040
1040
1840
0880
0C80
0D00
0500
0700
0200
0200
0200
0400
6400
4C00
3800
ENDCHAR
STARTCHAR 00FE
ENCODING 254
SWIDTH 500 0
DWIDTH 14 0
BBX 12 25 1 -3
BITMAP
1000
F000
3000
3000
3000
3000
3000
3780
38C0
3060
3060
3030
3030
3030
3030
3030
3030
3060
3060
38C0
3780
3000
3000
3000
FC00
ENDCHAR
STARTCHAR 00FF
ENCODING 255
SWIDTH 500 0
DWIDTH 14 0
BBX 13 22 1 -3
BITMAP
18C0
18C0
0000
0000
F8F8
6020
3020
3040
1040
1880
0880
0C80
0D00
0500
0700
0200
0200
0200
0400
6400
4800
3800
ENDCHAR
STARTCHAR 0100
ENCODING 256
SWIDTH 500 0
DWIDTH 14 0
BBX 14 22 0 2
BITMAP
1FE0
0000
0200
0300
0300
0300
0580
0580
0580
0880
08C0
08C0
08C0
1040
1FE0
1060
2020
2030
2030
4010
4018
F07C
ENDCHAR
STARTCHAR 0101
ENCODING 257
SWIDTH 500 0
DWIDTH 14 0
BBX 12 19 1 0
BITMAP
3FC0
0000
0000
0000
3F00
6180
60C0
60C0
00C0
03C0
1CC0
30C0
60C0
C0C0
C0C0
C0D0
C1D0
62D0
3C60
ENDCHAR
STARTCHAR 0102
ENCODING 258
SWIDTH 500 0
DWIDTH 14 0
BBX 14 22 0 2
BITMAP
0840
0780
0000
0200
0300
0300
0300
0580
0580
0580
0880
08C0
08C0
08C0
1FC0
1060
1060
1060
2020
2030
2030
F8FC
ENDCHAR
STARTCHAR 0103
ENCODING 259
SWIDTH 500 0
DWIDTH 14 0
BBX 11 19 2 0
BITMAP
6100
1E00
0000
0000
3E00
C300
E180
E180
0180
0780
1980
7180
6180
C180
C180
C1A0
C3A0
65A0
38C0
ENDCHAR
STARTCHAR 0104
ENCODING 260
SWIDTH 500 0
DWIDTH 14 0
BBX 14 25 0 -3
BITMAP
0200
0300
0300
0300
0500
0580
0580
0480
0880
08C0
08C0
0840
1FE0
1060
1060
1060
2030
2030
2030
F8FC
0020
0040
0080
0088
00F0
ENDCHAR
STARTCHAR 0105
ENCODING 261
SWIDTH 500 0
DWIDTH 14 0
BBX 11 18 2 -3
BITMAP
3E00
C300
E180
E180
0180
0780
1980
7180
6180
C180
C180
C1A0
C3A0
64A0
3940
0200
0220
03C0
ENDCHAR
STARTCHAR 0106
ENCODING 262
SWIDTH 500 0
DWIDTH 14 0
BBX 11 24 2 0
BITMAP
0780
0800
1000
0F40
11C0
20C0
6040
4040
4040
C000
C000
C000
C000
C000
C000
C000
C040
C060
4040
6040
60C0
3080
3180
0E00
ENDCHAR
STARTCHAR 0107
ENCODING 263
SWIDTH 500 0
DWIDTH 14 0
BBX 10 19 2 0
BITMAP
0780
0800
1000
0000
1F00
3080
61C0
61C0
C000
C000
C000
C000
C000
C000
C040
6040
6080
3180
1E00
ENDCHAR
STARTCHAR 0108
ENCODING 264
SWIDTH 500 0
DWIDTH 14 0
BBX 11 24 2 0
BITMAP
0E00
1100
2080
0F40
11C0
20C0
6040
4040
4040
C000
C000
C000
C000
C000
C000
C000
C040
C060
4040
6040
60C0
3080
3180
0E00
ENDCHAR
STARTCHAR 0109
ENCODING 265
SWIDTH 500 0
DWIDTH 14 0
BBX 10 19 2 0
BITMAP
0E00
1100
2080
0000
1F00
3080
61C0
61C0
C000
C000
C000
C000
C000
C000
C040
6040
6080
3180
1E00
ENDCHAR
STARTCHAR 010C
ENCODING 268
SWIDTH 500 0
DWIDTH 14 0
BBX 11 24 2 0
BITMAP
3180
0E00
0000
0F40
31C0
30C0
6040
6040
C040
C000
C000
C000
C000
C000
C000
C000
C040
C060
4040
6040
60C0
3080
3180
0E00
ENDCHAR
STARTCHAR 010D
ENCODING 269
SWIDTH 500 0
DWIDTH 14 0
BBX 10 19 2 0
BITMAP
3180
0E00
0000
0000
1F00
3080
61C0
61C0
C000
C000
C000
C000
C000
C000
C040
6040
6080
3180
1E00
ENDCHAR
STARTCHAR 010E
ENCODING 270
SWIDTH 500 0
DWIDTH 14 0
BBX 12 22 1 2
BITMAP
3180
0E00
0000
FF00
3180
30C0
3060
3060
3030
3030
3030
3030
3030
3030
3030
3030
3030
3060
3060
30C0
31C0
FF00
ENDCHAR
STARTCHAR 010F
ENCODING 271
SWIDTH 500 0
DWIDTH 14 0
BBX 13 23 1 0
BITMAP
0038
01B8
07B8
0190
01B0
01C0
0180
0180
1F80
3380
6180
6180
C180
C180
C180
C180
C180
C180
C180
4180
6380
35E0
1C00
ENDCHAR
STARTCHAR 0111
ENCODING 273
SWIDTH 500 0
DWIDTH 14 0
BBX 11 22 2 0
BITMAP
0080
0380
0180
0180
07E0
0180
0180
1F80
7380
6180
E180
C180
C180
C180
C180
C180
C180
C180
4180
6180
32E0
1C00
ENDCHAR
STARTCHAR 0112
ENCODING 274
SWIDTH 500 0
DWIDTH 14 0
BBX 11 22 1 2
BITMAP
3FC0
0000
0000
FFE0
3060
3020
3020
3020
3000
3080
3080
3080
3F80
3080
3080
3080
3000
3020
3020
3020
3060
FFE0
ENDCHAR
STARTCHAR 0113
ENCODING 275
SWIDTH 500 0
DWIDTH 14 0
BBX 10 19 2 0
BITMAP
7F80
0000
0000
0000
1E00
2180
4080
40C0
C0C0
80C0
FFC0
8000
8000
8000
C040
4040
6080
3180
1E00
ENDCHAR
STARTCHAR 0118
ENCODING 280
SWIDTH 500 0
DWIDTH 14 0
BBX 11 24 1 -3
BITMAP
FFE0
3060
3020
3020
3020
3000
3080
3080
3080
3F80
3080
3080
3080
3000
3000
3020
3020
3020
3060
CF80
0400
0800
0880
0F00
ENDCHAR
STARTCHAR 0119
ENCODING 281
SWIDTH 500 0
DWIDTH 14 0
BBX 10 18 2 -3
BITMAP
1E00
3100
6180
4080
C0C0
C0C0
FFC0
C000
C000
C000
4040
6080
3180
1F00
0800
1000
1100
1E00
ENDCHAR
STARTCHAR 011A
ENCODING 282
SWIDTH 500 0
DWIDTH 14 0
BBX 11 22 1 2
BITMAP
1880
0700
0000
FFE0
3060
3020
3020
3020
3000
3080
3080
3080
3F80
3080
3080
3080
3000
3020
3020
3020
3060
FFE0
ENDCHAR
STARTCHAR 011B
ENCODING 283
SWIDTH 500 0
DWIDTH 14 0
BBX 10 19 2 0
BITMAP
3300
0C00
0000
0000
1E00
3100
6180
4080
C0C0
C0C0
FFC0
C000
C000
C000
C040
4080
6080
3100
1E00
ENDCHAR
STARTCHAR 011C
ENCODING 284
SWIDTH 500 0
DWIDTH 14 0
BBX 12 24 1 0
BITMAP
0700
1880
0040
0FA0
18E0
3060
6020
6020
4000
C000
C000
C000
C000
C1F0
C060
C060
C060
C060
4060
6060
6060
30A0
3120
0E00
ENDCHAR
STARTCHAR 011D
ENCODING 285
SWIDTH 500 0
DWIDTH 14 0
BBX 13 22 1 -3
BITMAP
0E00
1100
2080
0000
1F78
31B8
60C0
60C0
60C0
60C0
3180
1F00
6000
4000
3E00
67C0
C060
C030
C030
C030
7060
1FC0
ENDCHAR
STARTCHAR 0124
ENCODING 292
SWIDTH 500 0
DWIDTH 14 0
BBX 14 22 0 2
BITMAP
0300
0CC0
0000
FCFC
3030
3030
3030
3030
3030
3030
3030
3030
3FF0
3030
3030
3030
3030
3030
3030
3030
3030
FCFC
ENDCHAR
STARTCHAR 0125
ENCODING 293
SWIDTH 500 0
DWIDTH 14 0
BBX 12 22 1 2
BITMAP
0600
0900
1080
F000
3000
3000
3000
3000
3000
3780
3980
30C0
30C0
30C0
30C0
30C0
30C0
30C0
30C0
30C0
30C0
F9F0
ENDCHAR
STARTCHAR 0127
ENCODING 295
SWIDTH 500 0
DWIDTH 14 0
BBX 12 20 1 2
BITMAP
1000
F000
3000
3000
FC00
3000
3000
3780
3980
30C0
30C0
30C0
30C0
30C0
30C0
30C0
30C0
30C0
30C0
F9F0
ENDCHAR
STARTCHAR 012A
ENCODING 298
SWIDTH 500 0
DWIDTH 14 0
BBX 8 22 3 2
BITMAP
FF
00
00
7E
18
18
18
18
18
18
18
18
18
18
18
18
18
18
18
18
18
7E
ENDCHAR
STARTCHAR 012B
ENCODING 299
SWIDTH 500 0
DWIDTH 14 0
BBX 8 17 3 2
BITMAP
FF
00
00
08
78
18
18
18
18
18
18
18
18
18
18
18
7E
ENDCHAR
STARTCHAR 0134
ENCODING 308
SWIDTH 500 0
DWIDTH 14 0
BBX 11 24 2 0
BITMAP
0380
0460
0800
07E0
0180
0180
0180
0180
0180
0180
0180
0180
0180
0180
0180
0180
0180
0180
E180
E180
C100
C300
6600
3C00
ENDCHAR
STARTCHAR 0135
ENCODING 309
SWIDTH 500 0
DWIDTH 14 0
BBX 10 22 1 -3
BITMAP
0700
0880
1040
0100
0F00
0300
0300
0300
0300
0300
0300
0300
0300
0300
0300
0300
0300
E300
E300
E300
4600
3C00
ENDCHAR
STARTCHAR 0139
ENCODING 313
SWIDTH 500 0
DWIDTH 14 0
BBX 11 22 1 2
BITMAP
0780
0C00
1000
FC00
3000
3000
3000
3000
3000
3000
3000
3000
3000
3000
3000
3000
3020
3020
3020
3020
3060
FFE0
ENDCHAR
STARTCHAR 013A
ENCODING 314
SWIDTH 500 0
DWIDTH 14 0
BBX 6 22 4 2
BITMAP
3C
40
90
F0
30
30
30
30
30
30
30
30
30
30
30
30
30
30
30
30
30
FC
ENDCHAR
STARTCHAR 013D
ENCODING 317
SWIDTH 500 0
DWIDTH 14 0
BBX 11 21 1 2
BITMAP
00C0
00C0
FCC0
3040
3080
3100
3000
3000
3000
3000
3000
3000
3000
3000
3000
3020
3020
3020
3020
3060
FFE0
ENDCHAR
STARTCHAR 013E
ENCODING 318
SWIDTH 500 0
DWIDTH 14 0
BBX 9 22 4 2
BITMAP
0380
0380
7380
F180
3100
3200
3000
3000
3000
3000
3000
3000
3000
3000
3000
3000
3000
3000
3000
3000
3000
FC00
ENDCHAR
STARTCHAR 0141
ENCODING 321
SWIDTH 500 0
DWIDTH 14 0
BBX 11 19 1 2
BITMAP
FC00
3000
3000
3000
3000
3400
3600
3800
3000
3000
7000
B000
3000
3020
3020
3020
3020
3060
FFE0
ENDCHAR
STARTCHAR 0142
ENCODING 322
SWIDTH 500 0
DWIDTH 14 0
BBX 9 20 2 3
BITMAP
1C00
3C00
0C00
0C00
0C00
0C00
0C80
0D00
0E00
0C00
1C00
2C00
4C00
8C00
0C00
0C00
0C00
0C00
0C00
3F00
ENDCHAR
STARTCHAR 0143
ENCODING 323
SWIDTH 500 0
DWIDTH 14 0
BBX 14 23 0 1
BITMAP
01E0
0600
0000
F07C
3810
3810
2C10
2C10
2610
2610
2310
2310
2310
2190
2190
20D0
20D0
2070
2070
2030
2030
F810
0010
ENDCHAR
STARTCHAR 0144
ENCODING 324
SWIDTH 500 0
DWIDTH 14 0
BBX 12 17 1 2
BITMAP
0380
0400
0800
2000
E700
3980
30C0
30C0
30C0
30C0
30C0
30C0
30C0
30C0
30C0
30C0
F9F0
ENDCHAR
STARTCHAR 0147
ENCODING 327
SWIDTH 500 0
DWIDTH 14 0
BBX 14 23 0 1
BITMAP
1860
0780
0000
F07C
3810
3810
2C10
2C10
2610
2610
2310
2310
2310
2190
2190
20D0
20D0
2070
2070
2030
2030
F810
0010
ENDCHAR
STARTCHAR 0148
ENCODING 328
SWIDTH 500 0
DWIDTH 14 0
BBX 12 17 1 2
BITMAP
1900
0600
0000
2000
E700
3980
30C0
30C0
30C0
30C0
30C0
30C0
30C0
30C0
30C0
30C0
F9F0
ENDCHAR
STARTCHAR 014B
ENCODING 331
SWIDTH 500 0
DWIDTH 14 0
BBX 10 19 1 -3
BITMAP
2000
E700
3980
30C0
30C0
30C0
30C0
30C0
30C0
30C0
30C0
30C0
30C0
F8C0
00C0
00C0
04C0
0580
0380
ENDCHAR
STARTCHAR 014C
ENCODING 332
SWIDTH 500 0
DWIDTH 14 0
BBX 12 24 1 0
BITMAP
3FC0
0000
0000
0F00
1880
3040
6060
6060
4020
C030
C030
C030
C030
C030
C030
C030
C030
C030
4060
6060
6060
20C0
1180
0F00
ENDCHAR
STARTCHAR 014D
ENCODING 333
SWIDTH 500 0
DWIDTH 14 0
BBX 12 19 1 0
BITMAP
3FC0
0000
0000
0000
1F00
30C0
6060
6060
C030
C030
C030
C030
C030
C030
C030
6060
6060
30C0
0F00
ENDCHAR
STARTCHAR 0150
ENCODING 336
SWIDTH 500 0
DWIDTH 14 0
BBX 12 24 1 0
BITMAP
0F70
1180
2200
0F00
1980
30C0
6060
6060
4020
C030
C030
C030
C030
C030
C030
C030
C030
C030
4020
6060
6060
20C0
1180
0F00
ENDCHAR
STARTCHAR 0151
ENCODING 337
SWIDTH 500 0
DWIDTH 14 0
BBX 11 19 2 0
BITMAP
1EE0
2300
4400
0000
1E00
7300
6180
E180
C0C0
C0C0
C0C0
C0C0
C0C0
C0C0
C0C0
6180
6180
3300
1E00
ENDCHAR
STARTCHAR 0152
ENCODING 338
SWIDTH 500 0
DWIDTH 14 0
BBX 11 21 2 0
BITMAP
1FE0
3660
6620
6620
4620
C600
C680
C680
C680
C780
C680
C680
C680
C600
C600
C620
4620
6620
67E0
2400
1800
ENDCHAR
STARTCHAR 0153
ENCODING 339
SWIDTH 500 0
DWIDTH 14 0
BBX 11 15 2 0
BITMAP
3380
5E80
4C40
CC40
CC40
CC40
CFC0
CC20
CC00
CC00
CC40
CC40
CC40
5A80
3380
ENDCHAR
STARTCHAR 0154
ENCODING 340
SWIDTH 500 0
DWIDTH 14 0
BBX 13 22 1 2
BITMAP
03C0
0400
0800
FF80
30E0
3060
3030
3030
3030
3030
3060
30C0
3F00
3300
3100
3180
3080
30C0
30C0
3060
3060
FC38
ENDCHAR
STARTCHAR 0155
ENCODING 341
SWIDTH 500 0
DWIDTH 14 0
BBX 10 17 3 2
BITMAP
0780
1800
2000
2000
E3C0
2CC0
3800
3000
3000
3000
3000
3000
3000
3000
3000
3000
FC00
ENDCHAR
STARTCHAR 0158
ENCODING 344
SWIDTH 500 0
DWIDTH 14 0
BBX 13 22 1 2
BITMAP
1880
0700
0000
FF80
30E0
3060
3030
3030
3030
3030
3060
30C0
3F00
3300
3100
3180
3080
30C0
30C0
3060
3060
FC38
ENDCHAR
STARTCHAR 0159
ENCODING 345
SWIDTH 500 0
DWIDTH 14 0
BBX 10 17 3 2
BITMAP
6300
1C00
0000
2000
E3C0
2CC0
3800
3000
3000
3000
3000
3000
3000
3000
3000
3000
FC00
ENDCHAR
STARTCHAR 015A
ENCODING 346
SWIDTH 500 0
DWIDTH 14 0
BBX 10 24 2 0
BITMAP
0F00
1000
2000
3E80
4380
C180
C080
C080
C000
E000
7000
3800
1C00
0F00
0380
0180
81C0
80C0
80C0
80C0
C0C0
C180
A380
1E00
ENDCHAR
STARTCHAR 015B
ENCODING 347
SWIDTH 500 0
DWIDTH 14 0
BBX 9 19 3 0
BITMAP
0F00
1000
2000
0000
3D00
6300
C100
C100
C000
6000
3800
0E00
0300
8180
8180
8180
C380
A300
1E00
ENDCHAR
STARTCHAR 015C
ENCODING 348
SWIDTH 500 0
DWIDTH 14 0
BBX 10 24 2 0
BITMAP
1C00
2200
0100
3E80
6380
C180
C080
C080
C000
C000
6000
3000
1C00
0E00
0300
0180
81C0
80C0
80C0
80C0
C0C0
C180
A380
1E00
ENDCHAR
STARTCHAR 015D
ENCODING 349
SWIDTH 500 0
DWIDTH 14 0
BBX 9 19 3 0
BITMAP
1C00
2200
4000
0000
3D00
6300
C100
C100
C000
6000
3800
0E00
0300
8180
8180
8180
C380
A300
1E00
ENDCHAR
STARTCHAR 015E
ENCODING 350
SWIDTH 500 0
DWIDTH 14 0
BBX 10 24 2 -2
BITMAP
3E80
6380
C180
C080
C080
C000
6000
7000
3C00
0E00
0300
0180
80C0
80C0
80C0
C0C0
C180
A180
1E00
1C00
1C00
1C00
0800
1000
ENDCHAR
STARTCHAR 015F
ENCODING 351
SWIDTH 500 0
DWIDTH 14 0
BBX 9 18 3 -2
BITMAP
7F00
E300
C100
C100
6000
3800
0E00
0300
8180
8180
C180
E300
1E00
1C00
1C00
1C00
0800
1000
ENDCHAR
STARTCHAR 0160
ENCODING 352
SWIDTH 500 0
DWIDTH 14 0
BBX 10 24 2 0
BITMAP
2300
1C00
0000
3E80
6380
C180
C080
C080
C000
C000
6000
3000
1C00
0600
0300
0180
80C0
80C0
80C0
80C0
C0C0
C180
A380
1E00
ENDCHAR
STARTCHAR 0161
ENCODING 353
SWIDTH 500 0
DWIDTH 14 0
BBX 9 19 3 0
BITMAP
6200
1C00
0000
0000
3D00
6300
C100
C100
C000
6000
3800
0E00
0300
8180
8180
8180
C380
A300
1E00
ENDCHAR
STARTCHAR 0162
ENCODING 354
SWIDTH 500 0
DWIDTH 14 0
BBX 12 24 1 -3
BITMAP
FFF0
C630
8610
8610
8610
0600
0600
0600
0600
0600
0600
0600
0600
0600
0600
0600
0600
1F80
0000
0F00
0F00
0F00
0200
0C00
ENDCHAR
STARTCHAR 0163
ENCODING 355
SWIDTH 500 0
DWIDTH 14 0
BBX 10 22 2 -2
BITMAP
0800
0800
1800
3800
FF80
1800
1800
1800
1800
1800
1800
1800
1800
1840
1840
1880
0F00
1E00
1E00
1E00
0400
1800
ENDCHAR
STARTCHAR 0164
ENCODING 356
SWIDTH 500 0
DWIDTH 14 0
BBX 12 22 1 2
BITMAP
30C0
0F00
0000
FFF0
C630
8610
8610
8610
0600
0600
0600
0600
0600
0600
0600
0600
0600
0600
0600
0600
0600
1F80
ENDCHAR
STARTCHAR 0165
ENCODING 357
SWIDTH 500 0
DWIDTH 14 0
BBX 10 23 2 0
BITMAP
01C0
01C0
01C0
0080
0880
0B00
1800
3800
FF80
1800
1800
1800
1800
1800
1800
1800
1800
1800
1800
1840
1880
1C80
0F00
ENDCHAR
STARTCHAR 016A
ENCODING 362
SWIDTH 500 0
DWIDTH 14 0
BBX 14 24 0 0
BITMAP
1FE0
0000
0000
FC3C
3010
3010
3010
3010
3010
3010
3010
3010
3010
3010
3010
3010
3010
3010
3010
3010
3010
1820
1C40
0780
ENDCHAR
STARTCHAR 016B
ENCODING 363
SWIDTH 500 0
DWIDTH 14 0
BBX 12 19 1 0
BITMAP
3FC0
0000
0000
1040
F1C0
30C0
30C0
30C0
30C0
30C0
30C0
30C0
30C0
30C0
30C0
30C0
31C0
3970
1E00
ENDCHAR
STARTCHAR 016C
ENCODING 364
SWIDTH 500 0
DWIDTH 14 0
BBX 14 24 0 0
BITMAP
0840
0780
0000
FC7C
3010
3010
3010
3010
3010
3010
3010
3010
3010
3010
3010
3010
3010
3010
3010
3010
3030
1820
1C40
0780
ENDCHAR
STARTCHAR 016D
ENCODING 365
SWIDTH 500 0
DWIDTH 14 0
BBX 12 19 1 0
BITMAP
1180
0980
0700
0000
3040
F1C0
30C0
30C0
30C0
30C0
30C0
30C0
30C0
30C0
30C0
30C0
11C0
1970
0E00
ENDCHAR
STARTCHAR 016E
ENCODING 366
SWIDTH 500 0
DWIDTH 14 0
BBX 14 25 0 0
BITMAP
0100
0680
0480
0480
FF7C
3010
3010
3010
3010
3010
3010
3010
3010
3010
3010
3010
3010
3010
3010
3010
3010
3030
1820
1C40
0780
ENDCHAR
STARTCHAR 016F
ENCODING 367
SWIDTH 500 0
DWIDTH 14 0
BBX 12 20 1 0
BITMAP
0600
0A00
0A00
0600
0000
30C0
F1C0
30C0
30C0
30C0
30C0
30C0
30C0
30C0
30C0
30C0
30C0
11C0
1970
0E00
ENDCHAR
STARTCHAR 0170
ENCODING 368
SWIDTH 500 0
DWIDTH 14 0
BBX 14 24 0 0
BITMAP
03B8
0CC0
1000
FC7C
3010
3010
3010
3010
3010
3010
3010
3010
3010
3010
3010
3010
3010
3010
3010
3010
3030
1820
1C40
0780
ENDCHAR
STARTCHAR 0171
ENCODING 369
SWIDTH 500 0
DWIDTH 14 0
BBX 12 19 1 0
BITMAP
07F0
0900
1200
0000
F1C0
30C0
30C0
30C0
30C0
30C0
30C0
30C0
30C0
30C0
30C0
30C0
11C0
1970
0E00
ENDCHAR
STARTCHAR 0179
ENCODING 377
SWIDTH 500 0
DWIDTH 14 0
BBX 10 22 2 2
BITMAP
0780
0800
1000
FFC0
C0C0
8180
8180
8300
0300
0600
0600
0C00
0C00
0800
1800
1000
3040
2040
4040
4040
80C0
FFC0
ENDCHAR
STARTCHAR 017A
ENCODING 378
SWIDTH 500 0
DWIDTH 14 0
BBX 10 17 2 2
BITMAP
0380
0C00
0000
0000
7FC0
6180
4180
4300
0600
0600
0C00
1800
3840
3040
6040
E0C0
FFC0
ENDCHAR
STARTCHAR 017B
ENCODING 379
SWIDTH 500 0
DWIDTH 14 0
BBX 10 23 2 2
BITMAP
0E00
0E00
0E00
0000
FFC0
C0C0
8180
8180
8300
0300
0600
0600
0C00
0C00
0800
1800
1000
3040
2040
4040
4040
80C0
FFC0
ENDCHAR
STARTCHAR 017C
ENCODING 380
SWIDTH 500 0
DWIDTH 14 0
BBX 10 18 2 2
BITMAP
0E00
0E00
0E00
0000
0000
7FC0
6180
4180
4300
0600
0600
0C00
1800
3840
3040
6040
E0C0
FFC0
ENDCHAR
STARTCHAR 017D
ENCODING 381
SWIDTH 500 0
DWIDTH 14 0
BBX 10 22 2 2
BITMAP
3300
0E00
0000
FFC0
C0C0
8180
8180
8300
0300
0600
0600
0C00
0C00
0800
1800
1000
3040
2040
4040
4040
80C0
FFC0
ENDCHAR
STARTCHAR 017E
ENCODING 382
SWIDTH 500 0
DWIDTH 14 0
BBX 10 17 2 2
BITMAP
3100
0E00
0000
0000
7FC0
6180
4180
4300
0600
0600
0C00
1800
3840
3040
6040
E0C0
FFC0
ENDCHAR
STARTCHAR 0193
ENCODING 403
SWIDTH 500 0
DWIDTH 14 0
BBX 13 24 1 0
BITMAP
00F0
0098
00B8
1FB8
3380
6180
6080
4080
C000
C000
C000
C000
C000
C3C0
C180
C180
C180
C180
C180
6180
6180
6280
3280
1C00
ENDCHAR
STARTCHAR 01C2
ENCODING 450
SWIDTH 500 0
DWIDTH 14 0
BBX 10 25 2 -3
BITMAP
0C00
0C00
0C00
0C00
0C00
0C00
0C00
FFC0
0C00
0C00
0C00
0C00
0C00
0C00
0C00
0C00
FFC0
0C00
0C00
0C00
0C00
0C00
0C00
0C00
0C00
ENDCHAR
STARTCHAR 01CD
ENCODING 461
SWIDTH 1000 0
DWIDTH 28 0
BBX 22 23 3 2
BITMAP
018600
007800
003000
002000
003000
003000
005800
005800
00CC00
008C00
018C00
010600
010600
020300
020300
07FF80
040180
0C01C0
0800C0
1800C0
100060
300070
FE03FC
ENDCHAR
STARTCHAR 01CE
ENCODING 462
SWIDTH 1000 0
DWIDTH 28 0
BBX 15 19 7 1
BITMAP
30C0
0D80
0700
0000
0000
1F80
60C0
60E0
6060
0060
03E0
1C60
7060
6060
C060
C060
C0E6
617C
3E38
ENDCHAR
STARTCHAR 01D0
ENCODING 464
SWIDTH 1000 0
DWIDTH 28 0
BBX 8 18 10 2
BITMAP
C3
3C
18
00
08
78
18
18
18
18
18
18
18
18
18
18
18
7E
ENDCHAR
STARTCHAR 01D1
ENCODING 465
SWIDTH 1000 0
DWIDTH 28 0
BBX 18 23 5 2
BITMAP
073800
01E000
000000
03F000
0E1C00
180600
300300
600180
600180
C00080
C000C0
C000C0
C000C0
C000C0
C000C0
C000C0
C000C0
600180
600180
300300
180600
0C1C00
03F000
ENDCHAR
STARTCHAR 01D2
ENCODING 466
SWIDTH 1000 0
DWIDTH 28 0
BBX 14 19 7 1
BITMAP
1860
07C0
0300
0000
0000
0FC0
1860
7010
6018
C00C
C00C
C00C
C00C
C00C
C01C
6018
7038
3870
0FC0
ENDCHAR
STARTCHAR 01D4
ENCODING 468
SWIDTH 1000 0
DWIDTH 28 0
BBX 15 18 7 1
BITMAP
0CE0
0380
0000
0000
F078
3018
3018
3018
3018
3018
3018
3018
3018
3018
3018
3838
1858
0F9E
ENDCHAR
STARTCHAR 01D6
ENCODING 470
SWIDTH 1000 0
DWIDTH 28 0
BBX 15 20 7 0
BITMAP
0FE0
3838
3838
3838
0000
0000
F078
3018
3018
3018
3018
3018
3018
3018
3018
3018
3018
3838
1858
0F9E
ENDCHAR
STARTCHAR 01D8
ENCODING 472
SWIDTH 1000 0
DWIDTH 28 0
BBX 15 20 7 0
BITMAP
00F0
3B38
3838
3838
0000
0000
F078
3018
3018
3018
3018
3018
3018
3018
3018
3018
3018
3838
1858
0F9E
ENDCHAR
STARTCHAR 01DA
ENCODING 474
SWIDTH 1000 0
DWIDTH 28 0
BBX 15 20 7 1
BITMAP
0CE0
3BB8
3838
3838
0000
0000
F078
3018
3018
3018
3018
3018
3018
3018
3018
3018
3018
3838
1858
0F9E
ENDCHAR
STARTCHAR 01DC
ENCODING 476
SWIDTH 1000 0
DWIDTH 28 0
BBX 15 20 7 0
BITMAP
1E00
3938
38B8
3838
0000
0000
F078
3018
3018
3018
3018
3018
3018
3018
3018
3018
3018
3838
1858
0F9E
ENDCHAR
STARTCHAR 01F8
ENCODING 504
SWIDTH 500 0
DWIDTH 14 0
BBX 14 23 0 1
BITMAP
3E00
0100
0080
F07C
3810
3810
2C10
2C10
2610
2610
2310
2310
2310
2190
2190
20D0
20D0
2070
2070
2030
2030
F810
0010
ENDCHAR
STARTCHAR 01F9
ENCODING 505
SWIDTH 500 0
DWIDTH 14 0
BBX 12 17 1 2
BITMAP
3C00
0600
0000
2000
E700
3980
30C0
30C0
30C0
30C0
30C0
30C0
30C0
30C0
30C0
30C0
F9F0
ENDCHAR
STARTCHAR 01FD
ENCODING 509
SWIDTH 500 0
DWIDTH 14 0
BBX 11 19 1 0
BITMAP
0380
0C00
0000
0000
3980
4E40
6640
6660
0460
0460
1FE0
3400
6400
C400
C420
C620
C640
CA40
7180
ENDCHAR
STARTCHAR 0250
ENCODING 592
SWIDTH 500 0
DWIDTH 14 0
BBX 11 15 1 0
BITMAP
67C0
B8E0
3060
3060
3060
30C0
31C0
3700
3800
3000
30E0
30E0
1840
18C0
0F00
ENDCHAR
STARTCHAR 0251
ENCODING 593
SWIDTH 500 0
DWIDTH 14 0
BBX 11 16 2 0
BITMAP
0080
3E80
7380
6180
E180
C180
C180
C180
C180
C180
C180
C180
4180
63A0
33A0
1CC0
ENDCHAR
STARTCHAR 0252
ENCODING 594
SWIDTH 500 0
DWIDTH 14 0
BBX 11 15 1 0
BITMAP
6700
B980
30C0
30C0
3060
3060
3060
3060
3060
3060
3060
30C0
30C0
2980
0700
ENDCHAR
STARTCHAR 0253
ENCODING 595
SWIDTH 500 0
DWIDTH 14 0
BBX 10 21 3 0
BITMAP
3E00
6100
E180
C180
C180
C000
CE00
F300
C180
C180
C0C0
C0C0
C0C0
C0C0
C0C0
C0C0
C0C0
C180
E180
A300
1E00
ENDCHAR
STARTCHAR 0254
ENCODING 596
SWIDTH 500 0
DWIDTH 14 0
BBX 10 15 2 0
BITMAP
3E00
4300
8180
8180
00C0
00C0
00C0
00C0
00C0
00C0
E080
E180
C100
6200
3C00
ENDCHAR
STARTCHAR 0255
ENCODING 597
SWIDTH 500 0
DWIDTH 14 0
BBX 10 15 2 0
BITMAP
1F00
3080
61C0
61C0
C000
C000
C000
C000
C180
C640
6C40
7840
3080
7980
4F00
ENDCHAR
STARTCHAR 0256
ENCODING 598
SWIDTH 500 0
DWIDTH 14 0
BBX 13 25 1 -3
BITMAP
0180
0780
0180
0180
0180
0180
0180
1F80
3380
6180
6180
C180
C180
C180
C180
C180
C180
C180
4180
6380
3380
1D98
0198
00D8
00F0
ENDCHAR
STARTCHAR 0257
ENCODING 599
SWIDTH 500 0
DWIDTH 14 0
BBX 13 21 1 0
BITMAP
00F0
01D8
0198
0180
0180
0180
1F80
3380
6180
6180
C180
C180
C180
C180
C180
C180
C180
4180
6380
35E0
1C00
ENDCHAR
STARTCHAR 0258
ENCODING 600
SWIDTH 500 0
DWIDTH 14 0
BBX 10 15 2 0
BITMAP
1E00
3300
6180
4080
C0C0
C0C0
FFC0
00C0
00C0
00C0
8080
8080
4180
2300
1E00
ENDCHAR
STARTCHAR 0259
ENCODING 601
SWIDTH 500 0
DWIDTH 14 0
BBX 10 15 2 0
BITMAP
1E00
6380
4180
8080
00C0
00C0
00C0
FFC0
C0C0
C0C0
40C0
4080
6180
3300
1E00
ENDCHAR
STARTCHAR 025A
ENCODING 602
SWIDTH 500 0
DWIDTH 14 0
BBX 13 14 1 1
BITMAP
3C00
6600
4200
8340
01D0
0348
0F50
1330
6300
C300
6300
6200
2600
1C00
ENDCHAR
STARTCHAR 025C
ENCODING 604
SWIDTH 500 0
DWIDTH 14 0
BBX 10 15 2 0
BITMAP
3E00
E300
8180
8180
0180
0300
1E00
0180
00C0
00C0
00C0
80C0
81C0
4380
3E00
ENDCHAR
STARTCHAR 025E
ENCODING 606
SWIDTH 500 0
DWIDTH 14 0
BBX 11 15 1 0
BITMAP
0F00
3FC0
7020
4020
C020
8040
8780
8040
8020
8020
C020
4060
70C0
3FC0
0F00
ENDCHAR
STARTCHAR 025F
ENCODING 607
SWIDTH 500 0
DWIDTH 14 0
BBX 11 18 1 -3
BITMAP
0FC0
0300
0300
0300
0300
0300
0300
0300
0300
0300
3FE0
0300
0300
0300
C300
C300
C600
3C00
ENDCHAR
STARTCHAR 0260
ENCODING 608
SWIDTH 500 0
DWIDTH 14 0
BBX 13 24 1 -3
BITMAP
00F0
01D8
0198
0180
0180
0180
1F80
6380
6180
C180
C180
C180
C180
C180
C180
6180
6380
3D80
E180
E180
E180
C300
6300
3E00
ENDCHAR
STARTCHAR 0261
ENCODING 609
SWIDTH 500 0
DWIDTH 14 0
BBX 10 19 1 -3
BITMAP
0040
1F40
31C0
60C0
C0C0
C0C0
C0C0
C0C0
C0C0
E0C0
60C0
71C0
1EC0
60C0
60C0
60C0
6180
3380
1F00
ENDCHAR
STARTCHAR 0264
ENCODING 612
SWIDTH 500 0
DWIDTH 14 0
BBX 12 15 1 0
BITMAP
6060
F0F0
B890
1980
0D00
0E00
0600
0600
0600
0700
0B00
0B00
0B00
0B00
0600
ENDCHAR
STARTCHAR 0265
ENCODING 613
SWIDTH 500 0
DWIDTH 14 0
BBX 12 18 1 -3
BITMAP
F9F0
30C0
30C0
30C0
30C0
30C0
30C0
30C0
30C0
30C0
30C0
30C0
31C0
1AC0
0CC0
00C0
00F0
0080
ENDCHAR
STARTCHAR 0266
ENCODING 614
SWIDTH 500 0
DWIDTH 14 0
BBX 12 19 1 2
BITMAP
0F00
18C0
31C0
31C0
3000
3000
3780
3980
30C0
30C0
30C0
30C0
30C0
30C0
30C0
30C0
30C0
30C0
F9F0
ENDCHAR
STARTCHAR 0267
ENCODING 615
SWIDTH 500 0
DWIDTH 14 0
BBX 10 24 1 -3
BITMAP
0F00
18C0
31C0
31C0
3000
3000
3780
3980
30C0
30C0
30C0
30C0
30C0
30C0
30C0
30C0
30C0
30C0
F8C0
00C0
00C0
04C0
0580
0380
ENDCHAR
STARTCHAR 0268
ENCODING 616
SWIDTH 500 0
DWIDTH 14 0
BBX 7 19 4 2
BITMAP
70
70
70
00
00
10
70
30
30
30
30
FE
30
30
30
30
30
30
7C
ENDCHAR
STARTCHAR 026C
ENCODING 620
SWIDTH 500 0
DWIDTH 14 0
BBX 9 20 2 2
BITMAP
0C00
3C00
0C00
0C00
0C00
0C00
0C00
6C00
9C00
8C00
CC00
3C00
0F80
0C00
0C00
0C00
0C00
0C00
0C00
3F00
ENDCHAR
STARTCHAR 026D
ENCODING 621
SWIDTH 500 0
DWIDTH 14 0
BBX 9 24 4 -2
BITMAP
F000
3000
3000
3000
3000
3000
3000
3000
3000
3000
3000
3000
3000
3000
3000
3000
3000
3000
3000
3000
3180
3180
1980
0F00
ENDCHAR
STARTCHAR 026E
ENCODING 622
SWIDTH 500 0
DWIDTH 14 0
BBX 12 25 1 -3
BITMAP
3000
F000
3000
3000
3000
3000
3000
3FF0
3860
3040
3080
3100
3200
37C0
3060
3060
3030
3030
3030
FC30
0030
0030
1C60
18C0
0F80
ENDCHAR
STARTCHAR 026F
ENCODING 623
SWIDTH 500 0
DWIDTH 14 0
BBX 12 15 1 0
BITMAP
FFF0
6660
6660
6660
6660
6660
6660
6660
6660
6660
6660
6660
6660
6AB0
3380
ENDCHAR
STARTCHAR 0270
ENCODING 624
SWIDTH 500 0
DWIDTH 14 0
BBX 12 18 1 -3
BITMAP
FFF0
6660
6660
6660
6660
6660
6660
6660
6660
6660
6660
6660
6660
6AE0
3360
0060
0070
0040
ENDCHAR
STARTCHAR 0271
ENCODING 625
SWIDTH 500 0
DWIDTH 14 0
BBX 11 19 1 -3
BITMAP
4000
DDC0
7660
6660
6660
6660
6660
6660
6660
6660
6660
6660
6660
FF60
0060
0060
0360
0160
00C0
ENDCHAR
STARTCHAR 0272
ENCODING 626
SWIDTH 500 0
DWIDTH 14 0
BBX 13 19 0 -3
BITMAP
0400
1DE0
0E60
0C30
0C30
0C30
0C30
0C30
0C30
0C30
0C30
0C30
0C30
0C78
0C00
CC00
CC00
D800
7000
ENDCHAR
STARTCHAR 0273
ENCODING 627
SWIDTH 500 0
DWIDTH 14 0
BBX 13 19 1 -3
BITMAP
2000
EF00
7300
6180
6180
6180
6180
6180
6180
6180
6180
6180
6180
F180
0180
0198
0198
00D8
0070
ENDCHAR
STARTCHAR 0275
ENCODING 629
SWIDTH 500 0
DWIDTH 14 0
BBX 10 15 2 0
BITMAP
1E00
6100
6180
C080
C0C0
C0C0
FFC0
C0C0
C0C0
C0C0
C0C0
4080
6180
3300
1E00
ENDCHAR
STARTCHAR 0279
ENCODING 633
SWIDTH 500 0
DWIDTH 14 0
BBX 10 15 1 0
BITMAP
0FC0
0300
0300
0300
0300
0300
0300
0300
0300
0300
0300
C700
CD00
C9C0
7000
ENDCHAR
STARTCHAR 027A
ENCODING 634
SWIDTH 500 0
DWIDTH 14 0
BBX 10 21 1 0
BITMAP
0FC0
0300
0300
0300
0300
0300
0300
0300
0300
0300
0300
0300
0300
0300
0300
0300
0300
C700
CD00
C9C0
7000
ENDCHAR
STARTCHAR 027B
ENCODING 635
SWIDTH 500 0
DWIDTH 14 0
BBX 12 18 1 -3
BITMAP
0FC0
0300
0300
0300
0300
0300
0300
0300
0300
0300
0300
C700
CB00
D300
6330
0330
01B0
01E0
ENDCHAR
STARTCHAR 027D
ENCODING 637
SWIDTH 500 0
DWIDTH 14 0
BBX 10 19 3 -3
BITMAP
2000
E380
2CC0
38C0
3000
3000
3000
3000
3000
3000
3000
3000
3000
3000
3000
3180
3180
1980
0F00
ENDCHAR
STARTCHAR 027E
ENCODING 638
SWIDTH 500 0
DWIDTH 14 0
BBX 10 13 3 2
BITMAP
0F80
19C0
31C0
3000
3000
3000
3000
3000
3000
3000
3000
3000
FC00
ENDCHAR
STARTCHAR 0281
ENCODING 641
SWIDTH 500 0
DWIDTH 14 0
BBX 13 13 1 2
BITMAP
FC38
3060
3040
30C0
3080
3180
3300
3F80
30C0
3060
3060
30E0
FFC0
ENDCHAR
STARTCHAR 0282
ENCODING 642
SWIDTH 500 0
DWIDTH 14 0
BBX 9 18 3 -3
BITMAP
3D00
6300
C100
C100
C000
6000
3800
0E00
0300
8180
8180
8180
C380
A300
9E00
B800
9800
7000
ENDCHAR
STARTCHAR 0283
ENCODING 643
SWIDTH 500 0
DWIDTH 14 0
BBX 12 24 1 -3
BITMAP
01E0
0330
0630
0600
0600
0600
0600
0600
0600
0600
0600
0600
0600
0600
0600
0600
0600
0600
0600
0600
C600
C600
CC00
7800
ENDCHAR
STARTCHAR 0284
ENCODING 644
SWIDTH 500 0
DWIDTH 14 0
BBX 12 24 1 -3
BITMAP
01E0
0330
0630
0600
0600
0600
0600
0600
0600
0600
0600
0600
0600
0600
0600
0600
3FC0
0600
0600
0600
C600
C600
CC00
7800
ENDCHAR
STARTCHAR 0288
ENCODING 648
SWIDTH 500 0
DWIDTH 14 0
BBX 10 22 2 -2
BITMAP
0800
0800
1800
3800
FF80
1800
1800
1800
1800
1800
1800
1800
1800
1800
1800
1800
1800
1800
18C0
18C0
0C80
0700
ENDCHAR
STARTCHAR 0289
ENCODING 649
SWIDTH 500 0
DWIDTH 14 0
BBX 12 16 1 0
BITMAP
1040
F1C0
30C0
30C0
30C0
30C0
FFF0
30C0
30C0
30C0
30C0
30C0
30C0
11C0
1970
0E00
ENDCHAR
STARTCHAR 028A
ENCODING 650
SWIDTH 500 0
DWIDTH 14 0
BBX 10 15 2 0
BITMAP
F3C0
6180
6180
4080
C0C0
C0C0
C0C0
C0C0
C0C0
C0C0
C0C0
6180
6180
3300
1E00
ENDCHAR
STARTCHAR 028B
ENCODING 651
SWIDTH 500 0
DWIDTH 14 0
BBX 11 16 1 0
BITMAP
1000
F0C0
30C0
30E0
3060
3020
3020
3020
3020
3020
3020
3040
3040
30C0
1980
0F00
ENDCHAR
STARTCHAR 028C
ENCODING 652
SWIDTH 500 0
DWIDTH 14 0
BBX 12 14 1 2
BITMAP
0400
0600
0600
0A00
0B00
0900
1900
1180
1080
30C0
20C0
2040
6060
F1F0
ENDCHAR
STARTCHAR 028D
ENCODING 653
SWIDTH 500 0
DWIDTH 14 0
BBX 14 14 0 2
BITMAP
0840
0840
0840
18E0
1CE0
14A0
24A0
2530
2730
2730
4310
4210
4218
F7BC
ENDCHAR
STARTCHAR 028E
ENCODING 654
SWIDTH 500 0
DWIDTH 14 0
BBX 14 19 0 2
BITMAP
0038
005C
009C
0080
0100
0100
0200
0200
0300
0700
0500
0980
0880
10C0
1040
1060
2060
2030
F8F8
ENDCHAR
STARTCHAR 0290
ENCODING 656
SWIDTH 500 0
DWIDTH 14 0
BBX 13 18 1 -3
BITMAP
7F80
4100
4300
4600
0600
0C00
1800
1800
3080
3080
6080
C180
FF80
0080
0080
0098
0058
0070
ENDCHAR
STARTCHAR 0291
ENCODING 657
SWIDTH 500 0
DWIDTH 14 0
BBX 11 16 2 -1
BITMAP
7FC0
60C0
4180
4300
0300
0600
0C00
1800
1800
30E0
6320
E420
FFC0
0800
1000
1000
ENDCHAR
STARTCHAR 0292
ENCODING 658
SWIDTH 500 0
DWIDTH 14 0
BBX 9 18 2 -3
BITMAP
FF80
FF00
8200
8400
8800
1000
2000
7C00
0700
0300
0180
0180
0180
C180
C180
8300
4700
3C00
ENDCHAR
STARTCHAR 0294
ENCODING 660
SWIDTH 500 0
DWIDTH 14 0
BBX 8 19 4 2
BITMAP
7C
C6
C6
C3
03
03
03
03
06
06
0C
30
30
30
30
30
30
30
FC
ENDCHAR
STARTCHAR 0295
ENCODING 661
SWIDTH 500 0
DWIDTH 14 0
BBX 8 19 2 2
BITMAP
3C
63
63
C3
C0
C0
C0
C0
60
60
30
0C
0C
0C
0C
0C
0C
0C
3F
ENDCHAR
STARTCHAR 0298
ENCODING 664
SWIDTH 500 0
DWIDTH 14 0
BBX 12 15 1 0
BITMAP
0F00
30C0
2040
4020
C010
8610
8610
8610
8610
8010
C020
4060
60C0
31C0
0F00
ENDCHAR
STARTCHAR 029D
ENCODING 669
SWIDTH 500 0
DWIDTH 14 0
BBX 10 24 1 -3
BITMAP
0E00
0E00
0E00
0000
0000
0000
0E00
1600
0600
0600
0600
0600
0600
0600
0600
0600
0600
0600
0600
7600
8E00
8700
8C80
78C0
ENDCHAR
STARTCHAR 02A1
ENCODING 673
SWIDTH 500 0
DWIDTH 14 0
BBX 8 19 3 2
BITMAP
3C
46
66
63
03
03
03
03
03
06
06
1C
18
18
FE
18
18
18
7C
ENDCHAR
STARTCHAR 02A2
ENCODING 674
SWIDTH 500 0
DWIDTH 14 0
BBX 8 19 3 2
BITMAP
1C
63
63
C3
C0
C0
C0
C0
C0
60
30
1C
0C
0C
7F
0C
0C
0C
3E
ENDCHAR
STARTCHAR 02C7
ENCODING 711
SWIDTH 500 0
DWIDTH 14 0
BBX 10 3 2 18
BITMAP
C0C0
3300
1E00
ENDCHAR
STARTCHAR 02C8
ENCODING 712
SWIDTH 500 0
DWIDTH 14 0
BBX 1 3 7 21
BITMAP
80
80
80
ENDCHAR
STARTCHAR 02CC
ENCODING 716
SWIDTH 500 0
DWIDTH 14 0
BBX 1 4 7 -2
BITMAP
80
80
80
80
ENDCHAR
STARTCHAR 02D0
ENCODING 720
SWIDTH 500 0
DWIDTH 14 0
BBX 4 13 5 2
BITMAP
F0
60
60
40
00
00
00
00
00
40
60
60
F0
ENDCHAR
STARTCHAR 02D1
ENCODING 721
SWIDTH 500 0
DWIDTH 14 0
BBX 4 4 5 11
BITMAP
F0
60
60
40
ENDCHAR
STARTCHAR 02D8
ENCODING 728
SWIDTH 500 0
DWIDTH 14 0
BBX 10 4 2 17
BITMAP
C0C0
6080
3300
1E00
ENDCHAR
STARTCHAR 02D9
ENCODING 729
SWIDTH 500 0
DWIDTH 14 0
BBX 3 3 5 18
BITMAP
E0
E0
E0
ENDCHAR
STARTCHAR 02DB
ENCODING 731
SWIDTH 500 0
DWIDTH 14 0
BBX 6 6 4 -1
BITMAP
30
60
C0
C0
C4
78
ENDCHAR
STARTCHAR 02DC
ENCODING 732
SWIDTH 500 0
DWIDTH 14 0
BBX 10 3 2 18
BITMAP
3840
4C80
8700
ENDCHAR
STARTCHAR 02DD
ENCODING 733
SWIDTH 500 0
DWIDTH 14 0
BBX 10 3 2 18
BITMAP
3FC0
6600
8800
ENDCHAR
STARTCHAR 02DE
ENCODING 734
SWIDTH 500 0
DWIDTH 14 0
BBX 9 5 2 8
BITMAP
3000
F080
0880
0F80
0700
ENDCHAR
STARTCHAR 02E5
ENCODING 741
SWIDTH 500 0
DWIDTH 14 0
BBX 7 28 3 -3
BITMAP
FE
02
02
02
02
02
02
02
02
02
02
02
02
02
02
02
02
02
02
02
02
02
02
02
02
02
02
02
ENDCHAR
STARTCHAR 02E6
ENCODING 742
SWIDTH 500 0
DWIDTH 14 0
BBX 7 28 3 -3
BITMAP
02
02
02
02
02
02
02
FE
02
02
02
02
02
02
02
02
02
02
02
02
02
02
02
02
02
02
02
02
ENDCHAR
STARTCHAR 02E7
ENCODING 743
SWIDTH 500 0
DWIDTH 14 0
BBX 7 28 3 -3
BITMAP
02
02
02
02
02
02
02
02
02
02
02
02
02
02
FE
02
02
02
02
02
02
02
02
02
02
02
02
02
ENDCHAR
STARTCHAR 02E8
ENCODING 744
SWIDTH 500 0
DWIDTH 14 0
BBX 7 28 3 -3
BITMAP
02
02
02
02
02
02
02
02
02
02
02
02
02
02
02
02
02
02
02
02
02
FE
02
02
02
02
02
02
ENDCHAR
STARTCHAR 02E9
ENCODING 745
SWIDTH 500 0
DWIDTH 14 0
BBX 7 28 3 -3
BITMAP
02
02
02
02
02
02
02
02
02
02
02
02
02
02
02
02
02
02
02
02
02
02
02
02
02
02
02
FE
ENDCHAR
STARTCHAR 0300
ENCODING 768
SWIDTH 500 0
DWIDTH 14 0
BBX 5 2 3 22
BITMAP
F0
08
ENDCHAR
STARTCHAR 0301
ENCODING 769
SWIDTH 500 0
DWIDTH 14 0
BBX 5 2 6 22
BITMAP
78
80
ENDCHAR
STARTCHAR 0302
ENCODING 770
SWIDTH 500 0
DWIDTH 14 0
BBX 6 2 4 22
BITMAP
30
CC
ENDCHAR
STARTCHAR 0303
ENCODING 771
SWIDTH 500 0
DWIDTH 14 0
BBX 8 2 3 22
BITMAP
71
8E
ENDCHAR
STARTCHAR 0304
ENCODING 772
SWIDTH 500 0
DWIDTH 14 0
BBX 8 1 3 23
BITMAP
FF
ENDCHAR
STARTCHAR 0306
ENCODING 774
SWIDTH 500 0
DWIDTH 14 0
BBX 6 3 4 21
BITMAP
84
CC
78
ENDCHAR
STARTCHAR 0308
ENCODING 776
SWIDTH 500 0
DWIDTH 14 0
BBX 7 2 3 22
BITMAP
C6
C6
ENDCHAR
STARTCHAR 030B
ENCODING 779
SWIDTH 500 0
DWIDTH 14 0
BBX 9 2 4 22
BITMAP
7B80
8C00
ENDCHAR
STARTCHAR 030C
ENCODING 780
SWIDTH 500 0
DWIDTH 14 0
BBX 6 2 4 22
BITMAP
CC
30
ENDCHAR
STARTCHAR 030F
ENCODING 783
SWIDTH 500 0
DWIDTH 14 0
BBX 9 2 1 22
BITMAP
EF00
1880
ENDCHAR
STARTCHAR 0318
ENCODING 792
SWIDTH 500 0
DWIDTH 14 0
BBX 3 3 5 -3
BITMAP
20
E0
20
ENDCHAR
STARTCHAR 0319
ENCODING 793
SWIDTH 500 0
DWIDTH 14 0
BBX 3 3 6 -3
BITMAP
80
E0
80
ENDCHAR
STARTCHAR 031A
ENCODING 794
SWIDTH 500 0
DWIDTH 14 0
BBX 5 3 8 21
BITMAP
F8
08
08
ENDCHAR
STARTCHAR 031C
ENCODING 796
SWIDTH 500 0
DWIDTH 14 0
BBX 3 4 5 -4
BITMAP
20
C0
80
60
ENDCHAR
STARTCHAR 031D
ENCODING 797
SWIDTH 500 0
DWIDTH 14 0
BBX 6 3 4 -3
BITMAP
20
20
FC
ENDCHAR
STARTCHAR 031E
ENCODING 798
SWIDTH 500 0
DWIDTH 14 0
BBX 6 3 4 -3
BITMAP
FC
20
20
ENDCHAR
STARTCHAR 031F
ENCODING 799
SWIDTH 500 0
DWIDTH 14 0
BBX 6 4 4 -3
BITMAP
20
20
FC
20
ENDCHAR
STARTCHAR 0320
ENCODING 800
SWIDTH 500 0
DWIDTH 14 0
BBX 6 1 4 -2
BITMAP
FC
ENDCHAR
STARTCHAR 0324
ENCODING 804
SWIDTH 500 0
DWIDTH 14 0
BBX 7 2 3 -2
BITMAP
C6
C6
ENDCHAR
STARTCHAR 0325
ENCODING 805
SWIDTH 500 0
DWIDTH 14 0
BBX 4 3 5 -3
BITMAP
E0
90
60
ENDCHAR
STARTCHAR 0329
ENCODING 809
SWIDTH 500 0
DWIDTH 14 0
BBX 1 3 7 -3
BITMAP
80
80
80
ENDCHAR
STARTCHAR 032A
ENCODING 810
SWIDTH 500 0
DWIDTH 14 0
BBX 6 3 4 -3
BITMAP
FC
84
84
ENDCHAR
STARTCHAR 032C
ENCODING 812
SWIDTH 500 0
DWIDTH 14 0
BBX 6 2 4 -2
BITMAP
CC
30
ENDCHAR
STARTCHAR 032F
ENCODING 815
SWIDTH 500 0
DWIDTH 14 0
BBX 6 3 4 -3
BITMAP
78
CC
84
ENDCHAR
STARTCHAR 0330
ENCODING 816
SWIDTH 500 0
DWIDTH 14 0
BBX 8 2 3 -3
BITMAP
71
8E
ENDCHAR
STARTCHAR 0334
ENCODING 820
SWIDTH 500 0
DWIDTH 14 0
BBX 8 2 3 10
BITMAP
71
8E
ENDCHAR
STARTCHAR 0339
ENCODING 825
SWIDTH 500 0
DWIDTH 14 0
BBX 3 4 6 -4
BITMAP
80
60
20
C0
ENDCHAR
STARTCHAR 033A
ENCODING 826
SWIDTH 500 0
DWIDTH 14 0
BBX 6 3 4 -3
BITMAP
84
84
FC
ENDCHAR
STARTCHAR 033B
ENCODING 827
SWIDTH 500 0
DWIDTH 14 0
BBX 6 3 4 -3
BITMAP
FC
84
FC
ENDCHAR
STARTCHAR 033C
ENCODING 828
SWIDTH 500 0
DWIDTH 14 0
BBX 8 2 3 -3
BITMAP
66
99
ENDCHAR
STARTCHAR 033D
ENCODING 829
SWIDTH 500 0
DWIDTH 14 0
BBX 8 2 3 22
BITMAP
FF
66
ENDCHAR
STARTCHAR 0361
ENCODING 865
SWIDTH 500 0
DWIDTH 14 0
BBX 12 3 1 20
BITMAP
1F80
6060
8010
ENDCHAR
STARTCHAR 0391
ENCODING 913
SWIDTH 1000 0
DWIDTH 28 0
BBX 22 20 3 2
BITMAP
002000
003000
003000
005800
005800
008C00
008C00
018E00
010600
030600
020300
020300
07FF80
040180
0C01C0
0800C0
1800C0
100060
300070
FE03FC
ENDCHAR
STARTCHAR 0392
ENCODING 914
SWIDTH 1000 0
DWIDTH 28 0
BBX 18 19 5 2
BITMAP
FFF800
180E00
180600
180300
180300
180300
180300
180600
181C00
1FF000
180F00
180180
1800C0
1800C0
1800C0
1800C0
180180
180700
FFFC00
ENDCHAR
STARTCHAR 0393
ENCODING 915
SWIDTH 1000 0
DWIDTH 28 0
BBX 17 19 5 2
BITMAP
FFFF80
1C0380
180180
180080
180080
180080
180000
180000
180000
180000
180000
180000
180000
180000
180000
180000
180000
180000
FF0000
ENDCHAR
STARTCHAR 0394
ENCODING 916
SWIDTH 1000 0
DWIDTH 28 0
BBX 18 20 5 3
BITMAP
00C000
00C000
01E000
016000
036000
023000
023000
041800
041800
080C00
080C00
100600
100600
300300
200300
200300
400180
400180
FFFFC0
FFFFC0
ENDCHAR
STARTCHAR 0395
ENCODING 917
SWIDTH 1000 0
DWIDTH 28 0
BBX 17 19 5 2
BITMAP
FFFF00
180300
180100
180100
180100
180100
180800
180800
181800
1FF800
181800
180800
180800
180000
180080
180080
180180
180380
FFFF80
ENDCHAR
STARTCHAR 0396
ENCODING 918
SWIDTH 1000 0
DWIDTH 28 0
BBX 16 19 6 2
BITMAP
7FFE
700E
600C
4018
4038
0070
0060
00C0
0180
0380
0300
0600
0C00
1C01
3801
3003
6003
E00F
FFFF
ENDCHAR
STARTCHAR 0397
ENCODING 919
SWIDTH 1000 0
DWIDTH 28 0
BBX 20 19 4 2
BITMAP
FE07F0
180180
180180
180180
180180
180180
180180
180180
180180
1FFF80
180180
180180
180180
180180
180180
180180
180180
180180
FE07F0
ENDCHAR
STARTCHAR 0398
ENCODING 920
SWIDTH 1000 0
DWIDTH 28 0
BBX 18 20 5 1
BITMAP
03F000
0C1C00
180600
300300
600180
600180
C00180
C804C0
C804C0
CFFCC0
CFFCC0
C804C0
C804C0
C000C0
600180
600180
300300
180600
0C0C00
03F000
ENDCHAR
STARTCHAR 0399
ENCODING 921
SWIDTH 1000 0
DWIDTH 28 0
BBX 8 19 10 2
BITMAP
FF
18
18
18
18
18
18
18
18
18
18
18
18
18
18
18
18
18
FF
ENDCHAR
STARTCHAR 039A
ENCODING 922
SWIDTH 1000 0
DWIDTH 28 0
BBX 21 19 4 2
BITMAP
FF0FE0
180300
180600
180C00
181800
183000
186000
18C000
19C000
1B6000
1C3000
183800
181C00
180E00
180700
180300
180380
1801C0
FF07F8
ENDCHAR
STARTCHAR 039B
ENCODING 923
SWIDTH 1000 0
DWIDTH 28 0
BBX 20 20 4 2
BITMAP
006000
006000
006000
00B000
00B000
01B800
011800
011800
020C00
020C00
060E00
040600
0C0600
0C0700
080300
180380
100380
300180
3001C0
FE0FF0
ENDCHAR
STARTCHAR 039C
ENCODING 924
SWIDTH 1000 0
DWIDTH 28 0
BBX 24 19 2 2
BITMAP
FC001F
1C0038
1C0038
160058
160058
1300D8
130098
130098
118118
118118
10C218
10C218
106218
106418
106418
103818
103818
101818
FE10FF
ENDCHAR
STARTCHAR 039D
ENCODING 925
SWIDTH 1000 0
DWIDTH 28 0
BBX 22 20 3 1
BITMAP
FC01FC
1C0020
160020
170020
138020
11C020
10C020
106020
107020
103820
101C20
100E20
100620
100720
1003A0
1001E0
1000E0
100060
FE0060
000020
ENDCHAR
STARTCHAR 039E
ENCODING 926
SWIDTH 1000 0
DWIDTH 28 0
BBX 16 19 6 2
BITMAP
7FFE
7FFE
4002
4002
4002
0000
0000
1008
1008
1FF8
1FF8
1008
1008
0000
0000
8001
8001
FFFF
FFFF
ENDCHAR
STARTCHAR 039F
ENCODING 927
SWIDTH 1000 0
DWIDTH 28 0
BBX 18 20 5 1
BITMAP
03F000
0C1C00
180600
300300
600180
600180
C00080
C000C0
C000C0
C000C0
C000C0
C000C0
C000C0
C000C0
600180
600180
300300
180600
0C1C00
03F000
ENDCHAR
STARTCHAR 03A0
ENCODING 928
SWIDTH 1000 0
DWIDTH 28 0
BBX 20 19 4 2
BITMAP
FFFFF0
180180
180180
180180
180180
180180
180180
180180
180180
180180
180180
180180
180180
180180
180180
180180
180180
180180
FE07F0
ENDCHAR
STARTCHAR 03A1
ENCODING 929
SWIDTH 1000 0
DWIDTH 28 0
BBX 17 19 6 2
BITMAP
FFF800
180E00
180300
180180
180180
180180
180180
180380
180300
180E00
1FF800
180000
180000
180000
180000
180000
180000
180000
FF0000
ENDCHAR
STARTCHAR 03A3
ENCODING 931
SWIDTH 1000 0
DWIDTH 28 0
BBX 18 19 4 2
BITMAP
7FFF80
700180
180080
0C0080
060080
030000
018000
00C000
007000
006000
00C000
010000
020000
040040
080040
1000C0
2001C0
7FFFC0
FFFFC0
ENDCHAR
STARTCHAR 03A4
ENCODING 932
SWIDTH 1000 0
DWIDTH 28 0
BBX 18 19 5 2
BITMAP
FFFFC0
E0C1C0
80C040
80C040
80C040
80C040
00C000
00C000
00C000
00C000
00C000
00C000
00C000
00C000
00C000
00C000
00C000
00C000
07F800
ENDCHAR
STARTCHAR 03A5
ENCODING 933
SWIDTH 1000 0
DWIDTH 28 0
BBX 19 19 4 2
BITMAP
0F0F00
3F9FC0
31F8C0
60F060
406020
806020
006000
006000
006000
006000
006000
006000
006000
006000
006000
006000
006000
006000
03FC00
ENDCHAR
STARTCHAR 03A6
ENCODING 934
SWIDTH 1000 0
DWIDTH 28 0
BBX 18 19 5 2
BITMAP
07F800
00C000
00C000
07F800
18C600
70C300
60C180
C0C0C0
C0C0C0
C0C0C0
C0C0C0
C0C0C0
60C180
30C300
18C600
07F800
00C000
00C000
07F800
ENDCHAR
STARTCHAR 03A7
ENCODING 935
SWIDTH 1000 0
DWIDTH 28 0
BBX 21 19 4 2
BITMAP
FF0FE0
380380
0C0300
0C0600
060400
030800
019800
00F000
00E000
007000
00B000
011800
030C00
060E00
040700
080300
100180
3001C0
FE07F8
ENDCHAR
STARTCHAR 03A8
ENCODING 936
SWIDTH 1000 0
DWIDTH 28 0
BBX 22 19 3 2
BITMAP
38FC70
7C30F8
4C30C8
8C30C4
0C30C0
0C30C0
0C30C0
0C30C0
0C30C0
0C30C0
063180
063180
033300
01FE00
003000
003000
003000
003000
00FC00
ENDCHAR
STARTCHAR 03A9
ENCODING 937
SWIDTH 1000 0
DWIDTH 28 0
BBX 18 19 5 2
BITMAP
03F000
0C0C00
380700
700300
600180
C000C0
C000C0
C000C0
C000C0
C000C0
C000C0
600180
600180
300300
180600
861840
821040
FE1FC0
FE1FC0
ENDCHAR
STARTCHAR 03B1
ENCODING 945
SWIDTH 1000 0
DWIDTH 28 0
BBX 16 14 6 1
BITMAP
0386
0CCC
1868
3068
3070
6070
6060
C060
C060
C0E0
C1E2
C163
6632
383C
ENDCHAR
STARTCHAR 03B2
ENCODING 946
SWIDTH 1000 0
DWIDTH 28 0
BBX 14 24 6 -3
BITMAP
00F0
03F8
071C
060C
0C0C
080C
080C
1818
17B0
17C0
3030
3010
2018
2018
2018
6018
6030
6030
50E0
4F80
C000
C000
C000
C000
ENDCHAR
STARTCHAR 03B3
ENCODING 947
SWIDTH 1000 0
DWIDTH 28 0
BBX 16 18 5 -3
BITMAP
1C03
3E06
4606
830C
0108
0118
0110
00A0
00A0
00C0
00C0
0080
0080
0180
0180
0180
0180
0100
ENDCHAR
STARTCHAR 03B4
ENCODING 948
SWIDTH 1000 0
DWIDTH 28 0
BBX 12 20 8 1
BITMAP
1F80
20E0
2030
2000
1000
0C00
0300
0F80
18C0
3060
6060
6060
C060
C060
C060
C0C0
C0C0
4180
6300
3E00
ENDCHAR
STARTCHAR 03B5
ENCODING 949
SWIDTH 1000 0
DWIDTH 28 0
BBX 11 14 8 1
BITMAP
1F80
3FC0
6020
4000
4000
3F00
2F00
4000
C000
C000
C020
E0C0
7F80
3F00
ENDCHAR
STARTCHAR 03B6
ENCODING 950
SWIDTH 1000 0
DWIDTH 28 0
BBX 13 25 7 -3
BITMAP
0400
0E38
1870
18E0
19C0
0600
0400
0800
1800
3000
2000
6000
6000
C000
C000
C000
C000
E000
7800
1F00
07C0
0060
0C20
0C60
07C0
ENDCHAR
STARTCHAR 03B7
ENCODING 951
SWIDTH 1000 0
DWIDTH 28 0
BBX 13 18 6 -3
BITMAP
70E0
8B10
0A18
0C18
0C18
0C18
1838
1830
1830
3030
3030
3060
6060
0060
0060
0060
00E0
00C0
ENDCHAR
STARTCHAR 03B8
ENCODING 952
SWIDTH 1000 0
DWIDTH 28 0
BBX 13 20 7 1
BITMAP
03E0
0630
0C30
1818
3818
3018
7018
6018
6018
FFF8
E018
C030
C030
C030
C060
C060
C0C0
6180
6300
1E00
ENDCHAR
STARTCHAR 03B9
ENCODING 953
SWIDTH 1000 0
DWIDTH 28 0
BBX 7 14 10 1
BITMAP
18
30
30
30
60
60
60
40
C0
C0
C2
E6
FC
78
ENDCHAR
STARTCHAR 03BA
ENCODING 954
SWIDTH 1000 0
DWIDTH 28 0
BBX 15 14 7 1
BITMAP
0C0E
0C3C
0860
1980
1A00
1400
3F00
3180
3180
6180
6184
61C8
C0F8
00F0
ENDCHAR
STARTCHAR 03BB
ENCODING 955
SWIDTH 1000 0
DWIDTH 28 0
BBX 15 20 6 1
BITMAP
0700
0F80
1180
0080
0080
0080
0080
0180
0180
0380
0680
0680
0C80
1C80
1880
3080
70C6
60C4
C078
0070
ENDCHAR
STARTCHAR 03BC
ENCODING 956
SWIDTH 1000 0
DWIDTH 28 0
BBX 17 18 5 -2
BITMAP
060600
060600
040C00
0C0C00
080800
080800
101800
101000
101000
303100
303080
38D100
2FDF00
670E00
400000
400000
400000
C00000
ENDCHAR
STARTCHAR 03BD
ENCODING 957
SWIDTH 1000 0
DWIDTH 28 0
BBX 14 14 7 1
BITMAP
7818
F81C
1C04
0C04
0C04
0C08
0C18
0C10
0870
08C0
1B80
1E00
3C00
2000
ENDCHAR
STARTCHAR 03BE
ENCODING 958
SWIDTH 1000 0
DWIDTH 28 0
BBX 11 25 8 -3
BITMAP
0800
10E0
11C0
0F00
0400
0C00
1800
1800
1800
19C0
0FC0
1F80
3000
6000
C000
C000
C000
C000
F000
7E00
0F80
0180
3180
3380
1E00
ENDCHAR
STARTCHAR 03BF
ENCODING 959
SWIDTH 1000 0
DWIDTH 28 0
BBX 12 14 8 1
BITMAP
0F80
18C0
3060
6030
6030
C030
C030
C030
C030
C060
C060
60C0
3180
1F00
ENDCHAR
STARTCHAR 03C0
ENCODING 960
SWIDTH 1000 0
DWIDTH 28 0
BBX 15 15 7 1
BITMAP
0004
3FFE
7FF8
C440
0840
08C0
0880
1080
1180
3180
3180
618C
6188
C1F0
00E0
ENDCHAR
STARTCHAR 03C1
ENCODING 961
SWIDTH 1000 0
DWIDTH 28 0
BBX 14 18 6 -3
BITMAP
01E0
0630
0C18
180C
100C
100C
300C
300C
300C
7818
6818
6C70
63C0
4000
C000
C000
C000
C000
ENDCHAR
STARTCHAR 03C2
ENCODING 962
SWIDTH 500 0
DWIDTH 14 0
BBX 12 18 1 -3
BITMAP
0F80
3860
3030
6070
6070
6000
6000
3000
3000
1800
0E00
0700
0380
0180
0180
E180
E300
3E00
ENDCHAR
STARTCHAR 03C3
ENCODING 963
SWIDTH 1000 0
DWIDTH 28 0
BBX 14 14 8 1
BITMAP
0FFC
107C
2020
6020
4030
C030
C030
C030
C030
C070
C060
60C0
31C0
1F00
ENDCHAR
STARTCHAR 03C4
ENCODING 964
SWIDTH 1000 0
DWIDTH 28 0
BBX 14 15 7 1
BITMAP
0004
3FFC
7FF8
C100
0200
0200
0400
0C00
0800
0800
1800
1860
1840
1FC0
0F00
ENDCHAR
STARTCHAR 03C5
ENCODING 965
SWIDTH 1000 0
DWIDTH 28 0
BBX 14 14 6 1
BITMAP
3818
FC18
0C0C
0C0C
0C04
0804
1804
1004
3008
3008
3018
3870
1FE0
0F80
ENDCHAR
STARTCHAR 03C6
ENCODING 966
SWIDTH 1000 0
DWIDTH 28 0
BBX 14 23 7 -3
BITMAP
0060
0040
0040
00C0
0080
07E0
18B0
3198
610C
410C
C10C
C20C
C20C
C20C
C218
6418
6430
3DC0
0600
0800
0800
1800
1800
ENDCHAR
STARTCHAR 03C7
ENCODING 967
SWIDTH 1000 0
DWIDTH 28 0
BBX 14 18 7 -3
BITMAP
381C
7C18
8C30
0660
0660
02C0
0280
0380
0300
0700
0500
0D00
1900
3108
318C
6188
C0F8
C070
ENDCHAR
STARTCHAR 03C8
ENCODING 968
SWIDTH 1000 0
DWIDTH 28 0
BBX 15 23 7 -3
BITMAP
0060
0060
0040
00C0
08C8
18C8
308C
2084
6186
C106
C106
C106
C106
C20E
C20C
621C
6630
1DE0
0600
0C00
0C00
0800
1800
ENDCHAR
STARTCHAR 03C9
ENCODING 969
SWIDTH 1000 0
DWIDTH 28 0
BBX 18 14 5 2
BITMAP
060300
080180
100180
3000C0
6060C0
4060C0
C0E0C0
C0E0C0
C0C0C0
C0C180
C08180
634300
7E4600
3C3C00
ENDCHAR
STARTCHAR 0401
ENCODING 1025
SWIDTH 1000 0
DWIDTH 28 0
BBX 17 23 5 2
BITMAP
0E0E00
0E0E00
0E0E00
000000
FFFF00
180300
180100
180100
180100
180100
180800
180800
181800
1FF800
181800
180800
180800
180000
180080
180080
180180
180380
FFFF80
ENDCHAR
STARTCHAR 0410
ENCODING 1040
SWIDTH 1000 0
DWIDTH 28 0
BBX 22 20 3 2
BITMAP
002000
003000
003000
005800
005800
008C00
008C00
018E00
010600
030600
020300
020300
07FF80
040180
0C01C0
0800C0
1800C0
100060
300070
FE03FC
ENDCHAR
STARTCHAR 0411
ENCODING 1041
SWIDTH 1000 0
DWIDTH 28 0
BBX 17 19 5 2
BITMAP
FFFF00
180700
180100
180100
180100
180100
180000
180000
180000
1FF800
180600
180300
180180
180180
180180
180180
180300
180E00
FFF800
ENDCHAR
STARTCHAR 0412
ENCODING 1042
SWIDTH 1000 0
DWIDTH 28 0
BBX 18 19 5 2
BITMAP
FFF800
180E00
180600
180300
180300
180300
180300
180600
181C00
1FF000
180F00
180180
1800C0
1800C0
1800C0
1800C0
180180
180700
FFFC00
ENDCHAR
STARTCHAR 0413
ENCODING 1043
SWIDTH 1000 0
DWIDTH 28 0
BBX 17 19 5 2
BITMAP
FFFF80
1C0380
180180
180080
180080
180080
180000
180000
180000
180000
180000
180000
180000
180000
180000
180000
180000
180000
FF0000
ENDCHAR
STARTCHAR 0414
ENCODING 1044
SWIDTH 1000 0
DWIDTH 28 0
BBX 20 23 4 -2
BITMAP
1FFFF0
020180
020180
020180
020180
020180
020180
020180
040180
040180
040180
040180
080180
080180
180180
100180
200180
200180
FFFFF0
C00030
800010
800010
800010
ENDCHAR
STARTCHAR 0415
ENCODING 1045
SWIDTH 1000 0
DWIDTH 28 0
BBX 17 19 5 2
BITMAP
FFFF00
180300
180100
180100
180100
180100
180800
180800
181800
1FF800
181800
180800
180800
180000
180080
180080
180180
180380
FFFF80
ENDCHAR
STARTCHAR 0416
ENCODING 1046
SWIDTH 1000 0
DWIDTH 28 0
BBX 26 19 1 2
BITMAP
383F0700
740C0B80
740C0B80
040C1000
020C1000
020C1000
010C2000
018C4000
004C8000
00FFC000
00CCC000
018C6000
030C3000
070C3800
060C1800
0C0C0C00
1C0C0E00
380C0700
FE3F1FC0
ENDCHAR
STARTCHAR 0417
ENCODING 1047
SWIDTH 1000 0
DWIDTH 28 0
BBX 14 20 7 1
BITMAP
0FC0
3870
6030
4018
4018
0018
0018
0030
0060
0F80
0070
0018
000C
000C
800C
800C
C00C
E018
F030
1FC0
ENDCHAR
STARTCHAR 0418
ENCODING 1048
SWIDTH 1000 0
DWIDTH 28 0
BBX 20 19 4 2
BITMAP
FE07F0
180180
180180
180180
180380
180580
180980
181180
182180
184180
188180
190180
1A0180
1C0180
180180
180180
180180
180180
FE07F0
ENDCHAR
STARTCHAR 0419
ENCODING 1049
SWIDTH 1000 0
DWIDTH 28 0
BBX 20 22 4 2
BITMAP
030C00
030C00
01F800
FE07F0
180180
180180
180180
180380
180580
180980
181180
182180
184180
188180
190180
1A0180
1C0180
180180
180180
180180
180180
FE07F0
ENDCHAR
STARTCHAR 041A
ENCODING 1050
SWIDTH 1000 0
DWIDTH 28 0
BBX 21 19 4 3
BITMAP
FF03C0
1806E0
1804E0
180CE0
180800
181000
183000
186000
1FC000
186000
183000
183800
181C00
180E00
180700
180300
180380
1801C0
FF07F8
ENDCHAR
STARTCHAR 041B
ENCODING 1051
SWIDTH 1000 0
DWIDTH 28 0
BBX 21 20 3 1
BITMAP
03FFF8
00C0C0
00C0C0
0080C0
0080C0
0080C0
0080C0
0080C0
0080C0
0080C0
0080C0
0080C0
0080C0
0180C0
7180C0
F100C0
8100C0
C300C0
4607F8
3C0000
ENDCHAR
STARTCHAR 041C
ENCODING 1052
SWIDTH 1000 0
DWIDTH 28 0
BBX 24 19 2 2
BITMAP
7E003E
0E0070
0E0070
0B0090
0B0090
098090
098110
098118
18C218
10C218
106418
106418
106408
103808
103808
101008
101008
30000C
FE007F
ENDCHAR
STARTCHAR 041D
ENCODING 1053
SWIDTH 1000 0
DWIDTH 28 0
BBX 20 19 4 2
BITMAP
FE07F0
180180
180180
180180
180180
180180
180180
180180
180180
1FFF80
180180
180180
180180
180180
180180
180180
180180
180180
FE07F0
ENDCHAR
STARTCHAR 041E
ENCODING 1054
SWIDTH 1000 0
DWIDTH 28 0
BBX 18 20 5 1
BITMAP
03F000
0C1C00
180600
300300
600180
600180
C00080
C000C0
C000C0
C000C0
C000C0
C000C0
C000C0
C000C0
600180
600180
300300
180600
0C1C00
03F000
ENDCHAR
STARTCHAR 041F
ENCODING 1055
SWIDTH 1000 0
DWIDTH 28 0
BBX 20 19 4 2
BITMAP
FFFFF0
180180
180180
180180
180180
180180
180180
180180
180180
180180
180180
180180
180180
180180
180180
180180
180180
180180
FE07F0
ENDCHAR
STARTCHAR 0420
ENCODING 1056
SWIDTH 1000 0
DWIDTH 28 0
BBX 17 19 6 2
BITMAP
FFF800
180E00
180300
180180
180180
180180
180180
180380
180300
180E00
1FF800
180000
180000
180000
180000
180000
180000
180000
FF0000
ENDCHAR
STARTCHAR 0421
ENCODING 1057
SWIDTH 1000 0
DWIDTH 28 0
BBX 19 20 4 1
BITMAP
01FE00
070380
1C00C0
380040
300040
600000
600000
C00000
C00000
C00000
C00000
C00000
C00000
E00020
600020
700060
3000E0
1C00E0
070380
01FE00
ENDCHAR
STARTCHAR 0422
ENCODING 1058
SWIDTH 1000 0
DWIDTH 28 0
BBX 18 19 5 2
BITMAP
FFFFC0
E0C1C0
80C040
80C040
80C040
80C040
00C000
00C000
00C000
00C000
00C000
00C000
00C000
00C000
00C000
00C000
00C000
00C000
07F800
ENDCHAR
STARTCHAR 0423
ENCODING 1059
SWIDTH 1000 0
DWIDTH 28 0
BBX 19 20 5 1
BITMAP
FF0FE0
380300
180200
0C0600
0C0400
060400
060C00
030800
039800
019000
00D000
00E000
006000
004000
004000
708000
708000
610000
220000
1C0000
ENDCHAR
STARTCHAR 0424
ENCODING 1060
SWIDTH 1000 0
DWIDTH 28 0
BBX 18 19 5 2
BITMAP
07F800
00C000
00C000
07F800
18C600
70C300
60C180
C0C0C0
C0C0C0
C0C0C0
C0C0C0
C0C0C0
60C180
30C300
18C600
07F800
00C000
00C000
07F800
ENDCHAR
STARTCHAR 0425
ENCODING 1061
SWIDTH 1000 0
DWIDTH 28 0
BBX 21 19 4 2
BITMAP
FF0FE0
380380
0C0300
0C0600
060400
030800
019800
00F000
00E000
007000
00B000
011800
030C00
060E00
040700
080300
100180
3001C0
FE07F8
ENDCHAR
STARTCHAR 0426
ENCODING 1062
SWIDTH 1000 0
DWIDTH 28 0
BBX 21 23 3 -2
BITMAP
FF07F8
1800C0
1800C0
1800C0
1800C0
1800C0
1800C0
1800C0
1800C0
1800C0
1800C0
1800C0
1800C0
1800C0
1800C0
1800C0
1800C0
1800C0
FFFFF8
000018
000008
000008
000008
ENDCHAR
STARTCHAR 0427
ENCODING 1063
SWIDTH 1000 0
DWIDTH 28 0
BBX 19 19 4 2
BITMAP
FE0FE0
180300
180300
180300
180300
180300
180300
180300
180300
180300
0C0700
0E1B00
03E300
000300
000300
000300
000300
000300
000FE0
ENDCHAR
STARTCHAR 0428
ENCODING 1064
SWIDTH 1000 0
DWIDTH 28 0
BBX 24 19 2 2
BITMAP
FE7E7F
181818
181818
181818
181818
181818
181818
181818
181818
181818
181818
181818
181818
181818
181818
181818
181818
181818
FFFFFF
ENDCHAR
STARTCHAR 0429
ENCODING 1065
SWIDTH 1000 0
DWIDTH 28 0
BBX 25 23 1 -2
BITMAP
FF3F3F80
180C0C00
180C0C00
180C0C00
180C0C00
180C0C00
180C0C00
180C0C00
180C0C00
180C0C00
180C0C00
180C0C00
180C0C00
180C0C00
180C0C00
180C0C00
180C0C00
180C0C00
FFFFFF80
00000180
00000080
00000080
00000080
ENDCHAR
STARTCHAR 042A
ENCODING 1066
SWIDTH 1000 0
DWIDTH 28 0
BBX 21 19 4 2
BITMAP
FFE000
C30000
830000
830000
830000
830000
030000
030000
030000
03FF80
0300E0
030030
030018
030018
030018
030018
030030
0300E0
0FFF80
ENDCHAR
STARTCHAR 042B
ENCODING 1067
SWIDTH 1000 0
DWIDTH 28 0
BBX 24 19 2 2
BITMAP
FF00FF
180018
180018
180018
180018
180018
180018
180018
180018
1FF818
180E18
180318
180198
180198
180198
180198
180318
180E18
FFF8FF
ENDCHAR
STARTCHAR 042C
ENCODING 1068
SWIDTH 1000 0
DWIDTH 28 0
BBX 18 19 5 2
BITMAP
FF0000
180000
180000
180000
180000
180000
180000
180000
180000
1FFC00
180700
180180
1800C0
1800C0
1800C0
1800C0
180180
180700
FFFC00
ENDCHAR
STARTCHAR 042D
ENCODING 1069
SWIDTH 1000 0
DWIDTH 28 0
BBX 18 20 5 1
BITMAP
0FF000
381C00
600600
400300
400180
000180
0000C0
0000C0
0FC0C0
1FFFC0
007EC0
0000C0
0000C0
8001C0
800180
C00180
C00300
E00600
781C00
0FE000
ENDCHAR
STARTCHAR 042E
ENCODING 1070
SWIDTH 1000 0
DWIDTH 28 0
BBX 24 20 2 1
BITMAP
FF07E0
180C38
18180C
183004
187006
186006
186003
186003
18E003
1FE003
18E003
18E003
186003
186003
187006
187006
18380C
18180C
FF0C38
0007E0
ENDCHAR
STARTCHAR 042F
ENCODING 1071
SWIDTH 1000 0
DWIDTH 28 0
BBX 20 20 3 1
BITMAP
01FFF0
070180
0C0180
180180
180180
180180
180180
0C0180
070180
01FF80
00E180
00C180
01C180
018180
030180
070180
0E0180
180180
700FF0
800000
ENDCHAR
STARTCHAR 0430
ENCODING 1072
SWIDTH 1000 0
DWIDTH 28 0
BBX 15 14 7 1
BITMAP
1F80
60C0
60E0
6060
0060
07E0
1860
7060
E060
C060
C060
C0E6
617C
3E38
ENDCHAR
STARTCHAR 0431
ENCODING 1073
SWIDTH 1000 0
DWIDTH 28 0
BBX 14 21 7 1
BITMAP
0008
0008
0018
07F0
1C00
3000
6000
47C0
5860
E010
E018
C00C
C00C
C00C
C00C
C00C
E01C
6018
3038
1870
0FC0
ENDCHAR
STARTCHAR 0432
ENCODING 1074
SWIDTH 1000 0
DWIDTH 28 0
BBX 14 13 7 2
BITMAP
FFE0
3030
3018
3018
3018
3030
3FE0
3018
300C
300C
300C
3038
FFE0
ENDCHAR
STARTCHAR 0433
ENCODING 1075
SWIDTH 1000 0
DWIDTH 28 0
BBX 13 13 8 2
BITMAP
FFF8
3018
3008
3008
3008
3000
3000
3000
3000
3000
3000
3000
FC00
ENDCHAR
STARTCHAR 0434
ENCODING 1076
SWIDTH 1000 0
DWIDTH 28 0
BBX 16 17 6 -2
BITMAP
1FFF
0418
0418
0418
0418
0818
0818
0818
1018
1018
2018
2018
FFFF
C003
8001
8001
8001
ENDCHAR
STARTCHAR 0435
ENCODING 1077
SWIDTH 1000 0
DWIDTH 28 0
BBX 13 14 7 1
BITMAP
0F80
3860
7030
6030
E018
E018
FFF8
C000
C000
E000
6008
7010
3820
0FC0
ENDCHAR
STARTCHAR 0436
ENCODING 1078
SWIDTH 1000 0
DWIDTH 28 0
BBX 22 13 3 2
BITMAP
70FC38
683058
043080
043080
023100
033300
06FD80
063080
0C30C0
083040
183060
303030
FCFCFC
ENDCHAR
STARTCHAR 0437
ENCODING 1079
SWIDTH 1000 0
DWIDTH 28 0
BBX 12 14 8 1
BITMAP
1F80
70C0
4060
4060
0060
00C0
0F00
00E0
0030
8030
8030
C030
E060
3F80
ENDCHAR
STARTCHAR 0438
ENCODING 1080
SWIDTH 1000 0
DWIDTH 28 0
BBX 16 13 6 2
BITMAP
FC3F
300C
300C
303C
306C
30CC
310C
320C
340C
380C
300C
300C
FC3F
ENDCHAR
STARTCHAR 0439
ENCODING 1081
SWIDTH 1000 0
DWIDTH 28 0
BBX 16 18 6 2
BITMAP
0C30
0C30
0C30
03C0
0000
FC3F
300C
300C
303C
306C
30CC
310C
320C
340C
380C
300C
300C
FC3F
ENDCHAR
STARTCHAR 043A
ENCODING 1082
SWIDTH 1000 0
DWIDTH 28 0
BBX 16 13 7 2
BITMAP
FC0E
303E
3020
3040
30C0
3F80
30C0
30E0
3060
3030
3038
301C
FC7F
ENDCHAR
STARTCHAR 043B
ENCODING 1083
SWIDTH 1000 0
DWIDTH 28 0
BBX 17 14 4 1
BITMAP
07FF80
010600
010600
010600
010600
010600
010600
010600
020600
E20600
E20600
C20600
441F80
380000
ENDCHAR
STARTCHAR 043C
ENCODING 1084
SWIDTH 1000 0
DWIDTH 28 0
BBX 18 13 5 2
BITMAP
F807C0
380700
280B00
2C0B00
241300
261300
261300
222300
232300
214300
21C300
218300
F88FC0
ENDCHAR
STARTCHAR 043D
ENCODING 1085
SWIDTH 1000 0
DWIDTH 28 0
BBX 16 13 6 2
BITMAP
FC3F
300C
300C
300C
300C
300C
3FFC
300C
300C
300C
300C
300C
FC3F
ENDCHAR
STARTCHAR 043E
ENCODING 1086
SWIDTH 1000 0
DWIDTH 28 0
BBX 14 14 7 1
BITMAP
0FC0
1860
7010
6018
C00C
C00C
C00C
C00C
C00C
C01C
6018
7038
3870
0FC0
ENDCHAR
STARTCHAR 043F
ENCODING 1087
SWIDTH 1000 0
DWIDTH 28 0
BBX 16 13 6 2
BITMAP
FFFF
300C
300C
300C
300C
300C
300C
300C
300C
300C
300C
300C
FC3F
ENDCHAR
STARTCHAR 0440
ENCODING 1088
SWIDTH 1000 0
DWIDTH 28 0
BBX 14 19 7 -3
BITMAP
2000
E7C0
3830
3018
3018
300C
300C
300C
300C
300C
3018
3818
3C30
33E0
3000
3000
3000
3000
FE00
ENDCHAR
STARTCHAR 0441
ENCODING 1089
SWIDTH 1000 0
DWIDTH 28 0
BBX 13 14 7 1
BITMAP
0FC0
3820
3030
6030
C000
C000
C000
C000
C000
E008
7008
7010
3C20
0FC0
ENDCHAR
STARTCHAR 0442
ENCODING 1090
SWIDTH 1000 0
DWIDTH 28 0
BBX 14 13 7 2
BITMAP
FFFC
C30C
8304
8304
0300
0300
0300
0300
0300
0300
0300
0300
0FC0
ENDCHAR
STARTCHAR 0443
ENCODING 1091
SWIDTH 1000 0
DWIDTH 28 0
BBX 17 18 6 -3
BITMAP
FE3F80
380C00
180C00
0C0800
0C1800
061000
061000
032000
032000
01C000
01C000
008000
008000
010000
390000
390000
320000
1C0000
ENDCHAR
STARTCHAR 0444
ENCODING 1092
SWIDTH 1000 0
DWIDTH 28 0
BBX 16 25 6 -3
BITMAP
0080
0780
0180
0180
0180
0180
0180
1FF8
218C
6186
C182
C183
C183
C183
C183
C183
C183
6186
33CC
1DB8
0180
0180
0180
0180
07E0
ENDCHAR
STARTCHAR 0445
ENCODING 1093
SWIDTH 1000 0
DWIDTH 28 0
BBX 17 13 5 2
BITMAP
7F3F80
0C0C00
061800
033000
032000
01C000
00C000
016000
023000
041800
081C00
180E00
FE1F80
ENDCHAR
STARTCHAR 0446
ENCODING 1094
SWIDTH 1000 0
DWIDTH 28 0
BBX 16 17 6 -2
BITMAP
FC7E
3018
3018
3018
3018
3018
3018
3018
3018
3018
3018
3018
FFFF
0003
0001
0001
0001
ENDCHAR
STARTCHAR 0447
ENCODING 1095
SWIDTH 1000 0
DWIDTH 28 0
BBX 15 13 6 2
BITMAP
FC7E
3018
3018
3018
3018
3018
1818
0FF8
0018
0018
0018
0018
007E
ENDCHAR
STARTCHAR 0448
ENCODING 1096
SWIDTH 1000 0
DWIDTH 28 0
BBX 20 13 4 2
BITMAP
FDFBF0
3060C0
3060C0
3060C0
3060C0
3060C0
3060C0
3060C0
3060C0
3060C0
3060C0
3060C0
FFFFF0
ENDCHAR
STARTCHAR 0449
ENCODING 1097
SWIDTH 1000 0
DWIDTH 28 0
BBX 21 17 4 -2
BITMAP
FDFBF0
3060C0
3060C0
3060C0
3060C0
3060C0
3060C0
3060C0
3060C0
3060C0
3060C0
3060C0
FFFFF8
000018
000008
000008
000008
ENDCHAR
STARTCHAR 044A
ENCODING 1098
SWIDTH 1000 0
DWIDTH 28 0
BBX 16 13 6 2
BITMAP
FF00
8C00
8C00
8C00
0C00
0C00
0FF8
0C0E
0C03
0C03
0C03
0C0E
3FF8
ENDCHAR
STARTCHAR 044B
ENCODING 1099
SWIDTH 1000 0
DWIDTH 28 0
BBX 18 13 5 2
BITMAP
FC0FC0
300300
300300
300300
300300
300300
3FC300
306300
303300
303300
303300
306300
FFCFC0
ENDCHAR
STARTCHAR 044C
ENCODING 1100
SWIDTH 1000 0
DWIDTH 28 0
BBX 14 13 8 2
BITMAP
FC00
3000
3000
3000
3000
3000
3FE0
3038
300C
300C
300C
3038
FFE0
ENDCHAR
STARTCHAR 044D
ENCODING 1101
SWIDTH 1000 0
DWIDTH 28 0
BBX 14 14 7 1
BITMAP
1FC0
7070
6038
4018
000C
1E0C
3FFC
01EC
001C
0018
8018
4030
3060
0F80
ENDCHAR
STARTCHAR 044E
ENCODING 1102
SWIDTH 1000 0
DWIDTH 28 0
BBX 20 14 4 1
BITMAP
FC1F00
3071C0
30C060
30C060
318030
318030
3F8030
318030
318030
318030
30C060
30C0E0
FC71C0
001F00
ENDCHAR
STARTCHAR 044F
ENCODING 1103
SWIDTH 1000 0
DWIDTH 28 0
BBX 15 14 6 1
BITMAP
0FFE
1818
3018
3018
3018
1818
0FF8
0618
0618
0C18
1818
3018
607E
8000
ENDCHAR
STARTCHAR 0451
ENCODING 1105
SWIDTH 1000 0
DWIDTH 28 0
BBX 13 19 7 1
BITMAP
3870
3870
3870
0000
0000
0F80
3860
7030
6030
E018
E018
FFF8
C000
C000
E000
6008
7010
3820
0FC0
ENDCHAR
STARTCHAR 1E3E
ENCODING 7742
SWIDTH 500 0
DWIDTH 14 0
BBX 12 22 1 2
BITMAP
0380
0400
0800
E0F0
60E0
70E0
70E0
5160
5160
5160
5160
5960
5960
4A60
4A60
4A60
4E60
4E60
4460
4460
4460
E0F0
ENDCHAR
STARTCHAR 1E3F
ENCODING 7743
SWIDTH 500 0
DWIDTH 14 0
BBX 12 17 1 2
BITMAP
0380
0400
0800
4000
DDC0
7660
6660
6660
6660
6660
6660
6660
6660
6660
6660
6660
FFF0
ENDCHAR
STARTCHAR 1F70
ENCODING 8048
SWIDTH 500 0
DWIDTH 14 0
BBX 11 19 2 0
BITMAP
7800
0400
0200
0080
3E80
7380
6180
E180
C180
C180
C180
C180
C180
C180
C180
4180
63A0
33A0
1CC0
ENDCHAR
STARTCHAR 1F71
ENCODING 8049
SWIDTH 500 0
DWIDTH 14 0
BBX 11 19 2 0
BITMAP
0780
1800
0000
0080
3E80
7380
6180
E180
C180
C180
C180
C180
C180
C180
C180
4180
63A0
33A0
1CC0
ENDCHAR
STARTCHAR 1F72
ENCODING 8050
SWIDTH 500 0
DWIDTH 14 0
BBX 10 19 2 0
BITMAP
7800
0400
0200
0000
1F00
31C0
6040
6040
6000
3000
1E00
6000
C000
C040
C040
C040
E040
7080
3F00
ENDCHAR
STARTCHAR 1F73
ENCODING 8051
SWIDTH 500 0
DWIDTH 14 0
BBX 10 19 2 0
BITMAP
0780
1800
0000
0000
1F00
31C0
6040
6040
6000
3000
1E00
6000
C000
C040
C040
C040
E040
7080
3F00
ENDCHAR
STARTCHAR 2010
ENCODING 8208
SWIDTH 1000 0
DWIDTH 28 0
BBX 10 1 9 10
BITMAP
FFC0
ENDCHAR
STARTCHAR 2013
ENCODING 8211
SWIDTH 500 0
DWIDTH 14 0
BBX 6 1 4 10
BITMAP
FC
ENDCHAR
STARTCHAR 2014
ENCODING 8212
SWIDTH 1000 0
DWIDTH 28 0
BBX 26 1 1 10
BITMAP
FFFFFFC0
ENDCHAR
STARTCHAR 2015
ENCODING 8213
SWIDTH 1000 0
DWIDTH 28 0
BBX 26 1 1 10
BITMAP
FFFFFFC0
ENDCHAR
STARTCHAR 2016
ENCODING 8214
SWIDTH 1000 0
DWIDTH 28 0
BBX 6 28 11 -3
BITMAP
84
84
84
84
84
84
84
84
84
84
84
84
84
84
84
84
84
84
84
84
84
84
84
84
84
84
84
84
ENDCHAR
STARTCHAR 2018
ENCODING 8216
SWIDTH 1000 0
DWIDTH 28 0
BBX 4 8 22 16
BITMAP
30
20
40
40
C0
F0
F0
60
ENDCHAR
STARTCHAR 2019
ENCODING 8217
SWIDTH 1000 0
DWIDTH 28 0
BBX 4 8 2 15
BITMAP
60
70
70
30
20
60
40
80
ENDCHAR
STARTCHAR 201C
ENCODING 8220
SWIDTH 1000 0
DWIDTH 28 0
BBX 10 8 16 16
BITMAP
1040
3080
6100
4100
C300
F3C0
F3C0
6180
ENDCHAR
STARTCHAR 201D
ENCODING 8221
SWIDTH 1000 0
DWIDTH 28 0
BBX 10 8 2 15
BITMAP
6180
73C0
73C0
30C0
2080
6180
4300
8400
ENDCHAR
STARTCHAR 2020
ENCODING 8224
SWIDTH 1000 0
DWIDTH 28 0
BBX 11 25 8 -2
BITMAP
0E00
0E00
0E00
0E00
64C0
FFE0
FFE0
75C0
0400
0E00
0E00
0E00
0400
0400
0400
0400
0400
0400
0400
0400
0400
0400
0400
0400
0400
ENDCHAR
STARTCHAR 2021
ENCODING 8225
SWIDTH 1000 0
DWIDTH 28 0
BBX 12 26 8 -2
BITMAP
0F00
0F00
0F00
0600
E6F0
FFF0
F4F0
0600
0F00
0600
0600
0400
0400
0400
0400
0600
0600
0600
0600
EF70
FDF0
FFF0
0600
0F00
0F00
0F00
ENDCHAR
STARTCHAR 2022
ENCODING 8226
SWIDTH 500 0
DWIDTH 14 0
BBX 6 6 4 8
BITMAP
70
F8
FC
FC
FC
78
ENDCHAR
STARTCHAR 2025
ENCODING 8229
SWIDTH 1000 0
DWIDTH 28 0
BBX 18 4 5 9
BITMAP
600180
F003C0
F003C0
600180
ENDCHAR
STARTCHAR 2026
ENCODING 8230
SWIDTH 1000 0
DWIDTH 28 0
BBX 22 3 3 9
BITMAP
E0701C
E0701C
E0701C
ENDCHAR
STARTCHAR 2030
ENCODING 8240
SWIDTH 1000 0
DWIDTH 28 0
BBX 24 25 2 -2
BITMAP
000400
380C00
6C0800
C61800
C61000
C63000
C62000
C66000
C64000
C6C000
6C8000
398000
010000
03381C
026C36
06C663
04C663
0CC663
08C663
18C663
10C663
10C663
206C36
20381C
400000
ENDCHAR
STARTCHAR 2032
ENCODING 8242
SWIDTH 1000 0
DWIDTH 28 0
BBX 4 8 1 15
BITMAP
30
30
20
20
40
40
80
80
ENDCHAR
STARTCHAR 2033
ENCODING 8243
SWIDTH 1000 0
DWIDTH 28 0
BBX 9 8 1 15
BITMAP
3180
3300
2300
2200
4200
4400
8400
8800
ENDCHAR
STARTCHAR 203B
ENCODING 8251
SWIDTH 1000 0
DWIDTH 28 0
BBX 22 22 3 -1
BITMAP
803008
C0780C
607818
303830
180060
0C00C0
060180
030300
018600
60CC18
F0783C
F0303C
707818
00CC00
018600
030300
060180
0C00C0
183060
307830
607818
C0380C
ENDCHAR
STARTCHAR 203C
ENCODING 8252
SWIDTH 500 0
DWIDTH 14 0
BBX 8 23 3 -1
BITMAP
E7
E7
E7
E7
E7
E7
E7
E7
C7
C3
C3
C3
42
42
42
42
42
00
00
00
E7
E7
E7
ENDCHAR
STARTCHAR 203E
ENCODING 8254
SWIDTH 1000 0
DWIDTH 28 0
BBX 28 1 0 24
BITMAP
FFFFFFF0
ENDCHAR
STARTCHAR 203F
ENCODING 8255
SWIDTH 500 0
DWIDTH 14 0
BBX 10 3 2 -2
BITMAP
8040
4180
3F00
ENDCHAR
STARTCHAR 2042
ENCODING 8258
SWIDTH 500 0
DWIDTH 14 0
BBX 12 16 1 3
BITMAP
0600
1680
1F00
0600
0D00
1680
0600
0000
0000
2040
2040
AF50
70E0
79E0
AF50
2040
ENDCHAR
STARTCHAR 2047
ENCODING 8263
SWIDTH 500 0
DWIDTH 14 0
BBX 13 24 1 -1
BITMAP
3060
58B0
8D18
8D18
8D18
CD98
CD98
0C18
1830
1830
1020
3060
2040
2040
2040
2040
2040
2040
0000
0000
0000
70E0
70E0
70E0
ENDCHAR
STARTCHAR 2048
ENCODING 8264
SWIDTH 500 0
DWIDTH 14 0
BBX 12 24 1 -1
BITMAP
3860
4C60
C660
8660
8660
E660
E660
0660
0C60
0C60
0860
1860
1060
1020
1020
1020
1020
1020
0000
0000
0000
3870
3870
3870
ENDCHAR
STARTCHAR 2049
ENCODING 8265
SWIDTH 500 0
DWIDTH 14 0
BBX 11 24 1 -1
BITMAP
6380
64C0
6C60
6860
6860
6E60
6E60
6060
60C0
60C0
6080
6180
6100
4100
4100
4100
4100
4100
0000
0000
0000
E380
E380
E380
ENDCHAR
STARTCHAR 2051
ENCODING 8273
SWIDTH 1000 0
DWIDTH 28 0
BBX 8 22 10 0
BITMAP
18
18
DB
F6
3C
3C
FF
DB
18
00
00
00
00
18
18
DB
76
18
76
DB
18
18
ENDCHAR
STARTCHAR 20AC
ENCODING 8364
SWIDTH 500 0
DWIDTH 14 0
BBX 12 21 1 0
BITMAP
07A0
0CE0
0860
1820
1020
3020
3000
3000
FF80
3000
3000
FF80
3000
3010
3020
3020
1020
1820
1840
0CC0
0780
ENDCHAR
STARTCHAR 2103
ENCODING 8451
SWIDTH 1000 0
DWIDTH 28 0
BBX 23 22 1 2
BITMAP
780000
CC1F80
847074
CCC01C
79800C
01800C
030004
030004
060000
060000
060000
060000
060000
060000
060000
030002
030002
038004
01800C
00C018
007070
001FC0
ENDCHAR
STARTCHAR 210F
ENCODING 8463
SWIDTH 500 0
DWIDTH 14 0
BBX 12 22 1 0
BITMAP
0600
3C00
0C00
0D80
0E00
1800
6800
1B80
1CC0
18C0
10C0
30C0
30C0
20C0
20C0
61C0
6180
4190
4190
C1A0
01A0
00C0
ENDCHAR
STARTCHAR 2113
ENCODING 8467
SWIDTH 500 0
DWIDTH 14 0
BBX 12 21 1 0
BITMAP
01C0
0320
0620
0620
0C20
0C20
1860
1840
1840
3080
3180
3100
3200
3600
3810
1020
7020
9040
1840
0880
0700
ENDCHAR
STARTCHAR 2116
ENCODING 8470
SWIDTH 1000 0
DWIDTH 28 0
BBX 25 20 1 1
BITMAP
F0F80000
30200000
38200000
28200000
2C200000
2C200000
2620E000
26231800
22231800
23260C00
21260C00
21A60C00
21A60C00
20A60C00
20E60C00
20660C00
20660C00
20631B80
F8231B80
0020E380
ENDCHAR
STARTCHAR 2121
ENCODING 8481
SWIDTH 1000 0
DWIDTH 28 0
BBX 25 19 1 2
BITMAP
FFC00000
CCC00000
8C400000
8C400000
0C000000
0C7FBC00
0C189800
0C189800
0C181800
0C191800
0C191800
0C1F1800
0C191800
0C191800
0C181800
0C189880
0C189880
0C189880
3F7FBF80
ENDCHAR
STARTCHAR 2127
ENCODING 8487
SWIDTH 500 0
DWIDTH 14 0
BBX 12 21 1 0
BITMAP
F9F0
F9F0
8910
8910
9090
30C0
6060
6060
C030
C030
C030
C030
C030
C030
C030
C030
6060
6060
30C0
3180
0F00
ENDCHAR
STARTCHAR 212B
ENCODING 8491
SWIDTH 1000 0
DWIDTH 28 0
BBX 20 22 4 2
BITMAP
006000
009000
011000
009000
006000
006000
00E000
00B000
00B000
011800
011800
021800
020C00
060C00
040600
07FE00
080600
080300
180300
100180
300180
FC0FF0
ENDCHAR
STARTCHAR 2135
ENCODING 8501
SWIDTH 500 0
DWIDTH 14 0
BBX 12 21 1 0
BITMAP
4000
6080
4080
40C0
6060
2070
3090
1890
0880
1D00
3700
2700
6300
6380
6180
60C0
60C0
60E0
6060
6060
E040
ENDCHAR
STARTCHAR 2153
ENCODING 8531
SWIDTH 500 0
DWIDTH 14 0
BBX 12 26 1 -3
BITMAP
1020
F030
3020
3060
3040
3040
3080
3080
3180
3100
3100
3200
FA00
06E0
0530
0510
0910
0810
1820
10C0
1020
2010
2110
6110
4130
41E0
ENDCHAR
STARTCHAR 2154
ENCODING 8532
SWIDTH 500 0
DWIDTH 14 0
BBX 12 25 1 -2
BITMAP
7030
8820
C820
C840
0840
1080
1080
2180
2900
4900
8A00
FA00
05E0
0730
0F10
0B10
0810
1020
10C0
2020
2010
6310
4310
4230
81E0
ENDCHAR
STARTCHAR 2155
ENCODING 8533
SWIDTH 500 0
DWIDTH 14 0
BBX 13 26 1 -3
BITMAP
1010
F018
3010
3030
3020
3020
3040
3040
3080
3080
3180
3100
FF00
02F8
0280
0480
0480
08F0
0890
1118
1018
3018
2198
2198
41B0
40E0
ENDCHAR
STARTCHAR 2160
ENCODING 8544
SWIDTH 1000 0
DWIDTH 28 0
BBX 8 19 10 2
BITMAP
FF
18
18
18
18
18
18
18
18
18
18
18
18
18
18
18
18
18
FF
ENDCHAR
STARTCHAR 2161
ENCODING 8545
SWIDTH 1000 0
DWIDTH 28 0
BBX 18 19 5 2
BITMAP
FFFFC0
180600
180600
180600
180600
180600
180600
180600
180600
180600
180600
180600
180600
180600
180600
180600
180600
180600
FFFFC0
ENDCHAR
STARTCHAR 2162
ENCODING 8546
SWIDTH 1000 0
DWIDTH 28 0
BBX 24 19 2 2
BITMAP
FFFFFF
181818
181818
181818
181818
181818
181818
181818
181818
181818
181818
181818
181818
181818
181818
181818
181818
181818
FFFFFF
ENDCHAR
STARTCHAR 2163
ENCODING 8547
SWIDTH 1000 0
DWIDTH 28 0
BBX 24 20 2 1
BITMAP
FFFC3F
18E006
186004
186004
183008
183008
183808
181810
181810
180C20
180C20
180C20
180640
180640
180640
180380
180380
180380
FF0100
000100
ENDCHAR
STARTCHAR 2164
ENCODING 8548
SWIDTH 1000 0
DWIDTH 28 0
BBX 20 20 4 1
BITMAP
FE07F0
3000C0
1000C0
180080
180180
0C0100
0C0300
040200
060200
060600
030400
030400
018800
018800
00C800
00D000
00F000
006000
006000
002000
ENDCHAR
STARTCHAR 2165
ENCODING 8549
SWIDTH 1000 0
DWIDTH 28 0
BBX 24 20 2 1
BITMAP
FE1FFF
700318
300218
300218
180418
180418
1C0C18
0C0818
0C0818
0E1018
061018
061018
032018
032018
032018
01C018
01C018
01C018
0080FF
008000
ENDCHAR
STARTCHAR 2166
ENCODING 8550
SWIDTH 1000 0
DWIDTH 28 0
BBX 26 20 0 1
BITMAP
FE1FFFC0
38066300
18046300
18046300
1C0C6300
0C086300
0C086300
0C186300
06106300
06106300
06306300
07206300
03206300
03206300
03406300
01C06300
01C06300
01806300
0081FFC0
00800000
ENDCHAR
STARTCHAR 2167
ENCODING 8551
SWIDTH 1000 0
DWIDTH 28 0
BBX 26 20 1 1
BITMAP
FC7FFFC0
3019B300
3011B300
3011B300
1831B300
1831B300
1821B300
0821B300
0C61B300
0C41B300
0C41B300
0641B300
06C1B300
0681B300
0281B300
0381B300
0381B300
0301B300
0107FFC0
01000000
ENDCHAR
STARTCHAR 2168
ENCODING 8552
SWIDTH 1000 0
DWIDTH 28 0
BBX 24 19 2 2
BITMAP
FFFE7F
183818
181810
180C30
180C20
180640
180640
180380
180380
180180
1802C0
1802C0
180460
180870
180830
181038
182018
18601C
FFFC7F
ENDCHAR
STARTCHAR 2169
ENCODING 8553
SWIDTH 1000 0
DWIDTH 28 0
BBX 21 19 4 2
BITMAP
FF0FE0
380380
0C0300
0C0600
060400
030800
019800
00F000
00E000
007000
00B000
011800
030C00
060E00
040700
080300
100180
3001C0
FE07F8
ENDCHAR
STARTCHAR 216A
ENCODING 8554
SWIDTH 1000 0
DWIDTH 28 0
BBX 24 19 2 2
BITMAP
FF3FFF
180C18
080818
0C1018
061018
062018
034018
034018
018018
01C018
01C018
026018
026018
043018
0C3818
081818
100C18
300E18
FC3FFF
ENDCHAR
STARTCHAR 216B
ENCODING 8555
SWIDTH 1000 0
DWIDTH 28 0
BBX 26 19 0 2
BITMAP
7F3FFFC0
1C086300
0C086300
0E106300
06106300
03206300
03406300
01C06300
01806300
00C06300
01C06300
02606300
02706300
04306300
04186300
08186300
100C6300
300E6300
FE3FFFC0
ENDCHAR
STARTCHAR 2170
ENCODING 8560
SWIDTH 1000 0
DWIDTH 28 0
BBX 6 19 11 3
BITMAP
70
70
70
00
00
00
F0
30
30
30
30
30
30
30
30
30
30
30
FC
ENDCHAR
STARTCHAR 2171
ENCODING 8561
SWIDTH 1000 0
DWIDTH 28 0
BBX 14 19 7 3
BITMAP
7070
7070
7070
0000
0000
0000
F0F0
3030
3030
3030
3030
3030
3030
3030
3030
3030
3030
3030
FCFC
ENDCHAR
STARTCHAR 2172
ENCODING 8562
SWIDTH 1000 0
DWIDTH 28 0
BBX 20 19 4 3
BITMAP
70E1C0
70E1C0
70E1C0
000000
000000
102040
F1E3C0
3060C0
3060C0
3060C0
3060C0
3060C0
3060C0
3060C0
3060C0
3060C0
3060C0
3060C0
FFFFF0
ENDCHAR
STARTCHAR 2173
ENCODING 8563
SWIDTH 1000 0
DWIDTH 28 0
BBX 21 20 5 2
BITMAP
700000
700000
700000
000000
000000
100000
F3F1F8
30C020
30C020
306040
306040
303080
303080
303100
301900
301A00
300E00
300E00
FC0400
000400
ENDCHAR
STARTCHAR 2174
ENCODING 8564
SWIDTH 1000 0
DWIDTH 28 0
BBX 16 14 6 1
BITMAP
FC3F
300C
1008
1808
0818
0C10
0C30
0620
0620
0340
0340
0180
0180
0180
ENDCHAR
STARTCHAR 2175
ENCODING 8565
SWIDTH 1000 0
DWIDTH 28 0
BBX 22 20 2 2
BITMAP
000070
000070
000070
000000
000000
000010
FE3FF0
380C30
180830
1C1830
0C1030
0C1030
062030
062030
066030
034030
034030
018030
0180FC
010000
ENDCHAR
STARTCHAR 2176
ENCODING 8566
SWIDTH 1000 0
DWIDTH 28 0
BBX 25 20 1 2
BITMAP
0001CE00
0001CE00
0001CE00
00000000
00000000
00004200
FC7FDE00
3008C600
1008C600
1810C600
0810C600
0C20C600
0C20C600
0620C600
0640C600
0240C600
0380C600
0380C600
0183FF80
01000000
ENDCHAR
STARTCHAR 2177
ENCODING 8567
SWIDTH 1000 0
DWIDTH 28 0
BBX 26 20 1 1
BITMAP
00077700
00077700
00077700
00000000
00000000
00011100
FC7FFF00
301B3300
30133300
18333300
18233300
08233300
0C433300
0C433300
04833300
06833300
06833300
03033300
030FFFC0
02000000
ENDCHAR
STARTCHAR 2178
ENCODING 8568
SWIDTH 1000 0
DWIDTH 28 0
BBX 21 19 5 3
BITMAP
700000
700000
700000
000000
000000
100000
F1F9F0
3060C0
303180
301900
300B00
300E00
300600
300B00
301300
302180
3060C0
30C0E0
FFF1F8
ENDCHAR
STARTCHAR 2179
ENCODING 8569
SWIDTH 1000 0
DWIDTH 28 0
BBX 17 13 5 2
BITMAP
7F3F80
0C0C00
061800
033000
032000
01C000
00C000
016000
023000
041800
081C00
180E00
FE1F80
ENDCHAR
STARTCHAR 217A
ENCODING 8570
SWIDTH 1000 0
DWIDTH 28 0
BBX 22 19 2 3
BITMAP
000070
000070
000070
000000
000000
000010
7E7EF0
0C1030
062030
062030
034030
018030
018030
02C030
066030
0C3030
083030
101830
FC7FFC
ENDCHAR
STARTCHAR 217B
ENCODING 8571
SWIDTH 1000 0
DWIDTH 28 0
BBX 25 19 1 3
BITMAP
0001CE00
0001CE00
0001CE00
00000000
00000000
00004200
7E7FDE00
1810C600
0C20C600
0620C600
0240C600
0380C600
0180C600
02C0C600
0460C600
0C20C600
1830C600
3018C600
FC7FFF80
ENDCHAR
STARTCHAR 2190
ENCODING 8592
SWIDTH 1000 0
DWIDTH 28 0
BBX 25 10 1 6
BITMAP
03800000
06000000
0C000000
18000000
30000000
FFFFFF80
30000000
18000000
0E000000
03000000
ENDCHAR
STARTCHAR 2191
ENCODING 8593
SWIDTH 1000 0
DWIDTH 28 0
BBX 10 25 9 -1
BITMAP
0800
0800
1C00
3E00
6B00
4980
C8C0
8840
0840
0800
0800
0800
0800
0800
0800
0800
0800
0800
0800
0800
0800
0800
0800
0800
0800
ENDCHAR
STARTCHAR 2192
ENCODING 8594
SWIDTH 1000 0
DWIDTH 28 0
BBX 25 10 2 6
BITMAP
0000E000
00003000
00001800
00000C00
00000600
FFFFFF80
00000600
00000C00
00003800
00006000
ENDCHAR
STARTCHAR 2193
ENCODING 8595
SWIDTH 1000 0
DWIDTH 28 0
BBX 10 25 9 -2
BITMAP
0800
0800
0800
0800
0800
0800
0800
0800
0800
0800
0800
0800
0800
0800
0800
0800
0840
8840
C8C0
4980
6B00
3E00
1C00
0800
0800
ENDCHAR
STARTCHAR 2194
ENCODING 8596
SWIDTH 500 0
DWIDTH 14 0
BBX 12 10 1 6
BITMAP
31C0
2040
6060
C030
FFF0
C030
6060
2040
30C0
0100
ENDCHAR
STARTCHAR 2196
ENCODING 8598
SWIDTH 500 0
DWIDTH 14 0
BBX 10 21 2 1
BITMAP
2000
3800
7E00
5380
5880
C840
8800
8C00
8400
0400
0600
0200
0300
0100
0100
0180
0080
0080
00C0
0040
0080
ENDCHAR
STARTCHAR 2197
ENCODING 8599
SWIDTH 500 0
DWIDTH 14 0
BBX 10 21 2 1
BITMAP
0100
0700
1F80
7280
4680
84C0
0440
0C40
0840
1800
1800
1000
3000
2000
2000
6000
4000
4000
C000
8000
8000
ENDCHAR
STARTCHAR 2198
ENCODING 8600
SWIDTH 500 0
DWIDTH 14 0
BBX 10 21 2 0
BITMAP
8000
8000
C000
4000
4000
6000
2000
3000
1000
1000
1800
0800
0840
0C40
0440
84C0
6680
3A80
0F80
0700
0100
ENDCHAR
STARTCHAR 2199
ENCODING 8601
SWIDTH 500 0
DWIDTH 14 0
BBX 10 21 2 0
BITMAP
0040
0040
00C0
0080
0080
0180
0100
0300
0300
0200
0600
0400
8400
8C00
8800
C8C0
5980
5700
7C00
3800
2000
ENDCHAR
STARTCHAR 21C4
ENCODING 8644
SWIDTH 500 0
DWIDTH 14 0
BBX 10 21 2 0
BITMAP
0C00
0200
0100
0080
FFC0
0080
0180
0300
0600
0C00
0000
0C00
1800
3000
6000
4000
FFC0
4000
2000
1000
0800
ENDCHAR
STARTCHAR 21D2
ENCODING 8658
SWIDTH 1000 0
DWIDTH 28 0
BBX 24 16 2 3
BITMAP
000080
0000C0
000060
000030
FFFFF8
00000C
000006
000003
000003
000006
00000C
FFFFF8
000030
000060
0000C0
000080
ENDCHAR
STARTCHAR 21D4
ENCODING 8660
SWIDTH 1000 0
DWIDTH 28 0
BBX 24 16 2 3
BITMAP
020080
0300C0
060060
0C0030
1FFFF8
30000C
600006
C00003
C00003
600006
30000C
1FFFF8
0C0030
060060
0300C0
020080
ENDCHAR
STARTCHAR 21E6
ENCODING 8678
SWIDTH 500 0
DWIDTH 14 0
BBX 10 9 2 6
BITMAP
1000
3000
5000
4FC0
8040
4FC0
5000
3000
1000
ENDCHAR
STARTCHAR 21E7
ENCODING 8679
SWIDTH 500 0
DWIDTH 14 0
BBX 8 22 3 1
BITMAP
10
18
24
24
42
81
81
6E
28
28
28
28
28
28
28
28
28
28
28
28
28
28
ENDCHAR
STARTCHAR 21E8
ENCODING 8680
SWIDTH 500 0
DWIDTH 14 0
BBX 10 9 2 6
BITMAP
0200
0500
0480
FC80
0040
FC80
0500
0500
0200
ENDCHAR
STARTCHAR 21E9
ENCODING 8681
SWIDTH 500 0
DWIDTH 14 0
BBX 8 23 3 -1
BITMAP
18
28
28
28
28
28
28
28
28
28
28
28
28
28
28
E7
81
82
44
24
28
18
10
ENDCHAR
STARTCHAR 2200
ENCODING 8704
SWIDTH 1000 0
DWIDTH 28 0
BBX 24 23 2 -1
BITMAP
800001
400003
400002
200004
200004
100008
180018
080010
0FFFF0
040020
060060
020040
0300C0
010080
008180
008100
004200
006600
002400
003C00
001800
001800
001000
ENDCHAR
STARTCHAR 2202
ENCODING 8706
SWIDTH 1000 0
DWIDTH 28 0
BBX 13 22 8 0
BITMAP
03C0
0C60
1030
2030
0018
0018
0018
0018
0018
0F18
3898
7078
6038
C030
C030
C030
C070
C060
C0E0
60C0
7180
1E00
ENDCHAR
STARTCHAR 2203
ENCODING 8707
SWIDTH 1000 0
DWIDTH 28 0
BBX 20 21 4 0
BITMAP
FFFFF0
000010
000010
000010
000010
000010
000010
000010
000010
000010
FFFFF0
000010
000010
000010
000010
000010
000010
000010
000010
000010
FFFFF0
ENDCHAR
STARTCHAR 2205
ENCODING 8709
SWIDTH 500 0
DWIDTH 14 0
BBX 12 15 1 4
BITMAP
0060
0040
1FC0
31C0
4160
8330
8210
8610
8410
CC10
7820
38C0
3F80
2000
6000
ENDCHAR
STARTCHAR 2207
ENCODING 8711
SWIDTH 1000 0
DWIDTH 28 0
BBX 22 20 3 -1
BITMAP
FFFFFC
600008
300010
300010
180020
180020
0C0040
0C0040
060080
060080
030100
030100
018200
018200
00C400
00C400
006800
006800
003000
002000
ENDCHAR
STARTCHAR 2208
ENCODING 8712
SWIDTH 1000 0
DWIDTH 28 0
BBX 21 19 4 1
BITMAP
01FFF8
0E0000
180000
300000
600000
400000
C00000
800000
800000
FFFFF8
800000
800000
C00000
400000
600000
300000
180000
0E0000
01FFF8
ENDCHAR
STARTCHAR 2209
ENCODING 8713
SWIDTH 500 0
DWIDTH 14 0
BBX 11 20 1 1
BITMAP
0080
0080
07E0
1D00
3100
6100
4300
C300
C200
C200
FFE0
C600
C400
C400
4400
6400
3C00
1800
0FE0
0800
ENDCHAR
STARTCHAR 220B
ENCODING 8715
SWIDTH 1000 0
DWIDTH 28 0
BBX 21 19 3 1
BITMAP
FFFC00
000380
0000C0
000060
000030
000010
000018
000008
000008
FFFFF8
000008
000008
000018
000010
000030
000060
0000C0
000380
FFFC00
ENDCHAR
STARTCHAR 2212
ENCODING 8722
SWIDTH 500 0
DWIDTH 14 0
BBX 12 1 1 10
BITMAP
FFF0
ENDCHAR
STARTCHAR 2213
ENCODING 8723
SWIDTH 500 0
DWIDTH 14 0
BBX 12 18 1 1
BITMAP
FFF0
0000
0000
0000
0600
0600
0600
0600
0600
0600
FFF0
0600
0600
0600
0600
0600
0600
0600
ENDCHAR
STARTCHAR 221A
ENCODING 8730
SWIDTH 1000 0
DWIDTH 28 0
BBX 27 26 1 -2
BITMAP
0007FFE0
000C0000
000C0000
00080000
00180000
00100000
00100000
00300000
00200000
00200000
00600000
00400000
00400000
00C00000
20800000
20800000
21800000
71000000
73000000
93000000
9A000000
1E000000
0C000000
0C000000
0C000000
08000000
ENDCHAR
STARTCHAR 221D
ENCODING 8733
SWIDTH 1000 0
DWIDTH 28 0
BBX 23 10 2 6
BITMAP
1F00F8
618304
406602
803C00
801800
801800
803C00
406602
61C306
1F00F8
ENDCHAR
STARTCHAR 221E
ENCODING 8734
SWIDTH 1000 0
DWIDTH 28 0
BBX 24 11 2 5
BITMAP
1F00F8
218184
404202
802401
801801
801801
803801
802401
404202
218184
1F00F8
ENDCHAR
STARTCHAR 221F
ENCODING 8735
SWIDTH 1000 0
DWIDTH 28 0
BBX 22 23 4 0
BITMAP
800000
800000
800000
800000
800000
800000
800000
800000
800000
800000
800000
800000
800000
800000
800000
800000
800000
800000
800000
800000
800000
800000
FFFFFC
ENDCHAR
STARTCHAR 2220
ENCODING 8736
SWIDTH 1000 0
DWIDTH 28 0
BBX 23 22 2 1
BITMAP
000002
000006
00000C
000018
000030
000060
0000C0
000180
000300
000600
000C00
001800
003000
006000
018000
030000
060000
0C0000
180000
300000
600000
FFFFFE
ENDCHAR
STARTCHAR 2225
ENCODING 8741
SWIDTH 1000 0
DWIDTH 28 0
BBX 14 25 7 -1
BITMAP
00CC
0088
0088
0198
0110
0110
0330
0220
0220
0660
0440
0440
0CC0
0880
0880
1980
1100
1100
3300
2200
2200
6600
4400
4400
8C00
ENDCHAR
STARTCHAR 2226
ENCODING 8742
SWIDTH 500 0
DWIDTH 14 0
BBX 12 25 1 -1
BITMAP
0110
0110
0330
0220
0220
0660
4440
C440
2C40
1880
0880
0C80
1F80
1300
1180
33C0
2240
2220
2230
6600
4400
4400
CC00
8800
8800
ENDCHAR
STARTCHAR 2227
ENCODING 8743
SWIDTH 1000 0
DWIDTH 28 0
BBX 24 23 2 0
BITMAP
001000
001800
001800
002400
002400
004200
00C200
008100
018180
010080
0300C0
020040
060060
040020
0C0030
080010
180018
100008
200004
200004
400002
C00003
800001
ENDCHAR
STARTCHAR 2228
ENCODING 8744
SWIDTH 1000 0
DWIDTH 28 0
BBX 24 23 2 -2
BITMAP
800001
C00003
400002
200004
200004
100008
180018
080010
0C0030
040020
060060
020040
0300C0
010080
018180
008100
004300
004200
002400
002400
001800
001800
001000
ENDCHAR
STARTCHAR 2229
ENCODING 8745
SWIDTH 1000 0
DWIDTH 28 0
BBX 20 21 4 0
BITMAP
01F800
060600
180180
3000C0
200040
400020
400020
800010
800010
800010
800010
800010
800010
800010
800010
800010
800010
800010
800010
800010
800010
ENDCHAR
STARTCHAR 222A
ENCODING 8746
SWIDTH 1000 0
DWIDTH 28 0
BBX 20 21 4 0
BITMAP
800010
800010
800010
800010
800010
800010
800010
800010
800010
800010
800010
800010
800010
800010
400020
400020
200040
3000C0
180180
060600
01F800
ENDCHAR
STARTCHAR 222B
ENCODING 8747
SWIDTH 1000 0
DWIDTH 28 0
BBX 14 25 7 -2
BITMAP
0078
00CC
008C
018C
0180
0100
0100
0300
0300
0300
0300
0300
0300
0300
0300
0300
0300
0300
0200
0600
0600
C600
C400
CC00
7800
ENDCHAR
STARTCHAR 222C
ENCODING 8748
SWIDTH 1000 0
DWIDTH 28 0
BBX 24 25 2 -2
BITMAP
003C1E
004623
00CE47
008E47
008040
0180C0
0180C0
0180C0
018080
010080
010080
010080
010080
010080
010080
010180
030180
030180
030180
030180
020100
E27100
E67300
C46200
783C00
ENDCHAR
STARTCHAR 222E
ENCODING 8750
SWIDTH 1000 0
DWIDTH 28 0
BBX 14 25 7 -2
BITMAP
0078
00CC
008C
018C
0180
0100
0100
0300
0300
0FC0
1B60
1320
1320
1320
0B40
0780
0300
0200
0200
0200
0600
C600
C400
CC00
7800
ENDCHAR
STARTCHAR 2234
ENCODING 8756
SWIDTH 1000 0
DWIDTH 28 0
BBX 18 18 5 2
BITMAP
00C000
01E000
01E000
00C000
000000
000000
000000
000000
000000
000000
000000
000000
000000
000000
600180
F003C0
F003C0
600180
ENDCHAR
STARTCHAR 2235
ENCODING 8757
SWIDTH 1000 0
DWIDTH 28 0
BBX 18 18 5 2
BITMAP
600180
F003C0
F003C0
600180
000000
000000
000000
000000
000000
000000
000000
000000
000000
000000
00C000
01E000
01E000
00C000
ENDCHAR
STARTCHAR 223D
ENCODING 8765
SWIDTH 1000 0
DWIDTH 28 0
BBX 24 11 2 5
BITMAP
1F00F8
210184
400202
800401
800C01
801801
803001
802001
404002
218084
1F0078
ENDCHAR
STARTCHAR 2243
ENCODING 8771
SWIDTH 500 0
DWIDTH 14 0
BBX 12 9 1 7
BITMAP
3800
4C10
8220
01C0
0000
0000
0000
0000
FFF0
ENDCHAR
STARTCHAR 2245
ENCODING 8773
SWIDTH 500 0
DWIDTH 14 0
BBX 12 11 1 5
BITMAP
3810
4620
81C0
0000
0000
0000
FFF0
0000
0000
0000
FFF0
ENDCHAR
STARTCHAR 2248
ENCODING 8776
SWIDTH 500 0
DWIDTH 14 0
BBX 12 9 1 6
BITMAP
3810
4620
81C0
0000
0000
3800
4430
8220
01C0
ENDCHAR
STARTCHAR 2252
ENCODING 8786
SWIDTH 1000 0
DWIDTH 28 0
BBX 20 16 4 3
BITMAP
1C0000
1C0000
1C0000
000000
000000
FFFFF0
000000
000000
000000
000000
FFFFF0
000000
000000
000700
000700
000700
ENDCHAR
STARTCHAR 2260
ENCODING 8800
SWIDTH 1000 0
DWIDTH 28 0
BBX 20 19 4 1
BITMAP
000300
000600
000400
000C00
000800
001800
FFFFF0
003000
002000
004000
00C000
FFFFF0
018000
010000
030000
020000
060000
040000
0C0000
ENDCHAR
STARTCHAR 2261
ENCODING 8801
SWIDTH 1000 0
DWIDTH 28 0
BBX 20 13 4 4
BITMAP
FFFFF0
000000
000000
000000
000000
000000
FFFFF0
000000
000000
000000
000000
000000
FFFFF0
ENDCHAR
STARTCHAR 2262
ENCODING 8802
SWIDTH 500 0
DWIDTH 14 0
BBX 12 18 1 2
BITMAP
0040
00C0
0080
FFF0
0100
0100
0300
0200
0200
FFF0
0400
0C00
0800
0800
FFF0
1000
3000
2000
ENDCHAR
STARTCHAR 2266
ENCODING 8806
SWIDTH 1000 0
DWIDTH 28 0
BBX 20 22 4 1
BITMAP
000030
0001E0
000F00
007800
01C000
0E0000
700000
F80000
0E0000
01C000
003800
000F00
0001E0
000030
000000
000000
FFFFF0
000000
000000
000000
000000
FFFFF0
ENDCHAR
STARTCHAR 2267
ENCODING 8807
SWIDTH 1000 0
DWIDTH 28 0
BBX 20 22 4 1
BITMAP
C00000
780000
0F0000
01E000
003800
000700
0000E0
0001F0
000700
003800
01C000
0F0000
780000
C00000
000000
000000
FFFFF0
000000
000000
000000
000000
FFFFF0
ENDCHAR
STARTCHAR 226A
ENCODING 8810
SWIDTH 1000 0
DWIDTH 28 0
BBX 23 25 2 -2
BITMAP
000186
00060C
000C30
001860
0030C0
006180
018300
030C00
061800
0C3000
186000
60C000
C10000
60C000
186000
0C3000
061800
030C00
018300
006180
0030C0
001860
000C30
00060C
000186
ENDCHAR
STARTCHAR 226B
ENCODING 8811
SWIDTH 1000 0
DWIDTH 28 0
BBX 23 25 3 -2
BITMAP
C30000
60C000
186000
0C3000
061800
030C00
018300
006180
0030C0
001860
000C30
00060C
000186
00060C
000C30
001860
0030C0
006180
018300
030C00
061800
0C3000
186000
60C000
C30000
ENDCHAR
STARTCHAR 2276
ENCODING 8822
SWIDTH 500 0
DWIDTH 14 0
BBX 12 20 1 0
BITMAP
0010
0030
00E0
0780
1C00
7000
E000
1C00
0700
81C0
F070
1C10
0700
01C0
0070
01C0
0700
1C00
7000
C000
ENDCHAR
STARTCHAR 2277
ENCODING 8823
SWIDTH 500 0
DWIDTH 14 0
BBX 13 20 0 0
BITMAP
8000
6000
3800
0F00
01C0
0070
0038
01C0
0700
1C08
7078
41C0
0700
1C00
7000
1C00
0700
01C0
0070
0018
ENDCHAR
STARTCHAR 2282
ENCODING 8834
SWIDTH 1000 0
DWIDTH 28 0
BBX 21 19 4 1
BITMAP
01FFF8
0E0000
180000
300000
600000
400000
C00000
800000
800000
800000
800000
800000
800000
400000
600000
200000
180000
0E0000
01FFF8
ENDCHAR
STARTCHAR 2283
ENCODING 8835
SWIDTH 1000 0
DWIDTH 28 0
BBX 21 19 3 1
BITMAP
FFFC00
000380
0000C0
000060
000030
000010
000018
000008
000008
000008
000008
000008
000018
000010
000030
000060
0000C0
000380
FFFC00
ENDCHAR
STARTCHAR 2284
ENCODING 8836
SWIDTH 500 0
DWIDTH 14 0
BBX 11 20 1 1
BITMAP
0080
0080
07E0
1900
3100
6100
4300
8300
8200
8200
8200
8600
8400
8400
4400
6400
3C00
1800
0FE0
0800
ENDCHAR
STARTCHAR 2285
ENCODING 8837
SWIDTH 500 0
DWIDTH 14 0
BBX 11 19 2 1
BITMAP
0300
FE00
0300
0780
04C0
0440
0460
0420
0C20
0820
0820
0820
1820
1840
10C0
1180
1300
FC00
2000
ENDCHAR
STARTCHAR 2286
ENCODING 8838
SWIDTH 1000 0
DWIDTH 28 0
BBX 22 21 3 0
BITMAP
07FFFC
1C0000
300000
400000
400000
800000
800000
800000
800000
800000
400000
400000
300000
180000
07FFFC
000000
000000
000000
000000
000000
FFFFFC
ENDCHAR
STARTCHAR 2287
ENCODING 8839
SWIDTH 1000 0
DWIDTH 28 0
BBX 22 21 3 0
BITMAP
FFFF00
0000E0
000030
000018
000008
000004
000004
000004
000004
000004
000008
000008
000030
0000E0
FFFF80
000000
000000
000000
000000
000000
FFFFFC
ENDCHAR
STARTCHAR 228A
ENCODING 8842
SWIDTH 500 0
DWIDTH 14 0
BBX 10 19 2 0
BITMAP
1FC0
3000
4000
C000
8000
8000
8000
8000
C000
4000
3000
1FC0
0000
0000
0600
0400
FFC0
0800
0800
ENDCHAR
STARTCHAR 228B
ENCODING 8843
SWIDTH 500 0
DWIDTH 14 0
BBX 10 19 2 0
BITMAP
FE00
0300
0080
0080
0040
0040
0040
0040
00C0
0080
0300
FE00
0000
0000
0600
0400
FFC0
0800
0800
ENDCHAR
STARTCHAR 2295
ENCODING 8853
SWIDTH 500 0
DWIDTH 14 0
BBX 12 13 1 4
BITMAP
0F00
30C0
6460
4420
8410
8410
BFD0
8410
8410
4420
4460
30C0
0F00
ENDCHAR
STARTCHAR 2296
ENCODING 8854
SWIDTH 500 0
DWIDTH 14 0
BBX 12 13 1 4
BITMAP
0F00
30C0
6060
4020
8010
8010
BFD0
8010
8010
4020
4060
30C0
0F00
ENDCHAR
STARTCHAR 2297
ENCODING 8855
SWIDTH 500 0
DWIDTH 14 0
BBX 12 12 1 5
BITMAP
0F00
30C0
60A0
50E0
8910
8610
8610
8910
90B0
6060
20C0
1F80
ENDCHAR
STARTCHAR 22A5
ENCODING 8869
SWIDTH 1000 0
DWIDTH 28 0
BBX 24 23 2 0
BITMAP
001000
001000
001000
001000
001000
001000
001000
001000
001000
001000
001000
001000
001000
001000
001000
001000
001000
001000
001000
001000
001000
001000
FFFFFF
ENDCHAR
STARTCHAR 22BF
ENCODING 8895
SWIDTH 1000 0
DWIDTH 28 0
BBX 22 22 3 1
BITMAP
000004
00000C
00001C
000034
000064
0000C4
000184
000304
000604
000C04
001804
003004
006004
00C004
018004
030004
060004
0C0004
180004
300004
600004
FFFFFC
ENDCHAR
STARTCHAR 22DA
ENCODING 8922
SWIDTH 500 0
DWIDTH 14 0
BBX 12 21 1 0
BITMAP
0030
01E0
0700
3800
E000
1C00
0700
00E0
0030
0000
FFF0
0000
C000
7000
0E00
03C0
0070
01C0
0E00
7800
C000
ENDCHAR
STARTCHAR 22DB
ENCODING 8923
SWIDTH 500 0
DWIDTH 14 0
BBX 12 21 1 0
BITMAP
C000
7800
0E00
01C0
0070
03C0
1E00
7000
C000
0000
FFF0
0000
0030
00E0
0780
3C00
E000
3800
0700
01E0
0030
ENDCHAR
STARTCHAR 2305
ENCODING 8965
SWIDTH 500 0
DWIDTH 14 0
BBX 12 13 1 3
BITMAP
FFF0
0400
0600
0600
0F00
0900
1980
1080
30C0
2040
6060
4020
C030
ENDCHAR
STARTCHAR 2306
ENCODING 8966
SWIDTH 500 0
DWIDTH 14 0
BBX 12 16 1 2
BITMAP
FFF0
0000
0000
0000
FFF0
0400
0600
0600
0F00
0900
1980
30C0
3040
6060
4020
C030
ENDCHAR
STARTCHAR 2312
ENCODING 8978
SWIDTH 1000 0
DWIDTH 28 0
BBX 26 7 1 16
BITMAP
007F8000
03807000
0C000C00
30000300
60000180
80000040
00000040
ENDCHAR
STARTCHAR 2318
ENCODING 8984
SWIDTH 1000 0
DWIDTH 28 0
BBX 24 25 2 -2
BITMAP
38001C
440022
820041
820041
820041
420042
3FFFFC
020040
020040
020040
020040
020040
020040
020040
020040
020040
020040
020040
3FFFFC
420043
820041
820041
820041
440022
38001C
ENDCHAR
STARTCHAR 23BE
ENCODING 9150
SWIDTH 1000 0
DWIDTH 28 0
BBX 15 28 13 -3
BITMAP
FFFE
8000
8000
8000
8000
8000
8000
8000
8000
8000
8000
8000
8000
8000
8000
8000
8000
8000
8000
8000
8000
8000
8000
8000
8000
8000
8000
8000
ENDCHAR
STARTCHAR 23BF
ENCODING 9151
SWIDTH 1000 0
DWIDTH 28 0
BBX 15 28 13 -3
BITMAP
8000
8000
8000
8000
8000
8000
8000
8000
8000
8000
8000
8000
8000
8000
8000
8000
8000
8000
8000
8000
8000
8000
8000
8000
8000
8000
8000
FFFE
ENDCHAR
STARTCHAR 23C0
ENCODING 9152
SWIDTH 1000 0
DWIDTH 28 0
BBX 21 28 3 -3
BITMAP
002000
002000
002000
007000
03FE00
0C2180
1820C0
302060
602020
402010
402010
802008
802008
802008
802008
802008
802008
402010
402010
602030
302060
1820C0
0C2180
03FE00
007000
002000
002000
002000
ENDCHAR
STARTCHAR 23C1
ENCODING 9153
SWIDTH 1000 0
DWIDTH 28 0
BBX 28 28 0 -3
BITMAP
FFFFFFF0
00040000
00040000
000F0000
007DE000
01843000
03040C00
04040600
0C040200
08040100
08040100
10040080
10040080
10040080
10040080
10040080
10040080
08040100
08040300
0C040200
06040600
03041C00
01843000
007FE000
000E0000
00040000
00040000
00040000
ENDCHAR
STARTCHAR 23C2
ENCODING 9154
SWIDTH 1000 0
DWIDTH 28 0
BBX 28 28 0 -3
BITMAP
00040000
00040000
00040000
000E0000
007FC000
01843000
03040800
06040400
04040200
08040100
08040100
10040080
10040080
10040080
10040080
10040080
10040080
08040100
08040300
0C040200
04040600
02040C00
01843800
0075E000
000F0000
00040000
00040000
FFFFFFF0
ENDCHAR
STARTCHAR 23C3
ENCODING 9155
SWIDTH 1000 0
DWIDTH 28 0
BBX 23 28 2 -3
BITMAP
001000
001000
001000
001000
001000
003800
003800
005400
00D600
009200
019300
011100
031180
021080
041040
0C1060
081020
181030
101010
301008
201008
401004
C01006
FFFFFE
001000
001000
001000
001000
ENDCHAR
STARTCHAR 23C4
ENCODING 9156
SWIDTH 1000 0
DWIDTH 28 0
BBX 28 28 0 -3
BITMAP
FFFFFFF0
00040000
00040000
00040000
00040000
000E0000
000F0000
00150000
00358000
00248000
0064C000
00446000
00C42000
00843000
01841000
01041800
02040800
06040400
04040600
0C040200
08040300
18040100
10040080
3FFFFFC0
00040000
00040000
00040000
00040000
ENDCHAR
STARTCHAR 23C5
ENCODING 9157
SWIDTH 1000 0
DWIDTH 28 0
BBX 28 28 0 -3
BITMAP
00040000
00040000
00040000
00040000
00040000
000E0000
000E0000
00150000
00358000
00248000
0064C000
00444000
00C42000
00843000
01841000
01041800
02040800
06040400
04040600
0C040200
08040300
18040100
10040080
3FFFFFC0
00040000
00040000
00040000
FFFFFFF0
ENDCHAR
STARTCHAR 23C6
ENCODING 9158
SWIDTH 1000 0
DWIDTH 28 0
BBX 25 28 1 -3
BITMAP
00080000
00080000
00080000
00080000
00080000
00080000
00080000
00080000
00080000
00080000
00080000
1F880000
60E80000
80180000
000C0100
000B8380
0008FC00
00080000
00080000
00080000
00080000
00080000
00080000
00080000
00080000
00080000
00080000
00080000
ENDCHAR
STARTCHAR 23C7
ENCODING 9159
SWIDTH 1000 0
DWIDTH 28 0
BBX 28 28 0 -3
BITMAP
FFFFFFF0
00040000
00040000
00040000
00040000
00040000
00040000
00040000
00040000
00040000
00040000
0FC40000
30740000
400C0000
00070040
0005C1C0
00043F00
00040000
00040000
00040000
00040000
00040000
00040000
00040000
00040000
00040000
00040000
00040000
ENDCHAR
STARTCHAR 23C8
ENCODING 9160
SWIDTH 1000 0
DWIDTH 28 0
BBX 28 28 0 -3
BITMAP
00040000
00040000
00040000
00040000
00040000
00040000
00040000
00040000
00040000
00040000
00040000
0FC40000
30740000
201C0000
00060040
0005C1C0
00047F00
00040000
00040000
00040000
00040000
00040000
00040000
00040000
00040000
00040000
00040000
FFFFFFF0
ENDCHAR
STARTCHAR 23C9
ENCODING 9161
SWIDTH 1000 0
DWIDTH 28 0
BBX 28 28 0 -3
BITMAP
FFFFFFF0
00040000
00040000
00040000
00040000
00040000
00040000
00040000
00040000
00040000
00040000
00040000
00040000
00040000
00040000
00040000
00040000
00040000
00040000
00040000
00040000
00040000
00040000
00040000
00040000
00040000
00040000
00040000
ENDCHAR
STARTCHAR 23CA
ENCODING 9162
SWIDTH 1000 0
DWIDTH 28 0
BBX 28 28 0 -3
BITMAP
00040000
00040000
00040000
00040000
00040000
00040000
00040000
00040000
00040000
00040000
00040000
00040000
00040000
00040000
00040000
00040000
00040000
00040000
00040000
00040000
00040000
00040000
00040000
00040000
00040000
00040000
00040000
FFFFFFF0
ENDCHAR
STARTCHAR 23CB
ENCODING 9163
SWIDTH 1000 0
DWIDTH 28 0
BBX 15 28 0 -3
BITMAP
FFFE
0002
0002
0002
0002
0002
0002
0002
0002
0002
0002
0002
0002
0002
0002
0002
0002
0002
0002
0002
0002
0002
0002
0002
0002
0002
0002
0002
ENDCHAR
STARTCHAR 23CC
ENCODING 9164
SWIDTH 1000 0
DWIDTH 28 0
BBX 15 28 0 -3
BITMAP
0002
0002
0002
0002
0002
0002
0002
0002
0002
0002
0002
0002
0002
0002
0002
0002
0002
0002
0002
0002
0002
0002
0002
0002
0002
0002
0002
FFFE
ENDCHAR
STARTCHAR 23CE
ENCODING 9166
SWIDTH 1000 0
DWIDTH 28 0
BBX 23 23 2 -2
BITMAP
0001FE
000102
000102
000102
000102
000102
000102
008102
008102
038102
068102
0C8102
18FE02
200002
400002
800002
600004
30000C
18FFF0
0C8000
028000
018000
008000
ENDCHAR
STARTCHAR 2423
ENCODING 9251
SWIDTH 1000 0
DWIDTH 28 0
BBX 22 6 3 -1
BITMAP
800004
800004
800004
800004
800004
FFFFFC
ENDCHAR
STARTCHAR 2460
ENCODING 9312
SWIDTH 1000 0
DWIDTH 28 0
BBX 26 25 1 -2
BITMAP
007F0000
0180E000
06001000
08000C00
100C0600
207C0300
200C0100
400C0080
400C0080
800C0040
800C0040
800C0040
800C0040
800C0040
800C0040
800C0040
400C0080
400C0080
400C0100
200C0100
107F8200
08000400
06001800
01806000
007F8000
ENDCHAR
STARTCHAR 2461
ENCODING 9313
SWIDTH 1000 0
DWIDTH 28 0
BBX 26 25 1 -2
BITMAP
003F0000
01C0C000
02003000
0C000800
183F0400
3061C200
20C0C100
41806080
41C06080
C1C06040
8000E040
8000C040
80018040
80030040
80060040
800C0040
80102080
40202080
40402100
20806100
11FFE200
08000400
06000800
01807000
007F8000
ENDCHAR
STARTCHAR 2462
ENCODING 9314
SWIDTH 1000 0
DWIDTH 28 0
BBX 26 25 1 -1
BITMAP
003F0000
00C0E000
03001000
04000C00
081E0600
10618200
20C1C100
40E0C080
40E0C080
C000C040
80018040
80038040
801C0040
80038040
8000C040
80006040
41C06080
41C06080
21C06100
31C0C100
10E18200
0C3F0400
06000800
01C07000
007F8000
ENDCHAR
STARTCHAR 2463
ENCODING 9315
SWIDTH 1000 0
DWIDTH 28 0
BBX 24 25 2 -2
BITMAP
007E00
0381C0
040060
080010
100608
200E04
600E04
401602
402602
804601
804601
808601
810601
820601
820601
87FFC1
800602
400602
400604
200604
101F88
080010
040020
0380C0
007F00
ENDCHAR
STARTCHAR 2464
ENCODING 9316
SWIDTH 1000 0
DWIDTH 28 0
BBX 26 24 1 -1
BITMAP
007F8000
0180E000
06001800
08000C00
107FC200
20400100
60400180
40C00080
C0C00080
80DF0040
80A18040
80C0C040
80806040
80006040
80006040
41C06080
41C06080
21C0C100
21C0C100
10E18200
083E0400
06000800
01807000
007F8000
ENDCHAR
STARTCHAR 2465
ENCODING 9317
SWIDTH 1000 0
DWIDTH 28 0
BBX 26 25 1 -2
BITMAP
007F8000
0180E000
06001800
08000C00
101F0600
2030C300
6061C100
40C1C080
40C00080
81C00040
818F0040
81B1C040
81C0C040
81806040
81806040
81806040
41806080
40C06080
20C0C100
30718300
181F0200
0C000C00
06001800
01C0E000
007F8000
ENDCHAR
STARTCHAR 2466
ENCODING 9318
SWIDTH 1000 0
DWIDTH 28 0
BBX 26 25 1 -1
BITMAP
003F0000
00C0C000
03003000
04000800
08000400
10FFE200
20C04100
40804080
40808080
C0808080
80010040
80010040
80030040
80020040
80060040
80060040
40060080
400C0080
200C0100
200C0100
100C0200
0C0C0400
06000800
01C07000
007F8000
ENDCHAR
STARTCHAR 2467
ENCODING 9319
SWIDTH 1000 0
DWIDTH 28 0
BBX 26 25 1 -2
BITMAP
007F8000
0180E000
06001800
08000C00
103F0600
20618300
60C0C100
40C0C080
40C0C080
80E18040
80730040
801E0040
80370040
80618040
80C0C040
81806040
41806080
41806080
21C0C100
30E1C300
183F0200
0C000C00
06001800
01C0E000
007F8000
ENDCHAR
STARTCHAR 2468
ENCODING 9320
SWIDTH 1000 0
DWIDTH 28 0
BBX 26 25 1 -2
BITMAP
007F8000
0180E000
06001800
08000C00
101E0600
20718300
60E0C100
40C0C080
40C06080
80C06040
80C06040
8060E040
8071E040
801E6040
80006040
8000E040
40E0C080
40E0C080
20C18100
30638300
183E0200
0C000C00
06001800
01C0E000
007F8000
ENDCHAR
STARTCHAR 2469
ENCODING 9321
SWIDTH 1000 0
DWIDTH 28 0
BBX 26 26 1 -2
BITMAP
007F0000
0180E000
06001000
0C000800
1081C400
37822200
21863100
41841080
418C1880
C18C1880
818C1840
818C1840
818C1840
818C1840
818C1840
818C1840
818C18C0
41841080
41863180
21822100
37E1C300
18000600
0C000C00
06003800
01C0E000
007F8000
ENDCHAR
STARTCHAR 246A
ENCODING 9322
SWIDTH 1000 0
DWIDTH 28 0
BBX 26 26 1 -2
BITMAP
007F0000
0180E000
06001000
0C000C00
10802600
3781E200
21806100
41806080
41806080
C1806080
81806040
81806040
81806040
81806040
81806040
81806040
818060C0
41806080
41806080
21806100
37E1FB00
18000600
0C000C00
06003800
01C0E000
007F8000
ENDCHAR
STARTCHAR 246B
ENCODING 9323
SWIDTH 1000 0
DWIDTH 28 0
BBX 26 25 1 -2
BITMAP
007F8000
0380F000
04001800
08000C00
1083E200
27863300
618C1900
418E1880
418E1880
81801840
81803040
81803040
81806040
8180C040
81808040
818100C0
41820880
41860880
21841900
27EFFB00
10000600
08000C00
06003800
0180E000
007F8000
ENDCHAR
STARTCHAR 246C
ENCODING 9324
SWIDTH 1000 0
DWIDTH 28 0
BBX 26 25 1 -2
BITMAP
003F0000
01C0E000
06001800
08000C00
1081E200
27823300
21861900
41861880
41861880
81801840
81801840
81803040
8181C040
81803040
81801840
818018C0
418E1880
418E1880
21863100
27E3E300
10000600
0C000C00
06001800
01C0E000
007F8000
ENDCHAR
STARTCHAR 246D
ENCODING 9325
SWIDTH 1000 0
DWIDTH 28 0
BBX 25 25 1 -2
BITMAP
007F8000
0380F000
04003800
18000C00
11806600
2780E200
4180E300
41816100
C1816100
81826080
81826080
81846080
818C6080
81886080
81906080
819FF880
41806100
41806100
21806200
27E1F200
10000400
0C000800
06003000
01C0C000
007F0000
ENDCHAR
STARTCHAR 246E
ENCODING 9326
SWIDTH 1000 0
DWIDTH 28 0
BBX 26 26 1 -2
BITMAP
003F0000
01C0C000
03003000
04000800
08000400
1787F200
21840100
41840080
41840080
81840080
8185E040
81863040
81843040
81801840
81801840
81801840
C18E18C0
418E1880
418C3180
21847100
37E3C300
18000600
0C000C00
06003800
01C0E000
007F8000
ENDCHAR
STARTCHAR 246F
ENCODING 9327
SWIDTH 1000 0
DWIDTH 28 0
BBX 26 26 1 -2
BITMAP
003F0000
01C0E000
02001000
0C000800
1881E600
37833200
21821900
41863880
41863880
C18C0080
818C0040
818DE040
818E3040
818C1840
818C1840
818C1840
C18C18C0
418C1880
41863180
21863100
37E1E300
18000600
0C000C00
06003800
01C0E000
007F8000
ENDCHAR
STARTCHAR 2470
ENCODING 9328
SWIDTH 1000 0
DWIDTH 28 0
BBX 26 26 1 -2
BITMAP
003F0000
01C0C000
02003000
0C000800
18000400
178FFA00
218C1900
41881080
41883080
81882080
81802040
81806040
81804040
8180C040
8180C040
8180C040
818180C0
41818080
41818180
21818100
37E18300
18000600
0C000C00
06003800
01C0E000
007F8000
ENDCHAR
STARTCHAR 2471
ENCODING 9329
SWIDTH 1000 0
DWIDTH 28 0
BBX 26 26 1 -2
BITMAP
007F0000
0180E000
06001000
0C000800
1081C400
37836200
21863100
41863080
41863080
C1863080
81832040
81834040
8181C040
81826040
81863040
818C1840
818C18C0
418C1880
418C1980
21863100
37E3E300
18000600
0C000C00
06003800
01C0E000
007F8000
ENDCHAR
STARTCHAR 2472
ENCODING 9330
SWIDTH 1000 0
DWIDTH 28 0
BBX 26 26 1 -2
BITMAP
007F0000
0180E000
06001000
0C000800
1083C400
37862200
21863100
418C1080
418C1880
C18C1880
818C1840
818C1840
818E1840
81863840
8183D840
81801840
818010C0
418E3080
418E3180
218C6100
37E3C300
18000600
0C000C00
06003800
01C0E000
007F8000
ENDCHAR
STARTCHAR 2473
ENCODING 9331
SWIDTH 1000 0
DWIDTH 28 0
BBX 24 25 2 -2
BITMAP
00FF00
0301C0
0C0060
180010
3381C8
24C364
486226
4C6632
CC6632
806631
80C631
80C631
808631
818631
830631
820631
462632
442222
482364
2FE1CC
100008
080030
040060
0381C0
007E00
ENDCHAR
STARTCHAR 24D0
ENCODING 9424
SWIDTH 1000 0
DWIDTH 28 0
BBX 26 25 1 -2
BITMAP
007F8000
0180F000
06001800
08000C00
10000600
20000300
60000100
403E0080
40C10080
80E18040
80018040
800F8040
80318040
80618040
80C18040
80C18040
40C3B080
407DC080
20000100
30000100
10000200
0C000400
06001800
01C06000
007F8000
ENDCHAR
STARTCHAR 24D1
ENCODING 9425
SWIDTH 1000 0
DWIDTH 28 0
BBX 26 25 1 -2
BITMAP
007F8000
0180F000
06001800
08200C00
11E00600
20600300
60600100
40600080
40600080
806F8040
8070C040
80606040
80603040
80603040
80603040
80603040
40603080
40606080
2070C100
304F8100
10000200
0C000400
06001800
01C06000
007F8000
ENDCHAR
STARTCHAR 24D2
ENCODING 9426
SWIDTH 1000 0
DWIDTH 28 0
BBX 26 25 1 -2
BITMAP
007F8000
0180E000
06001800
08000C00
10000600
20000300
60000100
401F0080
40718080
80618040
80C00040
80C00040
80C00040
80C00040
80C08040
8060C040
40718080
401E0080
20000100
30000300
18000200
0C000C00
06001800
01C0E000
007F8000
ENDCHAR
STARTCHAR 24D3
ENCODING 9427
SWIDTH 1000 0
DWIDTH 28 0
BBX 26 25 1 -2
BITMAP
007F8000
0180F000
06001800
08008C00
10078600
20018300
60018100
40018080
40018080
803D8040
80638040
80C18040
81818040
81818040
81818040
81818040
41818080
40C18080
20E38100
307DE100
18000200
0C000400
06001800
01C06000
007F8000
ENDCHAR
STARTCHAR 24D4
ENCODING 9428
SWIDTH 1000 0
DWIDTH 28 0
BBX 26 26 1 -2
BITMAP
003F0000
00C0C000
03003000
04000800
08000400
10000200
20000100
601E0080
40218080
40408080
80C0C040
80C0C040
80FFC040
80800040
80C00040
80C00040
804040C0
40218080
401F0080
20000100
30000300
18000600
0C000C00
06001800
01C0E000
007F8000
ENDCHAR
STARTCHAR 24D5
ENCODING 9429
SWIDTH 1000 0
DWIDTH 28 0
BBX 26 26 1 -2
BITMAP
007F0000
0180C000
06003000
0C000800
10000400
30078200
2008C100
4018C080
40180080
C0180080
80FF0040
80180040
80180040
80180040
80180040
80180040
801800C0
40180080
40180080
20180100
207E0300
10000600
08000C00
06001800
0180E000
007F8000
ENDCHAR
STARTCHAR 24D6
ENCODING 9430
SWIDTH 1000 0
DWIDTH 28 0
BBX 26 25 1 -2
BITMAP
007F8000
0180E000
06001800
08000C00
10000600
201CE300
60336100
40618080
40618080
80618040
80730040
803E0040
80600040
80700040
803FC040
80C0E040
40C06080
40C06080
2060C100
303F8300
18000200
0C000C00
06001800
01C0E000
007F8000
ENDCHAR
STARTCHAR 24D7
ENCODING 9431
SWIDTH 1000 0
DWIDTH 28 0
BBX 26 25 1 -2
BITMAP
007F8000
0180E000
06001800
08000C00
10E00200
21600300
60600100
40600080
40600080
80670040
80798040
8060C040
8060C040
8060C040
8060C040
C060C040
4060C080
4060C080
2060C100
31F1F300
18000600
0C000C00
06001800
01C0E000
007F8000
ENDCHAR
STARTCHAR 24D8
ENCODING 9432
SWIDTH 1000 0
DWIDTH 28 0
BBX 26 25 1 -2
BITMAP
007F8000
0380F000
04001800
081C0C00
101C0600
201C0300
40000180
40000080
C0000080
803C0040
800C0040
800C0040
800C0040
800C0040
800C0040
800C0040
400C0080
400C0080
200C0100
203F0300
10000200
0C000C00
06001800
0180E000
007F8000
ENDCHAR
STARTCHAR 24D9
ENCODING 9433
SWIDTH 1000 0
DWIDTH 28 0
BBX 26 25 1 -2
BITMAP
007F8000
0180F000
060E1800
080E0C00
100E0600
20000300
60000100
40020080
401E0080
80060040
80060040
80060040
80060040
80060040
80060040
80060040
40060080
40060080
20060100
20E60100
10CC0200
0C780400
06001800
01C06000
007F8000
ENDCHAR
STARTCHAR 24DA
ENCODING 9434
SWIDTH 1000 0
DWIDTH 28 0
BBX 26 25 1 -2
BITMAP
007F8000
0380E000
04001800
08000C00
11E00600
20600300
60600100
40600080
40600080
8063E040
80618040
80630040
80660040
806C0040
80760040
80630040
40610080
40618080
4060C100
21F9F100
10000200
08000400
06001800
01806000
007F8000
ENDCHAR
STARTCHAR 24DB
ENCODING 9435
SWIDTH 1000 0
DWIDTH 28 0
BBX 26 25 1 -2
BITMAP
007F8000
0380F000
04001800
08000C00
101C0600
202C0300
400C0180
400C0080
C00C0080
800C0040
800C0040
800C0040
800C0040
800C0040
800C0040
800C0040
400C0080
400C0080
200C0100
203F0300
10000200
0C000C00
06001800
0180E000
007F8000
ENDCHAR
STARTCHAR 24DC
ENCODING 9436
SWIDTH 1000 0
DWIDTH 28 0
BBX 26 25 1 -2
BITMAP
007F8000
0180E000
06001800
08000C00
10000600
30000300
60000100
4F38E080
43CD3080
83061840
83061840
83061840
83061840
83061840
83061840
83061840
43061880
4FDF3E80
40000100
20000100
10000200
08000400
06001800
01806000
007F8000
ENDCHAR
STARTCHAR 24DD
ENCODING 9437
SWIDTH 1000 0
DWIDTH 28 0
BBX 26 25 1 -2
BITMAP
003F0000
01C0E000
06001000
0C000C00
10000600
30000300
20000100
41CF0080
40518080
8060C040
8060C040
8060C040
8060C040
8060C040
8060C040
8060C040
4060C080
41F1F080
20000100
20000100
10000200
0C000400
06001800
01C06000
007F8000
ENDCHAR
STARTCHAR 24DE
ENCODING 9438
SWIDTH 1000 0
DWIDTH 28 0
BBX 26 25 1 -2
BITMAP
007F8000
0180E000
06001800
08000C00
10000600
20000300
60000100
401E0080
40210080
80408040
80C0C040
80C0C040
80C0C040
80C0C040
80C0C040
8060C040
40718080
401E0080
20000100
30000300
18000200
0C000C00
06001800
01C0E000
007F8000
ENDCHAR
STARTCHAR 24DF
ENCODING 9439
SWIDTH 1000 0
DWIDTH 28 0
BBX 26 26 1 -2
BITMAP
003F0000
01C0C000
02003000
04000800
18000400
10000200
20200100
41EF0080
4071C080
C060C080
80606040
80606040
80606040
80606040
8060C040
8071C040
806F00C0
40600080
40600080
20600100
21F80300
10000600
0C000C00
06001800
0180E000
007F8000
ENDCHAR
STARTCHAR 24E0
ENCODING 9440
SWIDTH 1000 0
DWIDTH 28 0
BBX 26 26 1 -2
BITMAP
003F0000
00C0E000
03001000
04000800
08000400
10000200
20008100
603F8080
40E18080
40C18080
81818040
81818040
81818040
81818040
80C18040
80E38040
C03D80C0
40018080
40018080
20018100
3007E300
18000200
0C000C00
06001800
01C06000
007F8000
ENDCHAR
STARTCHAR 24E1
ENCODING 9441
SWIDTH 1000 0
DWIDTH 28 0
BBX 26 25 1 -2
BITMAP
003F8000
01C0E000
02001800
0C000C00
10000600
30000300
20000100
4073C080
40166080
801C6040
80180040
80180040
80180040
80180040
80180040
80180040
40180080
407E0080
20000100
30000100
18000200
0C000400
06000800
01C07000
007F8000
ENDCHAR
STARTCHAR 24E2
ENCODING 9442
SWIDTH 1000 0
DWIDTH 28 0
BBX 25 25 2 -2
BITMAP
007F0000
0380C000
04003000
08001800
10000400
20000600
60000200
407D0100
40C30100
80C10080
80E00080
80780080
801E0080
80038080
80818080
80818080
40E38100
40BE0100
40000200
20000600
10000400
08001800
06003000
0181C000
007F0000
ENDCHAR
STARTCHAR 24E3
ENCODING 9443
SWIDTH 1000 0
DWIDTH 28 0
BBX 26 25 1 -2
BITMAP
007F8000
0180F000
06001800
08000C00
10000600
20080300
60080180
40380080
407F8080
80180040
80180040
80180040
80180040
80180040
80180040
80180040
40180080
4018C080
200F0100
30000100
18000200
0C000400
06000800
01C07000
007F8000
ENDCHAR
STARTCHAR 24E4
ENCODING 9444
SWIDTH 1000 0
DWIDTH 28 0
BBX 25 25 1 -2
BITMAP
007F0000
0380E000
04003000
08001800
10000400
20000200
60000300
43C38100
40C18100
80C18080
80C18080
80C18080
80C18080
80C18080
80C18080
80C18080
40638100
403CE100
40000200
20000200
10000400
08000800
06003000
0180C000
007F0000
ENDCHAR
STARTCHAR 24E5
ENCODING 9445
SWIDTH 1000 0
DWIDTH 28 0
BBX 26 25 1 -2
BITMAP
003F0000
01C0E000
02001000
0C000C00
18000600
30000200
20000100
40000080
43F1F080
C0C04040
80408040
80608040
80210040
80310040
80110040
801A0040
401A0080
400C0080
200C0100
20000100
10000200
08000400
06000800
01807000
007F8000
ENDCHAR
STARTCHAR 24E6
ENCODING 9446
SWIDTH 1000 0
DWIDTH 28 0
BBX 26 25 1 -2
BITMAP
003F0000
01C0E000
02001000
0C000C00
18000600
30000200
20000100
40000080
4F9F7C80
C3041040
81041040
818E2040
818A2040
80922040
80D34040
80D14040
4061C080
40618080
20208100
20000100
10000200
08000400
06000800
01807000
007F8000
ENDCHAR
STARTCHAR 24E7
ENCODING 9447
SWIDTH 1000 0
DWIDTH 28 0
BBX 26 25 1 -2
BITMAP
007F8000
0180E000
06001800
08000C00
10000600
20000300
60000100
41F3E080
40608080
80310040
801A0040
800C0040
800C0040
80160040
80330040
80618040
40C0C080
43F3F080
20000100
30000100
10000200
0C000400
06001800
01C06000
007F8000
ENDCHAR
STARTCHAR 24E8
ENCODING 9448
SWIDTH 1000 0
DWIDTH 28 0
BBX 26 25 1 -2
BITMAP
007F8000
0180F000
06001800
08000C00
10000200
20000300
61F1F100
40604080
40304080
80308040
80188040
80190040
800D0040
800E0040
80060040
C0040040
40040080
40E80080
20E80100
30700300
18000600
0C000C00
06001800
01C0E000
007F8000
ENDCHAR
STARTCHAR 24E9
ENCODING 9449
SWIDTH 1000 0
DWIDTH 28 0
BBX 25 25 2 -2
BITMAP
007F0000
0380E000
04003000
08001800
10000400
20000600
60000200
40FF8100
40C30100
80860080
80860080
800C0080
80180080
80300080
80208080
80608080
40C18100
40FF8100
40000200
20000200
10000400
08000800
04001000
0380E000
007F0000
ENDCHAR
STARTCHAR 24EB
ENCODING 9451
SWIDTH 1000 0
DWIDTH 28 0
BBX 26 26 1 -2
BITMAP
003F0000
01FFE000
03FFF000
0FFFF800
1FFFFC00
387E1E00
3E7F9F00
7E7F9F80
7E7F9F80
FE7F9F80
FE7F9FC0
FE7F9FC0
FE7F9FC0
FE7F9FC0
FE7F9FC0
FE7F9FC0
FE7F9FC0
7E7F9F80
7E7F9F80
3E7F9F00
381E0700
1FFFFE00
0FFFFC00
07FFF800
01FFE000
007F8000
ENDCHAR
STARTCHAR 24EC
ENCODING 9452
SWIDTH 1000 0
DWIDTH 28 0
BBX 26 25 1 -2
BITMAP
007F8000
01FFE000
07FFF800
0FFFFC00
1F7E1E00
387DCF00
7E79E700
7E78E780
7E78E780
FE7FE7C0
FE7FCFC0
FE7FCFC0
FE7F9FC0
FE7FBFC0
FE7F3FC0
FE7E7FC0
7E7EF780
7E7DF780
3E79F700
381A0700
1FFFFE00
0FFFFC00
07FFF800
01FFE000
007F8000
ENDCHAR
STARTCHAR 24ED
ENCODING 9453
SWIDTH 1000 0
DWIDTH 28 0
BBX 26 25 1 -2
BITMAP
003F0000
01FFE000
03FFF000
0FFFFC00
1FFE1E00
387DCF00
3E79E700
7E7BE780
7E79E780
FE7FE7C0
FE7FEFC0
FE7FDFC0
FE7FFFC0
FE7FEFC0
FE7FE7C0
FE7FE7C0
7E79E780
7E79E780
3E7BCF00
381E1F00
1FFFFE00
0FFFFC00
07FFF800
01FFE000
007F8000
ENDCHAR
STARTCHAR 24EE
ENCODING 9454
SWIDTH 1000 0
DWIDTH 28 0
BBX 26 25 1 -2
BITMAP
007F8000
03FFF000
07FFF800
0FFFFC00
1E7F9E00
387F9F00
7E7F9F80
7E7F9F80
7E7E9F80
FE7E9FC0
FE7D9FC0
FE7D9FC0
FE7B9FC0
FE7B9FC0
FE779FC0
FE7003C0
7E7F9F80
7E7F9F80
3E7F9F00
381E0700
1FFFFE00
0FFFFC00
07FFF800
01FFE000
007F8000
ENDCHAR
STARTCHAR 24EF
ENCODING 9455
SWIDTH 1000 0
DWIDTH 28 0
BBX 26 26 1 -2
BITMAP
003F0000
00FFE000
03FFF000
07FFF800
0FFFFE00
1E7C0600
387C0700
7E7DFF80
7E79FF80
7E79FF80
FE7BFFC0
FE7B0FC0
FE79E7C0
FE7BE3C0
FE7FF3C0
FE7FF3C0
FE7FF3C0
7E79F380
7E79E780
3E7BC700
381E1F00
1FFFFE00
0FFFFC00
07FFF800
01FFE000
007F8000
ENDCHAR
STARTCHAR 24F0
ENCODING 9456
SWIDTH 1000 0
DWIDTH 28 0
BBX 26 26 1 -2
BITMAP
003F8000
01FFE000
03FFF000
07FFFC00
1FFF0E00
187E6E00
3E7CE700
7E7DE780
7E7DE780
FE79FF80
FE79FFC0
FE790FC0
FE7AE7C0
FE79F3C0
FE79F3C0
FE79F3C0
FE79F3C0
7E79F380
7E7CF780
3E7CE700
381F0F00
1FFFFE00
0FFFFC00
07FFF800
01FFE000
007F8000
ENDCHAR
STARTCHAR 24F1
ENCODING 9457
SWIDTH 1000 0
DWIDTH 28 0
BBX 26 26 1 -2
BITMAP
003F0000
01FFC000
03FFF000
07FFF800
0FFFFC00
1E780600
38780700
7E7BFF80
7E7BEF80
FE7BEF80
FE7FDFC0
FE7FDFC0
FE7FDFC0
FE7F9FC0
FE7FBFC0
FE7FBFC0
FE7F3FC0
7E7F3F80
7E7F3F80
3E7F3F00
381F3F00
1FFFFE00
0FFFFC00
07FFF800
01FFE000
007F8000
ENDCHAR
STARTCHAR 24F2
ENCODING 9458
SWIDTH 1000 0
DWIDTH 28 0
BBX 26 26 1 -2
BITMAP
003F0000
01FFE000
03FFF000
0FFFFC00
1FFE1E00
187CCE00
3E79E700
7E79F780
7E79F780
FE79F780
FE7CEFC0
FE7E5FC0
FE7F3FC0
FE7C8FC0
FE79E7C0
FE73E3C0
FE73F3C0
7E73F380
7E73F380
3E79E700
381C1F00
1FFFFE00
0FFFFC00
07FFF800
01FFE000
007F8000
ENDCHAR
STARTCHAR 24F3
ENCODING 9459
SWIDTH 1000 0
DWIDTH 28 0
BBX 26 26 1 -2
BITMAP
003F0000
01FFE000
03FFF000
0FFFFC00
1FFE1E00
187DCE00
3E7DEF00
7E7BE780
7E7BF780
FE7BF780
FE7BF7C0
FE7BF7C0
FE79F7C0
FE7DF7C0
FE7E37C0
FE7FE7C0
FE7FEFC0
7E79EF80
7E79CF80
3E79DF00
381C3F00
1FFFFE00
0FFFFC00
07FFF800
01FFE000
007F8000
ENDCHAR
STARTCHAR 24F4
ENCODING 9460
SWIDTH 1000 0
DWIDTH 28 0
BBX 26 25 1 -2
BITMAP
007F8000
03FFE000
07FFF800
0FFFFC00
1C3F0E00
3B9E6700
73CE6700
71CCF380
71CCF380
FFCCF3C0
FF9CF3C0
FF9CF3C0
FF3CF3C0
FF7CF3C0
FEFCF3C0
FCFCF3C0
7DECF380
7BEEF780
33EE6700
340F6F00
1FFFFE00
0FFFFC00
07FFF800
01FFE000
007F8000
ENDCHAR
STARTCHAR 24F5
ENCODING 9461
SWIDTH 1000 0
DWIDTH 28 0
BBX 27 27 0 -3
BITMAP
007F8000
01807000
063F8800
08C06600
13001900
241E0500
28060280
48060240
50060140
90060140
A00600A0
A00600A0
A00600A0
A00600A0
A00600A0
A00600A0
90060140
50060140
48060240
68060280
241FC480
12000900
09803200
0460C400
031F1800
01C06000
003F8000
ENDCHAR
STARTCHAR 24F6
ENCODING 9462
SWIDTH 1000 0
DWIDTH 28 0
BBX 27 28 1 -3
BITMAP
003F8000
00C07000
033F9800
04C0E600
0B001B00
161F0D00
2C61C680
6840E2C0
50C06140
50E06140
B0E061A0
A000C0A0
A000C0A0
A00180A0
A00300A0
A00600A0
A00800A0
90102140
50202140
50406280
28FFE300
24FFE500
12000A00
09003400
04C0C800
033F1000
01C06000
003F8000
ENDCHAR
STARTCHAR 24F7
ENCODING 9463
SWIDTH 1000 0
DWIDTH 28 0
BBX 26 26 1 -3
BITMAP
007F8000
01BF6000
06C0D800
0B003400
141E0A00
28618500
30C0C500
60C0C280
60E0C280
C0E0C140
C0018140
C0030140
C01E0140
C0018140
C000C140
A0006140
E0C06280
50C06280
70C0E480
2861C900
343F1100
1B002200
0CC1C400
073E1800
01C06000
003F8000
ENDCHAR
STARTCHAR 24F8
ENCODING 9464
SWIDTH 1000 0
DWIDTH 28 0
BBX 26 27 1 -3
BITMAP
003F0000
01C0E000
023F1800
0CC0CC00
1B003600
16030A00
2C070500
78070480
500B0280
50130280
A0330140
A0630140
A0430140
A0830140
A1030140
A3030140
A3FFE140
50030280
50030280
68030580
240FC900
12001200
19002600
0CC0CC00
023F1000
01C0E000
003F0000
ENDCHAR
STARTCHAR 24F9
ENCODING 9465
SWIDTH 1000 0
DWIDTH 28 0
BBX 26 27 1 -3
BITMAP
003F0000
01C0E000
027F1000
0D80CC00
1E003600
187FCA00
307F8500
70400480
60400280
60400280
C0C00140
C0DF0140
C0E1C140
C0C0C140
C0006140
C0006140
A0006240
60C06280
50C0E480
70C0C580
28618900
141F1200
1B006600
0CC18C00
023E1000
01C0E000
003F0000
ENDCHAR
STARTCHAR 24FA
ENCODING 9466
SWIDTH 1000 0
DWIDTH 28 0
BBX 26 27 1 -3
BITMAP
003F0000
01C0E000
023F1000
0CC0CC00
1B003600
141F0A00
2830C500
7061C480
60C1C280
60C00280
C1C00140
C19E0140
C1A38140
C1C18140
C180C140
C180C140
A180C140
6180C280
50C0C280
70C18580
28630900
143E1200
1B002600
0CC1CC00
023E1000
01C0E000
003F0000
ENDCHAR
STARTCHAR 24FB
ENCODING 9467
SWIDTH 1000 0
DWIDTH 28 0
BBX 26 26 1 -3
BITMAP
00FF8000
03006000
0C7F9800
13806400
24001A00
48FFE500
50C04300
A0804280
A0808180
40818140
400100C0
400300C0
400200C0
400200C0
400600C0
40060140
A00C0140
A00C0180
500C0280
480C0500
240C0900
12003200
09C0C400
063F1800
01806000
007F8000
ENDCHAR
STARTCHAR 24FC
ENCODING 9468
SWIDTH 1000 0
DWIDTH 28 0
BBX 26 27 1 -3
BITMAP
003F0000
01C0E000
023F1000
0CC0CC00
1B003600
143E0A00
28618500
70C0C480
60C0C280
60C0C280
C0E18140
C0730140
C03E0140
C0370140
C0618140
C0C0C140
A1806140
61806280
51806280
71C0C580
28E1C900
143F1200
1B002600
0CC1CC00
023E1000
01C0E000
003F0000
ENDCHAR
STARTCHAR 24FD
ENCODING 9469
SWIDTH 1000 0
DWIDTH 28 0
BBX 26 27 1 -3
BITMAP
003F0000
01C0E000
023F1000
0CC0CC00
1B003600
141F0A00
28718500
70E0C480
60C0C280
60C06280
C0C06140
C0C06140
C0E0E140
C071E140
C01E6140
C0006140
A000E140
60E0C280
50E0C280
70C18580
28630900
143E1200
1B002600
0CC1CC00
023E1000
01C0E000
003F0000
ENDCHAR
STARTCHAR 24FE
ENCODING 9470
SWIDTH 1000 0
DWIDTH 28 0
BBX 27 27 1 -3
BITMAP
003F8000
01C07000
033F9800
04C0E600
0B001B00
1441ED00
2BC33680
70C332C0
60C21140
60C61940
C0C618A0
C0C618A0
C0C618A0
C0C618A0
C0C618A0
C0C618A0
A0C61940
60C21140
50C33240
70C33280
2BF1E500
14000900
1B003200
0CC0C400
033F1800
01C06000
003F8000
ENDCHAR
STARTCHAR 2500
ENCODING 9472
SWIDTH 1000 0
DWIDTH 28 0
BBX 28 1 0 10
BITMAP
FFFFFFF0
ENDCHAR
STARTCHAR 2501
ENCODING 9473
SWIDTH 1000 0
DWIDTH 28 0
BBX 28 3 0 9
BITMAP
FFFFFFF0
FFFFFFF0
FFFFFFF0
ENDCHAR
STARTCHAR 2502
ENCODING 9474
SWIDTH 1000 0
DWIDTH 28 0
BBX 1 28 13 -3
BITMAP
80
80
80
80
80
80
80
80
80
80
80
80
80
80
80
80
80
80
80
80
80
80
80
80
80
80
80
80
ENDCHAR
STARTCHAR 2503
ENCODING 9475
SWIDTH 1000 0
DWIDTH 28 0
BBX 3 28 12 -3
BITMAP
E0
E0
E0
E0
E0
E0
E0
E0
E0
E0
E0
E0
E0
E0
E0
E0
E0
E0
E0
E0
E0
E0
E0
E0
E0
E0
E0
E0
ENDCHAR
STARTCHAR 250C
ENCODING 9484
SWIDTH 1000 0
DWIDTH 28 0
BBX 15 14 13 -3
BITMAP
FFFE
8000
8000
8000
8000
8000
8000
8000
8000
8000
8000
8000
8000
8000
ENDCHAR
STARTCHAR 250F
ENCODING 9487
SWIDTH 1000 0
DWIDTH 28 0
BBX 16 15 12 -3
BITMAP
FFFF
FFFF
FFFF
E000
E000
E000
E000
E000
E000
E000
E000
E000
E000
E000
E000
ENDCHAR
STARTCHAR 2510
ENCODING 9488
SWIDTH 1000 0
DWIDTH 28 0
BBX 15 14 0 -3
BITMAP
FFFE
0002
0002
0002
0002
0002
0002
0002
0002
0002
0002
0002
0002
0002
ENDCHAR
STARTCHAR 2513
ENCODING 9491
SWIDTH 1000 0
DWIDTH 28 0
BBX 16 15 0 -3
BITMAP
FFFF
FFFF
FFFF
0007
0007
0007
0007
0007
0007
0007
0007
0007
0007
0007
0007
ENDCHAR
STARTCHAR 2514
ENCODING 9492
SWIDTH 1000 0
DWIDTH 28 0
BBX 15 15 13 10
BITMAP
8000
8000
8000
8000
8000
8000
8000
8000
8000
8000
8000
8000
8000
8000
FFFE
ENDCHAR
STARTCHAR 2517
ENCODING 9495
SWIDTH 1000 0
DWIDTH 28 0
BBX 16 16 12 9
BITMAP
E000
E000
E000
E000
E000
E000
E000
E000
E000
E000
E000
E000
E000
FFFF
FFFF
FFFF
ENDCHAR
STARTCHAR 2518
ENCODING 9496
SWIDTH 1000 0
DWIDTH 28 0
BBX 15 15 0 10
BITMAP
0002
0002
0002
0002
0002
0002
0002
0002
0002
0002
0002
0002
0002
0002
FFFE
ENDCHAR
STARTCHAR 251B
ENCODING 9499
SWIDTH 1000 0
DWIDTH 28 0
BBX 16 16 0 9
BITMAP
0007
0007
0007
0007
0007
0007
0007
0007
0007
0007
0007
0007
0007
FFFF
FFFF
FFFF
ENDCHAR
STARTCHAR 251C
ENCODING 9500
SWIDTH 1000 0
DWIDTH 28 0
BBX 15 28 13 -3
BITMAP
8000
8000
8000
8000
8000
8000
8000
8000
8000
8000
8000
8000
8000
8000
FFFE
8000
8000
8000
8000
8000
8000
8000
8000
8000
8000
8000
8000
8000
ENDCHAR
STARTCHAR 251D
ENCODING 9501
SWIDTH 1000 0
DWIDTH 28 0
BBX 15 28 13 -3
BITMAP
8000
8000
8000
8000
8000
8000
8000
8000
8000
8000
8000
8000
8000
FFFE
FFFE
FFFE
8000
8000
8000
8000
8000
8000
8000
8000
8000
8000
8000
8000
ENDCHAR
STARTCHAR 2520
ENCODING 9504
SWIDTH 1000 0
DWIDTH 28 0
BBX 16 28 12 -3
BITMAP
E000
E000
E000
E000
E000
E000
E000
E000
E000
E000
E000
E000
E000
E000
FFFF
E000
E000
E000
E000
E000
E000
E000
E000
E000
E000
E000
E000
E000
ENDCHAR
STARTCHAR 2523
ENCODING 9507
SWIDTH 1000 0
DWIDTH 28 0
BBX 16 28 12 -3
BITMAP
E000
E000
E000
E000
E000
E000
E000
E000
E000
E000
E000
E000
E000
FFFF
FFFF
FFFF
E000
E000
E000
E000
E000
E000
E000
E000
E000
E000
E000
E000
ENDCHAR
STARTCHAR 2524
ENCODING 9508
SWIDTH 1000 0
DWIDTH 28 0
BBX 15 28 0 -3
BITMAP
0002
0002
0002
0002
0002
0002
0002
0002
0002
0002
0002
0002
0002
0002
FFFE
0002
0002
0002
0002
0002
0002
0002
0002
0002
0002
0002
0002
0002
ENDCHAR
STARTCHAR 2525
ENCODING 9509
SWIDTH 1000 0
DWIDTH 28 0
BBX 15 28 0 -3
BITMAP
0002
0002
0002
0002
0002
0002
0002
0002
0002
0002
0002
0002
0002
FFFE
FFFE
FFFE
0002
0002
0002
0002
0002
0002
0002
0002
0002
0002
0002
0002
ENDCHAR
STARTCHAR 2528
ENCODING 9512
SWIDTH 1000 0
DWIDTH 28 0
BBX 16 28 0 -3
BITMAP
0007
0007
0007
0007
0007
0007
0007
0007
0007
0007
0007
0007
0007
0007
FFFF
0007
0007
0007
0007
0007
0007
0007
0007
0007
0007
0007
0007
0007
ENDCHAR
STARTCHAR 252B
ENCODING 9515
SWIDTH 1000 0
DWIDTH 28 0
BBX 16 28 0 -3
BITMAP
0007
0007
0007
0007
0007
0007
0007
0007
0007
0007
0007
0007
0007
FFFF
FFFF
FFFF
0007
0007
0007
0007
0007
0007
0007
0007
0007
0007
0007
0007
ENDCHAR
STARTCHAR 252C
ENCODING 9516
SWIDTH 1000 0
DWIDTH 28 0
BBX 28 14 0 -3
BITMAP
FFFFFFF0
00040000
00040000
00040000
00040000
00040000
00040000
00040000
00040000
00040000
00040000
00040000
00040000
00040000
ENDCHAR
STARTCHAR 252F
ENCODING 9519
SWIDTH 1000 0
DWIDTH 28 0
BBX 28 15 0 -3
BITMAP
FFFFFFF0
FFFFFFF0
FFFFFFF0
00040000
00040000
00040000
00040000
00040000
00040000
00040000
00040000
00040000
00040000
00040000
00040000
ENDCHAR
STARTCHAR 2530
ENCODING 9520
SWIDTH 1000 0
DWIDTH 28 0
BBX 28 14 0 -3
BITMAP
FFFFFFF0
000E0000
000E0000
000E0000
000E0000
000E0000
000E0000
000E0000
000E0000
000E0000
000E0000
000E0000
000E0000
000E0000
ENDCHAR
STARTCHAR 2533
ENCODING 9523
SWIDTH 1000 0
DWIDTH 28 0
BBX 28 15 0 -3
BITMAP
FFFFFFF0
FFFFFFF0
FFFFFFF0
000E0000
000E0000
000E0000
000E0000
000E0000
000E0000
000E0000
000E0000
000E0000
000E0000
000E0000
000E0000
ENDCHAR
STARTCHAR 2534
ENCODING 9524
SWIDTH 1000 0
DWIDTH 28 0
BBX 28 15 0 10
BITMAP
00040000
00040000
00040000
00040000
00040000
00040000
00040000
00040000
00040000
00040000
00040000
00040000
00040000
00040000
FFFFFFF0
ENDCHAR
STARTCHAR 2537
ENCODING 9527
SWIDTH 1000 0
DWIDTH 28 0
BBX 28 16 0 9
BITMAP
00040000
00040000
00040000
00040000
00040000
00040000
00040000
00040000
00040000
00040000
00040000
00040000
00040000
FFFFFFF0
FFFFFFF0
FFFFFFF0
ENDCHAR
STARTCHAR 2538
ENCODING 9528
SWIDTH 1000 0
DWIDTH 28 0
BBX 28 15 0 10
BITMAP
000E0000
000E0000
000E0000
000E0000
000E0000
000E0000
000E0000
000E0000
000E0000
000E0000
000E0000
000E0000
000E0000
000E0000
FFFFFFF0
ENDCHAR
STARTCHAR 253B
ENCODING 9531
SWIDTH 1000 0
DWIDTH 28 0
BBX 28 16 0 9
BITMAP
000E0000
000E0000
000E0000
000E0000
000E0000
000E0000
000E0000
000E0000
000E0000
000E0000
000E0000
000E0000
000E0000
FFFFFFF0
FFFFFFF0
FFFFFFF0
ENDCHAR
STARTCHAR 253C
ENCODING 9532
SWIDTH 1000 0
DWIDTH 28 0
BBX 28 28 0 -3
BITMAP
00040000
00040000
00040000
00040000
00040000
00040000
00040000
00040000
00040000
00040000
00040000
00040000
00040000
00040000
FFFFFFF0
00040000
00040000
00040000
00040000
00040000
00040000
00040000
00040000
00040000
00040000
00040000
00040000
00040000
ENDCHAR
STARTCHAR 253F
ENCODING 9535
SWIDTH 1000 0
DWIDTH 28 0
BBX 28 28 0 -3
BITMAP
00040000
00040000
00040000
00040000
00040000
00040000
00040000
00040000
00040000
00040000
00040000
00040000
00040000
FFFFFFF0
FFFFFFF0
FFFFFFF0
00040000
00040000
00040000
00040000
00040000
00040000
00040000
00040000
00040000
00040000
00040000
00040000
ENDCHAR
STARTCHAR 2542
ENCODING 9538
SWIDTH 1000 0
DWIDTH 28 0
BBX 28 28 0 -3
BITMAP
000E0000
000E0000
000E0000
000E0000
000E0000
000E0000
000E0000
000E0000
000E0000
000E0000
000E0000
000E0000
000E0000
000E0000
FFFFFFF0
000E0000
000E0000
000E0000
000E0000
000E0000
000E0000
000E0000
000E0000
000E0000
000E0000
000E0000
000E0000
000E0000
ENDCHAR
STARTCHAR 254B
ENCODING 9547
SWIDTH 1000 0
DWIDTH 28 0
BBX 28 28 0 -3
BITMAP
000E0000
000E0000
000E0000
000E0000
000E0000
000E0000
000E0000
000E0000
000E0000
000E0000
000E0000
000E0000
000E0000
FFFFFFF0
FFFFFFF0
FFFFFFF0
000E0000
000E0000
000E0000
000E0000
000E0000
000E0000
000E0000
000E0000
000E0000
000E0000
000E0000
000E0000
ENDCHAR
STARTCHAR 25A0
ENCODING 9632
SWIDTH 1000 0
DWIDTH 28 0
BBX 20 21 4 0
BITMAP
FFFFF0
FFFFF0
FFFFF0
FFFFF0
FFFFF0
FFFFF0
FFFFF0
FFFFF0
FFFFF0
FFFFF0
FFFFF0
FFFFF0
FFFFF0
FFFFF0
FFFFF0
FFFFF0
FFFFF0
FFFFF0
FFFFF0
FFFFF0
FFFFF0
ENDCHAR
STARTCHAR 25A1
ENCODING 9633
SWIDTH 1000 0
DWIDTH 28 0
BBX 20 21 4 0
BITMAP
FFFFF0
800010
800010
800010
800010
800010
800010
800010
800010
800010
800010
800010
800010
800010
800010
800010
800010
800010
800010
800010
FFFFF0
ENDCHAR
STARTCHAR 25B1
ENCODING 9649
SWIDTH 500 0
DWIDTH 14 0
BBX 12 5 1 8
BITMAP
1FF0
2020
2040
4040
FF80
ENDCHAR
STARTCHAR 25B2
ENCODING 9650
SWIDTH 1000 0
DWIDTH 28 0
BBX 22 22 3 0
BITMAP
002000
003000
003000
007800
007800
00FC00
00FC00
01FE00
01FE00
03FF00
03FF00
07FF80
07FF80
0FFFC0
0FFFC0
1FFFE0
1FFFE0
3FFFF0
7FFFF8
7FFFF8
FFFFFC
FFFFFC
ENDCHAR
STARTCHAR 25B3
ENCODING 9651
SWIDTH 1000 0
DWIDTH 28 0
BBX 22 22 3 0
BITMAP
002000
003000
003000
007800
004800
00CC00
008400
018600
010200
030300
020100
060180
040080
0C0040
080040
180020
100020
200010
600018
400008
C0000C
FFFFFC
ENDCHAR
STARTCHAR 25B6
ENCODING 9654
SWIDTH 500 0
DWIDTH 14 0
BBX 11 15 2 3
BITMAP
8000
E000
F000
FC00
FE00
FF80
FFC0
FFE0
FFC0
FF00
FE00
F800
F000
E000
8000
ENDCHAR
STARTCHAR 25B7
ENCODING 9655
SWIDTH 500 0
DWIDTH 14 0
BBX 11 15 2 3
BITMAP
8000
E000
B000
8C00
8600
8180
80C0
8060
80C0
8300
8600
9800
B000
E000
8000
ENDCHAR
STARTCHAR 25BC
ENCODING 9660
SWIDTH 1000 0
DWIDTH 28 0
BBX 22 22 3 -1
BITMAP
FFFFFC
FFFFFC
7FFFF8
7FFFF8
3FFFF0
1FFFE0
1FFFE0
0FFFC0
0FFFC0
07FF80
07FF80
03FF00
03FF00
01FE00
01FE00
00FC00
00FC00
007800
007800
003000
003000
002000
ENDCHAR
STARTCHAR 25BD
ENCODING 9661
SWIDTH 1000 0
DWIDTH 28 0
BBX 22 22 3 -1
BITMAP
FFFFFC
C0000C
400008
200018
200010
100020
100020
080040
0C00C0
040080
060180
020100
030300
010200
018600
008400
00CC00
004800
007800
003000
003000
002000
ENDCHAR
STARTCHAR 25C0
ENCODING 9664
SWIDTH 500 0
DWIDTH 14 0
BBX 11 16 1 2
BITMAP
0020
0060
00E0
01E0
07E0
0FE0
3FE0
7FE0
FFE0
7FE0
1FE0
0FE0
03E0
01E0
00E0
0020
ENDCHAR
STARTCHAR 25C1
ENCODING 9665
SWIDTH 500 0
DWIDTH 14 0
BBX 11 16 1 2
BITMAP
0020
0020
00E0
01A0
0620
0C20
3020
6020
C020
6020
1820
0C20
0320
01A0
0060
0020
ENDCHAR
STARTCHAR 25C6
ENCODING 9670
SWIDTH 1000 0
DWIDTH 28 0
BBX 26 25 1 -2
BITMAP
000C0000
001E0000
003F0000
007F8000
00FFC000
01FFE000
03FFF000
07FFF800
0FFFFC00
1FFFFE00
3FFFFF00
7FFFFF80
FFFFFFC0
7FFFFF80
3FFFFF00
1FFFFE00
0FFFFC00
07FFF800
03FFF000
01FFE000
00FFC000
007F8000
003F0000
001E0000
000C0000
ENDCHAR
STARTCHAR 25C7
ENCODING 9671
SWIDTH 1000 0
DWIDTH 28 0
BBX 26 25 1 -2
BITMAP
000C0000
001E0000
00330000
00618000
00C0C000
01806000
03003000
06001800
0C000C00
18000600
30000300
60000180
C00000C0
60000180
30000300
18000600
0C000C00
06001800
03003000
01806000
00C0C000
00618000
00330000
001E0000
000C0000
ENDCHAR
STARTCHAR 25C9
ENCODING 9673
SWIDTH 500 0
DWIDTH 14 0
BBX 12 13 1 4
BITMAP
0F00
30C0
6060
4720
8F90
9FD0
9FD0
9FD0
8F90
4720
6060
30C0
0F00
ENDCHAR
STARTCHAR 25CB
ENCODING 9675
SWIDTH 1000 0
DWIDTH 28 0
BBX 24 23 2 -1
BITMAP
00FE00
0381C0
060060
180018
30000C
200004
400002
400002
800001
800001
800001
800001
800001
800001
C00003
400002
600002
200004
300008
180018
060020
0381C0
007F00
ENDCHAR
STARTCHAR 25CE
ENCODING 9678
SWIDTH 1000 0
DWIDTH 28 0
BBX 24 23 2 -1
BITMAP
007E00
0381C0
040020
180010
107C08
20C304
410182
4200C2
860061
840021
840021
840021
840021
860021
820043
410082
40C306
207E04
300008
180010
040060
0381C0
007E00
ENDCHAR
STARTCHAR 25CF
ENCODING 9679
SWIDTH 1000 0
DWIDTH 28 0
BBX 23 23 2 -1
BITMAP
00FE00
03FF80
0FFFE0
1FFFF0
3FFFF8
3FFFF8
7FFFFC
7FFFFC
FFFFFE
FFFFFE
FFFFFE
FFFFFE
FFFFFE
FFFFFE
FFFFFE
7FFFFC
7FFFFC
3FFFF8
3FFFF8
1FFFF0
0FFFE0
03FF80
00FE00
ENDCHAR
STARTCHAR 25D0
ENCODING 9680
SWIDTH 500 0
DWIDTH 14 0
BBX 12 13 1 4
BITMAP
0F00
3CC0
7C60
7C20
FC10
FC10
FC10
FC10
FC10
7C20
7C60
3DC0
0F00
ENDCHAR
STARTCHAR 25D1
ENCODING 9681
SWIDTH 500 0
DWIDTH 14 0
BBX 12 13 1 4
BITMAP
0F00
33C0
63E0
43E0
83F0
83F0
83F0
83F0
83F0
43E0
63E0
3BC0
0F00
ENDCHAR
STARTCHAR 25D2
ENCODING 9682
SWIDTH 500 0
DWIDTH 14 0
BBX 12 12 1 5
BITMAP
0F00
30C0
4020
4020
8010
8010
FFF0
FFF0
7FE0
7FE0
3FC0
0F00
ENDCHAR
STARTCHAR 25D3
ENCODING 9683
SWIDTH 500 0
DWIDTH 14 0
BBX 12 12 1 5
BITMAP
0F00
3FC0
7FE0
7FE0
FFF0
FFF0
8010
8010
8030
4020
30C0
0F80
ENDCHAR
STARTCHAR 25E6
ENCODING 9702
SWIDTH 500 0
DWIDTH 14 0
BBX 6 7 4 7
BITMAP
70
48
84
84
84
48
78
ENDCHAR
STARTCHAR 25EF
ENCODING 9711
SWIDTH 1000 0
DWIDTH 28 0
BBX 26 25 1 -2
BITMAP
007F8000
0180E000
06001800
08000C00
10000600
20000300
60000100
40000080
40000080
80000040
80000040
80000040
80000040
80000040
80000040
80000040
40000080
40000080
20000100
30000300
18000200
0C000C00
06001800
01C0E000
007F8000
ENDCHAR
STARTCHAR 2600
ENCODING 9728
SWIDTH 1000 0
DWIDTH 28 0
BBX 26 26 1 -2
BITMAP
00080000
00080000
00080000
10080400
08080600
04000800
023E1000
037FA000
00FFC000
01FFE000
03FFF000
03FFF000
03FFF000
FBFFF7C0
03FFF000
03FFF000
01FFE000
00FFC000
027FA000
033F3000
04000800
08080400
10080600
00080000
00080000
00080000
ENDCHAR
STARTCHAR 2601
ENCODING 9729
SWIDTH 1000 0
DWIDTH 28 0
BBX 24 19 2 -1
BITMAP
00F800
03FE00
03FF00
07FF00
07FF80
07FF9C
07FFFE
07FFFF
1FFFFF
7FFFFF
7FFFFE
FFFFFC
FFFFFE
FFFFFF
FFEFFF
7FCFFF
7F87FF
1E03FE
0000F8
ENDCHAR
STARTCHAR 2602
ENCODING 9730
SWIDTH 1000 0
DWIDTH 28 0
BBX 25 25 2 -2
BITMAP
00080000
00080000
00FF8000
03FFE000
0FFFF800
1FFFFC00
3FFFFE00
3FFFFE00
7FFFFF00
4F1C7900
86083080
82082080
02082080
00080000
00080000
00080000
00080000
00080000
00080000
00080000
00080000
00080000
00880000
00880000
00700000
ENDCHAR
STARTCHAR 2603
ENCODING 9731
SWIDTH 1000 0
DWIDTH 28 0
BBX 26 26 1 -2
BITMAP
C0180000
4018C1C0
830120C0
05021000
02040800
00080400
70380400
30CC0B80
03031280
0200F100
04000800
04330800
64330800
62001000
013F21C0
02003140
CC000880
50000400
A00C0200
200C0200
20000200
20000200
200C0200
100C0400
0C000C00
03FFF000
ENDCHAR
STARTCHAR 2605
ENCODING 9733
SWIDTH 1000 0
DWIDTH 28 0
BBX 26 26 1 -3
BITMAP
00080000
00080000
000C0000
000C0000
000C0000
001E0000
001E0000
001E0000
003F0000
003F0000
FFFFFFC0
3FFFFF00
1FFFFE00
07FFF800
03FFF000
01FFE000
00FFC000
01FFE000
01FFE000
03FFE000
03F3F000
03E0F000
07807000
07003800
06001800
08000400
ENDCHAR
STARTCHAR 2606
ENCODING 9734
SWIDTH 1000 0
DWIDTH 28 0
BBX 26 26 1 -3
BITMAP
00080000
00080000
000C0000
000C0000
000C0000
00120000
00120000
00120000
00310000
00210000
FFE1FFC0
20000100
18000600
04000800
03003000
01806000
00804000
01002000
01082000
031C2000
02331000
02619000
06805000
07003800
06001800
08000C00
ENDCHAR
STARTCHAR 260E
ENCODING 9742
SWIDTH 1000 0
DWIDTH 28 0
BBX 26 21 1 0
BITMAP
07FFF800
1FFFFE00
3FFFFF00
7EE1DF80
78E1C780
F8E1C7C0
F8FFC7C0
01FFE000
03E1F000
07807000
07807800
07003800
0F003800
0F003C00
1F003E00
3F807F00
3F80FF00
7FE1FF80
7FFFFF80
7FFFFF80
7FFFFF80
ENDCHAR
STARTCHAR 2616
ENCODING 9750
SWIDTH 1000 0
DWIDTH 28 0
BBX 22 22 3 1
BITMAP
007800
00CC00
030300
0E00C0
180060
200010
200010
600010
600018
600008
400008
400008
400008
400008
400008
400008
C0000C
C0000C
C00004
800004
800004
FFFFFC
ENDCHAR
STARTCHAR 2617
ENCODING 9751
SWIDTH 1000 0
DWIDTH 28 0
BBX 22 23 3 0
BITMAP
002000
007800
01FE00
03FF00
0FFFC0
3FFFF0
3FFFF0
3FFFF0
7FFFF8
7FFFF8
7FFFF8
7FFFF8
7FFFF8
7FFFF8
7FFFF8
7FFFF8
7FFFF8
FFFFFC
FFFFFC
FFFFFC
FFFFFC
FFFFFC
FFFFFC
ENDCHAR
STARTCHAR 261E
ENCODING 9758
SWIDTH 1000 0
DWIDTH 28 0
BBX 24 11 2 5
BITMAP
78FFFE
8F0201
8C0302
883FFC
8FC110
900E90
900A60
981520
9618C0
8DCC80
783F00
ENDCHAR
STARTCHAR 2640
ENCODING 9792
SWIDTH 1000 0
DWIDTH 28 0
BBX 18 25 5 -2
BITMAP
03E000
0C1800
180C00
100400
200200
200200
200200
200200
300600
180C00
0C1800
07F000
008000
008000
008000
008000
FFFFC0
008000
008000
008000
008000
008000
008000
008000
008000
ENDCHAR
STARTCHAR 2642
ENCODING 9794
SWIDTH 1000 0
DWIDTH 28 0
BBX 23 23 2 -1
BITMAP
0007FE
000006
00000A
000012
000022
000042
000082
000102
000202
000402
0F8800
305000
602000
401000
800800
800800
800800
800800
800800
401000
603000
306000
0F8000
ENDCHAR
STARTCHAR 2660
ENCODING 9824
SWIDTH 500 0
DWIDTH 14 0
BBX 12 16 1 4
BITMAP
0600
0600
0F00
1F80
3FC0
3FC0
7FE0
7FE0
FFF0
FFF0
FFF0
FFF0
76E0
0F00
0F00
0F00
ENDCHAR
STARTCHAR 2661
ENCODING 9825
SWIDTH 500 0
DWIDTH 14 0
BBX 12 15 1 2
BITMAP
79E0
CF30
8610
8410
8010
8010
8030
4020
4020
2040
2040
1080
0900
0F00
0600
ENDCHAR
STARTCHAR 2662
ENCODING 9826
SWIDTH 500 0
DWIDTH 14 0
BBX 12 18 1 1
BITMAP
0400
0600
0600
0900
1880
1080
2040
6060
4020
C030
4020
2040
2040
1080
0980
0900
0600
0600
ENDCHAR
STARTCHAR 2663
ENCODING 9827
SWIDTH 500 0
DWIDTH 14 0
BBX 14 16 0 3
BITMAP
0780
0F80
0FC0
0FC0
0FC0
0780
3FF0
7FF8
FFFC
FFFC
FFFC
7FF8
3FF0
0780
0780
0780
ENDCHAR
STARTCHAR 2664
ENCODING 9828
SWIDTH 500 0
DWIDTH 14 0
BBX 12 16 1 4
BITMAP
0600
0F00
0900
1080
2040
2040
4020
8020
8010
8010
8A10
C930
7AE0
0900
0900
0F00
ENDCHAR
STARTCHAR 2665
ENCODING 9829
SWIDTH 500 0
DWIDTH 14 0
BBX 12 15 1 2
BITMAP
79E0
FFF0
FFF0
FFF0
FFF0
FFF0
FFF0
7FE0
7FE0
3FC0
3FC0
1F80
0F00
0F00
0600
ENDCHAR
STARTCHAR 2666
ENCODING 9830
SWIDTH 500 0
DWIDTH 14 0
BBX 12 18 1 1
BITMAP
0400
0600
0600
0F00
1F80
1F80
3FC0
7FE0
7FE0
FFF0
7FE0
3FC0
3FC0
1F80
0F80
0F00
0600
0600
ENDCHAR
STARTCHAR 2667
ENCODING 9831
SWIDTH 500 0
DWIDTH 14 0
BBX 14 15 0 3
BITMAP
0780
0CC0
0840
0840
0840
34B0
4CC8
8004
8004
8004
4488
3CF0
0480
0480
0780
ENDCHAR
STARTCHAR 2668
ENCODING 9832
SWIDTH 1000 0
DWIDTH 28 0
BBX 24 21 2 2
BITMAP
001000
062040
042080
042080
042080
042080
043080
021040
021840
030860
010C20
110428
610426
810421
820441
840841
801003
402006
30001C
1C00F0
03FF80
ENDCHAR
STARTCHAR 2669
ENCODING 9833
SWIDTH 500 0
DWIDTH 14 0
BBX 5 16 3 2
BITMAP
08
08
08
08
08
08
08
08
08
08
08
08
78
F8
F8
70
ENDCHAR
STARTCHAR 266A
ENCODING 9834
SWIDTH 1000 0
DWIDTH 28 0
BBX 18 24 6 -1
BITMAP
010000
010000
018000
01C000
01E000
017000
013C00
010E00
010700
010380
0101C0
0100C0
0100C0
0100C0
010080
010100
010200
010400
010000
3F0000
7F0000
FF0000
FE0000
7C0000
ENDCHAR
STARTCHAR 266B
ENCODING 9835
SWIDTH 500 0
DWIDTH 14 0
BBX 13 17 0 2
BITMAP
0008
00F8
0FF8
0F88
0808
0808
0808
0808
0808
0808
0808
0808
0878
78F8
F8F0
F800
F000
ENDCHAR
STARTCHAR 266C
ENCODING 9836
SWIDTH 500 0
DWIDTH 14 0
BBX 13 17 0 2
BITMAP
0008
00F8
0FF8
0F08
08F8
0FF8
0E08
0808
0808
0808
0808
0808
0878
78F8
F8F0
F800
F000
ENDCHAR
STARTCHAR 266D
ENCODING 9837
SWIDTH 1000 0
DWIDTH 28 0
BBX 10 24 10 -1
BITMAP
8000
8000
8000
8000
8000
8000
8000
8000
8F00
B180
C0C0
80C0
80C0
80C0
80C0
8180
8180
8300
8600
8400
9800
B000
C000
8000
ENDCHAR
STARTCHAR 266E
ENCODING 9838
SWIDTH 500 0
DWIDTH 14 0
BBX 6 15 4 3
BITMAP
80
80
80
9C
FC
C4
84
84
84
BC
FC
84
04
04
04
ENDCHAR
STARTCHAR 266F
ENCODING 9839
SWIDTH 1000 0
DWIDTH 28 0
BBX 16 24 6 -1
BITMAP
0010
0810
0810
0810
0810
0813
083F
0FFC
FF90
F810
0810
0810
0810
0811
081F
09FF
3FF0
FC10
C810
0810
0810
0810
0810
0800
ENDCHAR
STARTCHAR 2713
ENCODING 10003
SWIDTH 1000 0
DWIDTH 28 0
BBX 19 18 6 3
BITMAP
000060
000040
000080
000100
000200
000600
000C00
000800
001000
002000
406000
E0C000
E18000
630000
760000
3C0000
380000
100000
ENDCHAR
STARTCHAR 2756
ENCODING 10070
SWIDTH 1000 0
DWIDTH 28 0
BBX 26 25 1 -2
BITMAP
000C0000
001E0000
003F0000
007F8000
00FFC000
01FFE000
00FFC000
067F9800
0F3F3C00
1F9E7E00
3FCCFF00
7FE1FF80
FFF3FFC0
7FE1FF80
3FCCFF00
1F9E7E00
0F3F3C00
067F9800
00FFC000
01FFE000
00FFC000
007F8000
003F0000
001E0000
000C0000
ENDCHAR
STARTCHAR 2776
ENCODING 10102
SWIDTH 1000 0
DWIDTH 28 0
BBX 26 25 1 -2
BITMAP
007F0000
01FFE000
07FFF000
0FFFFC00
1FF3FE00
3F83FF00
3FF3FF00
7FF3FF80
7FF3FF80
FFF3FFC0
FFF3FFC0
FFF3FFC0
FFF3FFC0
FFF3FFC0
FFF3FFC0
FFF3FFC0
7FF3FF80
7FF3FF80
3FF3FF00
3FF3FF00
1F807E00
0FFFFC00
07FFF800
01FFE000
007F8000
ENDCHAR
STARTCHAR 2777
ENCODING 10103
SWIDTH 1000 0
DWIDTH 28 0
BBX 26 26 1 -2
BITMAP
003F0000
01FFC000
03FFF000
0FFFF800
1FC0FC00
1F9E3E00
3F3F3F00
7E7F9F80
7E3F9F80
FE3F9F80
FFFF3FC0
FFFF3FC0
FFFE7FC0
FFFCFFC0
FFF9FFC0
FFF3FFC0
FFEFDFC0
7FDFDF80
7FBFDF80
3F7F9F00
3E001F00
1E001E00
0FFFFC00
07FFF800
01FFE000
007F8000
ENDCHAR
STARTCHAR 2778
ENCODING 10104
SWIDTH 1000 0
DWIDTH 28 0
BBX 26 26 1 -2
BITMAP
003F0000
00FFE000
03FFF000
07FFF800
0FC1FE00
1F9E7E00
3F3F3F00
7F1FBF80
7F1FBF80
FFFFBF80
FFFF3FC0
FFFE7FC0
FFE1FFC0
FFE2FFC0
FFFE3FC0
FFFF1FC0
FFFF9FC0
7E3F9F80
7E3F9F80
3E3F9F00
3E7F3F00
1F1E7E00
0FC0FC00
07FFF800
01FFE000
007F8000
ENDCHAR
STARTCHAR 2779
ENCODING 10105
SWIDTH 1000 0
DWIDTH 28 0
BBX 24 25 2 -2
BITMAP
007E00
03FFC0
07FFE0
0FFFF0
1FF9F8
3FF1FC
7FF9FC
7FE9FE
7FD9FE
FFB9FF
FFB9FF
FF79FF
FEF9FF
FDF9FF
FDF9FF
FA003F
7FF9FE
7FF9FE
3FF9FC
3FF9FC
1FE078
0FFFF0
07FFE0
03FFC0
007E00
ENDCHAR
STARTCHAR 277A
ENCODING 10106
SWIDTH 1000 0
DWIDTH 28 0
BBX 26 25 1 -2
BITMAP
007F8000
01FFE000
07FFF800
0FFFFC00
1F803E00
3F803F00
7FBFFF00
7FBFFF80
7F3FFF80
FF3FFFC0
FF20FFC0
FF5E7FC0
FF3F3FC0
FFFF9FC0
FFFF9FC0
FFFF9FC0
7E3F9F80
7E3F9F80
3E3F3F00
3E7E3F00
1F1C7E00
0FC1FC00
07FFF800
01FFE000
007F8000
ENDCHAR
STARTCHAR 277B
ENCODING 10107
SWIDTH 1000 0
DWIDTH 28 0
BBX 26 25 1 -2
BITMAP
007F8000
01FFE000
07FFF800
0FFFFC00
1FE0FE00
3FCF3F00
7F9E3F00
7F3E3F80
7F3FFF80
FF3FFFC0
FE70FFC0
FE5E3FC0
FE3F3FC0
FE7F9FC0
FE7F9FC0
FE7F9FC0
7E7F9F80
7F3F9F80
3F3F3F00
3F9E7F00
1FE0FE00
0FFFFC00
07FFF800
01FFE000
007F8000
ENDCHAR
STARTCHAR 277C
ENCODING 10108
SWIDTH 1000 0
DWIDTH 28 0
BBX 26 26 1 -2
BITMAP
003F0000
00FFC000
03FFF000
07FFF800
0FFFFC00
1F001E00
3F001F00
7F3FFF80
7F7FBF80
7F7F7F80
FF7E7FC0
FFFEFFC0
FFFCFFC0
FFFCFFC0
FFFDFFC0
FFF9FFC0
FFF9FFC0
7FFBFF80
7FF3FF80
3FF3FF00
3FF3FF00
1FF3FE00
0FFFFC00
07FFF800
01FFE000
007F8000
ENDCHAR
STARTCHAR 277D
ENCODING 10109
SWIDTH 1000 0
DWIDTH 28 0
BBX 26 25 1 -2
BITMAP
007F8000
01FFE000
07FFF800
0FFFFC00
1FC0FE00
3F9E7F00
7F3F3F00
7F3F3F80
7F3F3F80
FF1E7FC0
FF8CFFC0
FFC1FFC0
FFFAFFC0
FF9E7FC0
FF3F3FC0
FE7F9FC0
7E7F9F80
7E7F9F80
3E3F3F00
3F1E3F00
1FC0FE00
0FFFFC00
07FFF800
01FFE000
007F8000
ENDCHAR
STARTCHAR 277E
ENCODING 10110
SWIDTH 1000 0
DWIDTH 28 0
BBX 26 25 1 -2
BITMAP
007F8000
01FFE000
07FFF800
0FFFFC00
1FE0FE00
3FDE7F00
7FBF3F00
7F7F3F80
7F7F9F80
FF7F9FC0
FF7F9FC0
FF7F9FC0
FFBF9FC0
FFDF9FC0
FFFF9FC0
FFFF1FC0
7F1F3F80
7F1F3F80
3F3E7F00
3F9CFF00
1FC1FE00
0FFFFC00
07FFF800
01FFE000
007F8000
ENDCHAR
STARTCHAR 277F
ENCODING 10111
SWIDTH 1000 0
DWIDTH 28 0
BBX 25 26 2 -2
BITMAP
007F0000
01FFC000
07FFF000
0FFFF800
1FFE3C00
30FDDE00
3CF9CE00
7CFBEF00
7CF3E700
FCF3E700
FCF3E780
FCF3E780
FCF3E780
FCF3E780
FCF3E780
FCF3E780
FCF3E780
7CFBEF00
7CF9CF00
3CFDDE00
303E3E00
1FFFFC00
0FFFF800
07FFF000
01FFC000
007F0000
ENDCHAR
STARTCHAR 2934
ENCODING 10548
SWIDTH 500 0
DWIDTH 14 0
BBX 12 21 1 2
BITMAP
0100
0380
07C0
0D60
1930
1110
2110
0100
0100
0100
0100
0100
0100
0100
0100
0100
0100
0100
0200
0600
F800
ENDCHAR
STARTCHAR 2935
ENCODING 10549
SWIDTH 500 0
DWIDTH 14 0
BBX 12 21 1 -1
BITMAP
F800
0600
0200
0100
0100
0100
0100
0100
0100
0100
0100
0100
0100
0100
2110
1110
1930
0D60
07C0
0380
0100
ENDCHAR
STARTCHAR 29BF
ENCODING 10687
SWIDTH 1000 0
DWIDTH 28 0
BBX 24 23 2 -1
BITMAP
007E00
0381C0
040020
180010
100008
200004
400002
403C02
807E01
80FF01
80FF01
80FF01
80FF01
807E01
803C03
400002
400006
200004
300008
180010
040060
0381C0
007E00
ENDCHAR
STARTCHAR 29FA
ENCODING 10746
SWIDTH 500 0
DWIDTH 14 0
BBX 12 15 1 3
BITMAP
1980
1980
1980
1980
1980
1980
1980
FFF0
1980
1980
1980
1980
1980
1980
1980
ENDCHAR
STARTCHAR 29FB
ENCODING 10747
SWIDTH 500 0
DWIDTH 14 0
BBX 12 15 1 3
BITMAP
36C0
36C0
36C0
36C0
36C0
36C0
36C0
FFF0
36C0
36C0
36C0
36C0
36C0
36C0
36C0
ENDCHAR
STARTCHAR 3000
ENCODING 12288
SWIDTH 1000 0
DWIDTH 28 0
BBX 0 0 0 0
BITMAP
ENDCHAR
STARTCHAR 3001
ENCODING 12289
SWIDTH 1000 0
DWIDTH 28 0
BBX 5 6 2 -2
BITMAP
80
E0
70
38
38
18
ENDCHAR
STARTCHAR 3002
ENCODING 12290
SWIDTH 1000 0
DWIDTH 28 0
BBX 7 7 1 -2
BITMAP
38
44
82
82
82
44
38
ENDCHAR
STARTCHAR 3003
ENCODING 12291
SWIDTH 1000 0
DWIDTH 28 0
BBX 12 12 7 5
BITMAP
0E30
0C30
0C70
1C60
1860
18C0
10C0
3080
2180
6100
4100
8200
ENDCHAR
STARTCHAR 3005
ENCODING 12293
SWIDTH 1000 0
DWIDTH 28 0
BBX 18 17 4 4
BITMAP
018000
00C000
00C000
018000
018100
031FC0
03E1C0
060300
0C0300
180600
300C00
620800
81D000
007000
003800
000C00
000C00
ENDCHAR
STARTCHAR 3006
ENCODING 12294
SWIDTH 1000 0
DWIDTH 28 0
BBX 18 21 5 0
BITMAP
000300
0001C0
0001C0
000300
000600
000C00
071800
09B000
10E000
106000
20A000
21B000
231800
461800
440800
480000
580000
700000
A00000
E00000
400000
ENDCHAR
STARTCHAR 3007
ENCODING 12295
SWIDTH 1000 0
DWIDTH 28 0
BBX 22 22 3 0
BITMAP
00FC00
030300
0C00C0
100060
200010
600010
400008
400008
800004
800004
800004
800004
800004
800004
400008
400008
600010
200010
100020
0C00C0
070380
00FC00
ENDCHAR
STARTCHAR 3008
ENCODING 12296
SWIDTH 1000 0
DWIDTH 28 0
BBX 11 25 16 -2
BITMAP
0060
0080
0180
0300
0200
0400
0C00
1800
1000
2000
6000
C000
8000
C000
4000
2000
1000
1800
0C00
0400
0200
0300
0180
0080
0040
ENDCHAR
STARTCHAR 3009
ENCODING 12297
SWIDTH 1000 0
DWIDTH 28 0
BBX 11 25 2 -2
BITMAP
8000
4000
6000
3000
1000
0800
0C00
0600
0200
0100
0080
00C0
0060
00C0
0180
0100
0200
0600
0C00
0800
1000
3000
6000
4000
8000
ENDCHAR
STARTCHAR 300A
ENCODING 12298
SWIDTH 1000 0
DWIDTH 28 0
BBX 12 25 15 -2
BITMAP
0130
0320
0260
0440
0480
0880
1900
1300
3200
2600
4400
4800
8800
4800
4400
2600
3200
1300
1900
0880
0480
0440
0260
0320
0130
ENDCHAR
STARTCHAR 300B
ENCODING 12299
SWIDTH 1000 0
DWIDTH 28 0
BBX 12 25 1 -2
BITMAP
C800
4C00
6400
2200
1200
1100
0980
0C80
04C0
0240
0220
0120
0110
0120
0220
0640
04C0
0C80
0980
1100
1200
2200
6400
4C00
C800
ENDCHAR
STARTCHAR 300C
ENCODING 12300
SWIDTH 1000 0
DWIDTH 28 0
BBX 7 20 19 3
BITMAP
FE
80
80
80
80
80
80
80
80
80
80
80
80
80
80
80
80
80
80
80
ENDCHAR
STARTCHAR 300D
ENCODING 12301
SWIDTH 1000 0
DWIDTH 28 0
BBX 7 20 2 -2
BITMAP
02
02
02
02
02
02
02
02
02
02
02
02
02
02
02
02
02
02
02
FE
ENDCHAR
STARTCHAR 300E
ENCODING 12302
SWIDTH 1000 0
DWIDTH 28 0
BBX 10 20 16 3
BITMAP
FFC0
8040
8040
8FC0
8800
8800
8800
8800
8800
8800
8800
8800
8800
8800
8800
8800
8800
8800
8800
F800
ENDCHAR
STARTCHAR 300F
ENCODING 12303
SWIDTH 1000 0
DWIDTH 28 0
BBX 10 20 2 -2
BITMAP
07C0
0440
0440
0440
0440
0440
0440
0440
0440
0440
0440
0440
0440
0440
0440
0440
FC40
8040
8040
FFC0
ENDCHAR
STARTCHAR 3010
ENCODING 12304
SWIDTH 1000 0
DWIDTH 28 0
BBX 6 25 20 -2
BITMAP
FC
F0
F0
E0
E0
C0
C0
C0
80
80
80
80
80
80
80
80
80
C0
C0
C0
E0
E0
F0
F0
F8
ENDCHAR
STARTCHAR 3011
ENCODING 12305
SWIDTH 1000 0
DWIDTH 28 0
BBX 6 25 2 -2
BITMAP
FC
3C
3C
1C
1C
0C
0C
0C
04
04
04
04
04
04
04
04
04
0C
0C
0C
1C
1C
3C
3C
7C
ENDCHAR
STARTCHAR 3012
ENCODING 12306
SWIDTH 1000 0
DWIDTH 28 0
BBX 20 23 4 -2
BITMAP
FFFFF0
FFFFF0
FFFFF0
000000
000000
000000
000000
FFFFF0
FFFFF0
FFFFF0
007000
007000
007000
007000
007000
007000
007000
007000
007000
007000
007000
007000
007000
ENDCHAR
STARTCHAR 3013
ENCODING 12307
SWIDTH 1000 0
DWIDTH 28 0
BBX 20 13 4 4
BITMAP
FFFFF0
FFFFF0
FFFFF0
FFFFF0
000000
000000
000000
000000
000000
FFFFF0
FFFFF0
FFFFF0
FFFFF0
ENDCHAR
STARTCHAR 3014
ENCODING 12308
SWIDTH 1000 0
DWIDTH 28 0
BBX 6 26 20 -3
BITMAP
04
0C
38
C0
80
80
80
80
80
80
80
80
80
80
80
80
80
80
80
80
80
80
80
60
18
0C
ENDCHAR
STARTCHAR 3015
ENCODING 12309
SWIDTH 1000 0
DWIDTH 28 0
BBX 6 25 2 -2
BITMAP
C0
70
0C
04
04
04
04
04
04
04
04
04
04
04
04
04
04
04
04
04
04
04
18
70
C0
ENDCHAR
STARTCHAR 3016
ENCODING 12310
SWIDTH 1000 0
DWIDTH 28 0
BBX 8 25 18 -2
BITMAP
FF
82
84
88
88
90
90
90
A0
A0
A0
A0
A0
A0
A0
A0
A0
90
90
90
88
88
84
84
FE
ENDCHAR
STARTCHAR 3017
ENCODING 12311
SWIDTH 1000 0
DWIDTH 28 0
BBX 8 25 2 -2
BITMAP
FF
41
21
11
11
09
09
09
05
05
05
05
05
05
05
05
05
09
09
09
11
11
21
41
7F
ENDCHAR
STARTCHAR 3018
ENCODING 12312
SWIDTH 1000 0
DWIDTH 28 0
BBX 8 26 18 -3
BITMAP
01
03
0D
31
C1
86
98
90
90
90
90
90
90
90
90
90
90
90
90
90
98
87
C1
31
0D
03
ENDCHAR
STARTCHAR 3019
ENCODING 12313
SWIDTH 1000 0
DWIDTH 28 0
BBX 8 25 2 -2
BITMAP
C0
B0
8C
83
61
19
09
09
09
09
09
09
09
09
09
09
09
09
09
19
E1
83
8C
B0
C0
ENDCHAR
STARTCHAR 301C
ENCODING 12316
SWIDTH 1000 0
DWIDTH 28 0
BBX 23 6 2 8
BITMAP
078000
1FE000
307002
601C0C
800FF8
0001E0
ENDCHAR
STARTCHAR 301D
ENCODING 12317
SWIDTH 1000 0
DWIDTH 28 0
BBX 7 11 19 13
BITMAP
80
E0
30
18
04
C2
E0
30
08
06
02
ENDCHAR
STARTCHAR 301F
ENCODING 12319
SWIDTH 1000 0
DWIDTH 28 0
BBX 7 11 2 -2
BITMAP
80
40
30
18
0E
82
60
30
1C
06
02
ENDCHAR
STARTCHAR 3020
ENCODING 12320
SWIDTH 1000 0
DWIDTH 28 0
BBX 26 18 1 1
BITMAP
1FFFFE00
1FFFFE00
00000000
00000000
1FFFFE00
1FFFFE00
000E0000
770E3980
878E7C40
848E2840
870E3840
400E0080
310E2300
10804200
08608400
043F0800
03807000
007F8000
ENDCHAR
STARTCHAR 3033
ENCODING 12339
SWIDTH 1000 0
DWIDTH 28 0
BBX 9 24 8 -3
BITMAP
0200
0300
0180
0180
0180
0300
0300
0200
0600
0400
0C00
0800
1800
1800
1000
3000
2000
6000
4000
4000
C000
8000
8000
8000
ENDCHAR
STARTCHAR 3034
ENCODING 12340
SWIDTH 1000 0
DWIDTH 28 0
BBX 15 24 8 -3
BITMAP
0200
0300
0180
0180
0180
0300
0300
0200
0600
0400
0C00
0800
1800
181C
1086
3076
2038
6018
4000
4000
C000
8000
8000
8000
ENDCHAR
STARTCHAR 3035
ENCODING 12341
SWIDTH 1000 0
DWIDTH 28 0
BBX 11 25 8 0
BITMAP
8000
8000
8000
C000
4000
6000
2000
3000
1800
1800
0C00
0C00
0600
0600
0300
0300
0180
0180
01C0
00C0
00E0
00E0
00E0
0060
0040
ENDCHAR
STARTCHAR 303B
ENCODING 12347
SWIDTH 1000 0
DWIDTH 28 0
BBX 11 17 8 3
BITMAP
1000
0800
0400
0300
0180
0780
0800
1000
1000
1800
0C00
0380
01E0
03E0
0E00
3000
C000
ENDCHAR
STARTCHAR 303C
ENCODING 12348
SWIDTH 1000 0
DWIDTH 28 0
BBX 24 24 2 -1
BITMAP
FFFFFF
800003
800005
800009
800011
800021
800041
800081
800101
800201
800401
800801
801001
802001
804001
808001
810001
820001
840001
880001
900001
A00001
C00001
FFFFFF
ENDCHAR
STARTCHAR 303D
ENCODING 12349
SWIDTH 1000 0
DWIDTH 28 0
BBX 20 23 5 -2
BITMAP
300000
E86000
CC9000
079800
030800
000800
000C00
000C00
000400
000400
000600
000200
000200
000300
000300
000100
000180
000180
0000C0
0000C0
000060
000060
000030
ENDCHAR
STARTCHAR 3041
ENCODING 12353
SWIDTH 1000 0
DWIDTH 28 0
BBX 18 21 5 -2
BITMAP
020000
018000
018000
018C00
213C00
1FE000
010000
013000
01FC00
031300
0F3180
1B20C0
3360C0
63C0C0
C380C0
C300C0
C70180
CF0300
710600
001C00
006000
ENDCHAR
STARTCHAR 3042
ENCODING 12354
SWIDTH 1000 0
DWIDTH 28 0
BBX 22 24 3 -2
BITMAP
010000
00C000
00C000
00C000
20C380
10FF00
0FE000
008000
008C00
009F00
00E6E0
038630
0C8C18
188C0C
30980C
60900C
60A00C
C0C00C
C08018
C1C018
C6C030
78C0E0
008380
001C00
ENDCHAR
STARTCHAR 3043
ENCODING 12355
SWIDTH 1000 0
DWIDTH 28 0
BBX 20 16 4 0
BITMAP
800000
600400
600300
200080
2000C0
200060
200060
210030
210030
210030
220010
320000
140000
1C0000
0C0000
060000
ENDCHAR
STARTCHAR 3044
ENCODING 12356
SWIDTH 1000 0
DWIDTH 28 0
BBX 23 18 2 1
BITMAP
C00000
700080
300140
300020
300030
200018
20000C
20000C
20800E
20C006
208006
210006
310000
120000
1A0000
0E0000
060000
020000
ENDCHAR
STARTCHAR 3045
ENCODING 12357
SWIDTH 1000 0
DWIDTH 28 0
BBX 13 20 7 -1
BITMAP
1800
0780
03C0
0C00
0000
03C0
1C70
F030
C018
0018
0018
0018
0018
0030
0030
0060
00C0
0180
0700
1800
ENDCHAR
STARTCHAR 3046
ENCODING 12358
SWIDTH 1000 0
DWIDTH 28 0
BBX 16 24 5 -1
BITMAP
0800
0600
03F8
01F8
0300
0400
0000
00F8
870C
5C06
7002
6003
0003
0003
0003
0003
0006
0006
000C
001C
0030
0060
0380
0C00
ENDCHAR
STARTCHAR 3047
ENCODING 12359
SWIDTH 1000 0
DWIDTH 28 0
BBX 19 19 5 0
BITMAP
060000
01F000
00F800
030000
000000
001800
11EC00
1F1800
183000
00C000
018000
030000
06E000
0F3000
1C1000
381000
701800
E00F80
C007E0
ENDCHAR
STARTCHAR 3048
ENCODING 12360
SWIDTH 1000 0
DWIDTH 28 0
BBX 21 23 4 0
BITMAP
040000
030000
01FC00
007E00
008000
010000
000000
000600
10FF00
1F8E00
1C1C00
003800
006000
00C000
018000
037000
079800
0E0800
180C00
300C00
E00600
C007F8
8003F8
ENDCHAR
STARTCHAR 3049
ENCODING 12361
SWIDTH 1000 0
DWIDTH 28 0
BBX 19 18 5 0
BITMAP
180000
040000
040700
040180
04C0C0
87C060
7E0060
040000
040000
047E00
078380
0C01C0
1400C0
6400C0
8400C0
C40180
7C0380
38FE00
ENDCHAR
STARTCHAR 304A
ENCODING 12362
SWIDTH 1000 0
DWIDTH 28 0
BBX 22 22 3 0
BITMAP
080000
070000
030180
030060
020038
02701C
C2F00C
3F800C
020000
020000
020000
021F80
03E060
030030
0E0018
320018
620018
420018
420010
320030
3E20C0
0C1F80
ENDCHAR
STARTCHAR 304B
ENCODING 12363
SWIDTH 1000 0
DWIDTH 28 0
BBX 23 22 3 0
BITMAP
020000
018000
018000
018000
018180
010040
83F020
FF1810
E20C08
020C0C
060C04
040C06
0C0C3E
0C0C4E
180C02
181800
301800
361800
613000
E0F000
C0E000
80C000
ENDCHAR
STARTCHAR 304C
ENCODING 12364
SWIDTH 1000 0
DWIDTH 28 0
BBX 25 24 3 0
BITMAP
00000400
00000300
02003180
01801980
01800C00
01800C00
01818000
01004000
83F02000
FF181000
E20C0800
020C0C00
060C0400
040C0600
0C0C3E00
0C0C4E00
180C0200
18180000
30180000
36180000
61300000
E0F00000
C0E00000
80C00000
ENDCHAR
STARTCHAR 304D
ENCODING 12365
SWIDTH 1000 0
DWIDTH 28 0
BBX 19 23 5 0
BITMAP
070000
018000
008000
00C600
005C00
40F000
3FE000
002060
0031C0
801780
607C00
1FC800
000C00
000600
000600
003B00
000700
200300
200000
100000
1C0000
0FF000
03FE00
ENDCHAR
STARTCHAR 304E
ENCODING 12366
SWIDTH 1000 0
DWIDTH 28 0
BBX 22 24 5 1
BITMAP
000030
070008
0180CC
008064
00C630
005C30
40F000
3FE000
002060
0031C0
801780
607C00
1FC800
000C00
000600
000600
003B00
000700
200300
200000
100000
1C0000
0FF000
03FE00
ENDCHAR
STARTCHAR 304F
ENCODING 12367
SWIDTH 1000 0
DWIDTH 28 0
BBX 14 24 6 -1
BITMAP
0020
0038
0038
0070
01E0
0380
0600
1C00
3000
6000
C000
8000
C000
3000
1800
0600
0300
01C0
00E0
0070
0038
001C
000C
000C
ENDCHAR
STARTCHAR 3050
ENCODING 12368
SWIDTH 1000 0
DWIDTH 28 0
BBX 18 24 6 -1
BITMAP
002000
003800
003800
007000
01E000
038000
060180
1C08C0
300640
600300
C00300
800000
C00000
300000
180000
060000
030000
01C000
00E000
007000
003800
001C00
000C00
000C00
ENDCHAR
STARTCHAR 3051
ENCODING 12369
SWIDTH 1000 0
DWIDTH 28 0
BBX 21 25 4 -2
BITMAP
000700
400300
200180
300180
300180
300180
600198
6201F8
6183E0
40FF80
400180
C00180
800180
800180
880180
880180
900180
900300
F00300
600300
600600
600C00
201800
003000
004000
ENDCHAR
STARTCHAR 3052
ENCODING 12370
SWIDTH 1000 0
DWIDTH 28 0
BBX 24 26 4 -2
BITMAP
000008
000706
400363
2001B3
300198
300198
300180
600198
6201F8
6183E0
40FF80
400180
C00180
800180
800180
880180
880180
900180
900300
F00300
600300
600600
600C00
201800
003000
004000
ENDCHAR
STARTCHAR 3053
ENCODING 12371
SWIDTH 1000 0
DWIDTH 28 0
BBX 19 19 4 2
BITMAP
180E00
07FF00
001800
006000
00C000
000000
000000
000000
000000
000000
000000
000000
800000
400000
400000
200000
3801E0
1FFFE0
03FF80
ENDCHAR
STARTCHAR 3054
ENCODING 12372
SWIDTH 1000 0
DWIDTH 28 0
BBX 23 23 4 1
BITMAP
000018
00000C
000046
000066
180E30
07FF30
001800
006000
00C000
000000
000000
000000
000000
000000
000000
000000
800000
400000
400000
200000
3801E0
1FFFE0
03FF80
ENDCHAR
STARTCHAR 3055
ENCODING 12373
SWIDTH 1000 0
DWIDTH 28 0
BBX 19 22 4 0
BITMAP
03C000
00C000
004000
0060E0
0023C0
003F00
803800
61F800
1F1800
000C00
000600
000600
000300
001B80
000780
100180
100000
100000
080000
0E0000
07FF00
00FF00
ENDCHAR
STARTCHAR 3056
ENCODING 12374
SWIDTH 1000 0
DWIDTH 28 0
BBX 24 24 4 0
BITMAP
00000C
000006
03C063
00C033
004018
0060F8
0023C0
003F00
803800
61F800
1F1800
000C00
000600
000600
000300
001B80
000780
100180
100000
100000
080000
0E0000
07FF00
00FF00
ENDCHAR
STARTCHAR 3057
ENCODING 12375
SWIDTH 1000 0
DWIDTH 28 0
BBX 18 22 6 0
BITMAP
C00000
700000
300000
300000
300000
300000
600000
600000
600000
600000
600000
600000
600040
600040
600080
600180
600100
700300
300600
3C1C00
1FF000
07C000
ENDCHAR
STARTCHAR 3058
ENCODING 12376
SWIDTH 1000 0
DWIDTH 28 0
BBX 18 22 6 0
BITMAP
C00000
700000
300000
300C00
304600
303300
601B00
601800
600000
600000
600000
600000
600040
600040
600080
600180
600100
700300
300600
3C1C00
1FF000
07C000
ENDCHAR
STARTCHAR 3059
ENCODING 12377
SWIDTH 1000 0
DWIDTH 28 0
BBX 25 25 2 -3
BITMAP
001E0000
00060000
00060000
00060000
00060000
800FFF00
7FFC0380
7C040000
00040000
00040000
007C0000
00C60000
01820000
01830000
01830000
01830000
00C70000
007B0000
00030000
00060000
00060000
00040000
00080000
00180000
00200000
ENDCHAR
STARTCHAR 305A
ENCODING 12378
SWIDTH 1000 0
DWIDTH 28 0
BBX 26 26 2 -2
BITMAP
00000380
001E11C0
00060CC0
00060600
00060600
00060000
800FFF00
7FFC0380
7C040000
00040000
00040000
007C0000
00C60000
01820000
01830000
01830000
01830000
00C70000
007B0000
00030000
00060000
00060000
00040000
00080000
00180000
00200000
ENDCHAR
STARTCHAR 305B
ENCODING 12379
SWIDTH 1000 0
DWIDTH 28 0
BBX 26 22 1 1
BITMAP
00006000
00003000
07803000
01803000
01802000
01802000
01802780
819FFFC0
FFF02000
79806000
01806000
01806000
01864000
0181C000
0180C000
01808000
01800000
01800000
00800000
00E03800
007FFC00
001FF000
ENDCHAR
STARTCHAR 305C
ENCODING 12380
SWIDTH 1000 0
DWIDTH 28 0
BBX 27 24 1 0
BITMAP
00000180
000000C0
00006C60
00003660
07803300
01803300
01802000
01802000
01802780
819FFFC0
FFF02000
79806000
01806000
01806000
01864000
0181C000
0180C000
01808000
01800000
01800000
00800000
00E03800
007FFC00
001FF000
ENDCHAR
STARTCHAR 305D
ENCODING 12381
SWIDTH 1000 0
DWIDTH 28 0
BBX 23 22 2 0
BITMAP
000180
061FC0
03F1C0
038300
000E00
001800
003000
00C000
0180FC
82FF06
7F8C00
381800
003000
002000
006000
006000
006000
006000
007000
003800
001FE0
0007E0
ENDCHAR
STARTCHAR 305E
ENCODING 12382
SWIDTH 1000 0
DWIDTH 28 0
BBX 25 24 2 1
BITMAP
00000600
00000300
00019D80
061FCF80
03F1C600
03830000
000E0000
00180000
00300000
00C00000
0180FC00
82FF0600
7F8C0000
38180000
00300000
00200000
00600000
00600000
00600000
00600000
00700000
00380000
001FE000
0007E000
ENDCHAR
STARTCHAR 305F
ENCODING 12383
SWIDTH 1000 0
DWIDTH 28 0
BBX 22 23 3 0
BITMAP
020000
01C000
00C000
00C000
008000
019C00
41FC00
3FE000
030000
0203F0
020FE0
061180
040300
0C0000
080000
180000
180000
300000
304000
602000
E01800
C00FFC
C003F8
ENDCHAR
STARTCHAR 3060
ENCODING 12384
SWIDTH 1000 0
DWIDTH 28 0
BBX 22 23 3 0
BITMAP
020020
01C018
00C08C
00C04C
008060
019C20
41FC00
3FE000
030000
0203F0
020FE0
061180
040300
0C0000
080000
180000
180000
300000
304000
602000
E01800
C00FFC
C003F8
ENDCHAR
STARTCHAR 3061
ENCODING 12385
SWIDTH 1000 0
DWIDTH 28 0
BBX 20 23 3 0
BITMAP
078000
018000
010000
010C00
833C00
43F000
3F0000
060000
060000
060000
060000
061FC0
066060
078030
070030
060030
060030
000060
000060
0001C0
000780
003C00
01C000
ENDCHAR
STARTCHAR 3062
ENCODING 12386
SWIDTH 1000 0
DWIDTH 28 0
BBX 21 25 3 -1
BITMAP
000040
000030
078118
018198
0100C0
010CC0
833C00
43F000
3F0000
060000
060000
060000
060000
061FC0
066060
078030
070030
060030
060030
000060
000060
0001C0
000780
003C00
01C000
ENDCHAR
STARTCHAR 3063
ENCODING 12387
SWIDTH 1000 0
DWIDTH 28 0
BBX 19 13 4 0
BITMAP
007F00
0F8180
FC00C0
700060
000060
000060
000060
0000E0
0000C0
000180
000700
001C00
01E000
ENDCHAR
STARTCHAR 3064
ENCODING 12388
SWIDTH 1000 0
DWIDTH 28 0
BBX 23 16 2 1
BITMAP
000FE0
007038
03C00C
8F000C
7C0006
300006
000006
000006
000006
00000C
00001C
000018
000070
0001C0
000F00
00F000
ENDCHAR
STARTCHAR 3065
ENCODING 12389
SWIDTH 1000 0
DWIDTH 28 0
BBX 25 22 2 2
BITMAP
00000200
00000100
00001980
00000C80
00000600
00000600
000FE000
00703800
03C00C00
8F000C00
7C000600
30000600
00000600
00000600
00000600
00000C00
00001C00
00001800
00007000
0001C000
000F0000
00F00000
ENDCHAR
STARTCHAR 3066
ENCODING 12390
SWIDTH 1000 0
DWIDTH 28 0
BBX 22 20 2 0
BITMAP
0000F8
801F0C
83E400
7E0800
701000
002000
006000
006000
00C000
00C000
00C000
00C000
00C000
00C000
00C000
006000
007000
003860
001FF0
0007E0
ENDCHAR
STARTCHAR 3067
ENCODING 12391
SWIDTH 1000 0
DWIDTH 28 0
BBX 24 20 2 0
BITMAP
0000F8
801F0C
83E400
7E0800
70100C
002006
006023
006013
00C018
00C008
00C000
00C000
00C000
00C000
00C000
006000
007000
003860
001FF0
0007E0
ENDCHAR
STARTCHAR 3068
ENCODING 12392
SWIDTH 1000 0
DWIDTH 28 0
BBX 17 22 6 0
BITMAP
380000
180000
180000
080000
080800
080400
080E00
081C00
0C7000
05C000
070000
0C0000
100000
200000
400000
800000
800000
800000
C00000
600700
3FFF80
0FFE00
ENDCHAR
STARTCHAR 3069
ENCODING 12393
SWIDTH 1000 0
DWIDTH 28 0
BBX 20 23 6 1
BITMAP
000040
380030
1803B0
1800D0
0800C0
080800
080400
080E00
081C00
0C7000
05C000
070000
0C0000
100000
200000
400000
800000
800000
800000
C00000
600700
3FFF80
0FFE00
ENDCHAR
STARTCHAR 306A
ENCODING 12394
SWIDTH 1000 0
DWIDTH 28 0
BBX 22 23 3 0
BITMAP
038000
00C000
00C000
008000
41B980
23F060
1F0030
0200F8
060118
040000
0C0200
180600
180600
300600
700600
E00600
C0FA00
C18780
0207E0
020678
02061C
010E0C
00F800
ENDCHAR
STARTCHAR 306B
ENCODING 12395
SWIDTH 1000 0
DWIDTH 28 0
BBX 21 21 4 1
BITMAP
600000
300000
30C1E0
303FE0
200600
600800
401000
400000
400000
800000
800000
800000
880000
900000
908000
B08000
E06000
603FF8
600FF8
600000
200000
ENDCHAR
STARTCHAR 306C
ENCODING 12396
SWIDTH 1000 0
DWIDTH 28 0
BBX 23 21 3 2
BITMAP
006000
103000
103000
183000
083F00
08F1C0
0B3060
0C2030
1C2018
1C6018
3C400C
64400C
64C00C
44800C
C7800C
C303D8
C30C78
C38818
C5883C
C88C66
7007C6
ENDCHAR
STARTCHAR 306D
ENCODING 12397
SWIDTH 1000 0
DWIDTH 28 0
BBX 25 23 2 0
BITMAP
04000000
03800000
01800000
01800000
01800000
01800000
01C1E000
7FC63000
39D81800
01A01800
01400C00
03800C00
07000C00
05000C00
0D000C00
19000C00
3103EC00
79043C00
E5080C00
C5081F00
C30C1B00
03043180
0303C180
ENDCHAR
STARTCHAR 306E
ENCODING 12398
SWIDTH 1000 0
DWIDTH 28 0
BBX 22 20 3 0
BITMAP
00FE00
0361C0
066060
086030
106018
306018
60600C
60400C
60C00C
C0C00C
C0800C
C1800C
C1800C
C10018
C20018
C60030
640060
3801C0
000F00
003000
ENDCHAR
STARTCHAR 306F
ENCODING 12399
SWIDTH 1000 0
DWIDTH 28 0
BBX 23 22 4 0
BITMAP
400600
200300
300300
300300
300300
600318
6103F8
40FFC0
400100
400100
800100
800100
800100
880100
900100
907D00
A08380
E101F0
C1033C
C1030E
418706
407C00
ENDCHAR
STARTCHAR 3070
ENCODING 12400
SWIDTH 1000 0
DWIDTH 28 0
BBX 23 24 4 0
BITMAP
000008
000004
400666
200332
300318
300318
300300
600318
6103F8
40FFC0
400100
400100
800100
800100
800100
880100
900100
907D00
A08380
E101F0
C1033C
C1030E
418706
407C00
ENDCHAR
STARTCHAR 3071
ENCODING 12401
SWIDTH 1000 0
DWIDTH 28 0
BBX 23 24 4 0
BITMAP
00001C
000036
400622
200322
300336
30031C
300300
600318
6103F8
40FFC0
400100
400100
800100
800100
800100
880100
900100
907D00
A08380
E101F0
C1033C
C1030E
418706
407C00
ENDCHAR
STARTCHAR 3072
ENCODING 12402
SWIDTH 1000 0
DWIDTH 28 0
BBX 23 22 3 0
BITMAP
000300
018380
03C180
9D81C0
F10140
620120
040130
040098
08008C
10008E
100086
100080
200080
200080
200080
200180
200100
300300
180200
1C0E00
0FF800
03F000
ENDCHAR
STARTCHAR 3073
ENCODING 12403
SWIDTH 1000 0
DWIDTH 28 0
BBX 25 24 3 0
BITMAP
00000400
00000300
00032180
01839980
03C18C00
9D81CC00
F1014000
62012000
04013000
04009800
08008C00
10008E00
10008600
10008000
20008000
20008000
20008000
20018000
20010000
30030000
18020000
1C0E0000
0FF80000
03F00000
ENDCHAR
STARTCHAR 3074
ENCODING 12404
SWIDTH 1000 0
DWIDTH 28 0
BBX 24 23 3 1
BITMAP
00000E
000311
018391
03C191
9D81CE
F10140
620120
040130
040098
08008C
10008E
100086
100080
200080
200080
200080
200180
200100
300300
180200
1C0E00
0FF800
03F000
ENDCHAR
STARTCHAR 3075
ENCODING 12405
SWIDTH 1000 0
DWIDTH 28 0
BBX 25 22 2 1
BITMAP
00C00000
00380000
001F8000
000F8000
00100000
00200000
00000000
00000000
00200000
00200000
00106000
00101800
00180C00
010C0600
02060300
0C060380
98030180
F0030180
60030000
03070000
01FE0000
007C0000
ENDCHAR
STARTCHAR 3076
ENCODING 12406
SWIDTH 1000 0
DWIDTH 28 0
BBX 25 22 2 1
BITMAP
00C00000
00380400
001F8200
000FBB00
00100D00
00200C00
00000000
00000000
00200000
00200000
00106000
00101800
00180C00
010C0600
02060300
0C060380
98030180
F0030180
60030000
03070000
01FE0000
007C0000
ENDCHAR
STARTCHAR 3077
ENCODING 12407
SWIDTH 1000 0
DWIDTH 28 0
BBX 25 22 2 1
BITMAP
00C00000
00381E00
001FB300
000FA100
00103300
00201E00
00000000
00000000
00200000
00200000
00106000
00101800
00180C00
010C0600
02060300
0C060380
98030180
F0030180
60030000
03070000
01FE0000
007C0000
ENDCHAR
STARTCHAR 3078
ENCODING 12408
SWIDTH 1000 0
DWIDTH 28 0
BBX 24 14 2 4
BITMAP
006000
00B000
019800
030C00
060600
060300
0C0180
1800C0
B80060
700030
60001C
00000E
000007
000003
ENDCHAR
STARTCHAR 3079
ENCODING 12409
SWIDTH 1000 0
DWIDTH 28 0
BBX 24 17 2 5
BITMAP
000020
000010
000198
0060D8
00B060
019860
030C00
060600
060300
0C0180
1800C0
B80060
700030
60001C
00000E
000007
000003
ENDCHAR
STARTCHAR 307A
ENCODING 12410
SWIDTH 1000 0
DWIDTH 28 0
BBX 24 17 2 4
BITMAP
000078
0000CC
000084
0060CC
00B078
019800
030C00
060600
060300
0C0180
1800C0
B80060
700030
60001C
00000E
000007
000003
ENDCHAR
STARTCHAR 307B
ENCODING 12411
SWIDTH 1000 0
DWIDTH 28 0
BBX 22 22 4 0
BITMAP
400000
210060
3081E0
307F00
300300
600300
600300
420318
4103F8
40FFE0
C00300
800300
800300
900300
900300
B0FF00
A107C0
E203F0
E2031C
43030C
418700
407C00
ENDCHAR
STARTCHAR 307C
ENCODING 12412
SWIDTH 1000 0
DWIDTH 28 0
BBX 24 24 4 1
BITMAP
00000C
000046
400033
21009B
3083D8
307F00
300300
600300
600300
420318
4103F8
40FFE0
C00300
800300
800300
900300
900300
B0FF00
A107C0
E203F0
E2031C
43030C
418700
407C00
ENDCHAR
STARTCHAR 307D
ENCODING 12413
SWIDTH 1000 0
DWIDTH 28 0
BBX 24 24 4 0
BITMAP
00001E
000033
400021
2100A3
3083DE
307F00
300300
600300
600300
420318
4103F8
40FFE0
C00300
800300
800300
900300
900300
B0FF00
A107C0
E203F0
E2031C
43030C
418700
407C00
ENDCHAR
STARTCHAR 307E
ENCODING 12414
SWIDTH 1000 0
DWIDTH 28 0
BBX 19 23 5 0
BITMAP
010000
00E000
006000
006000
006000
8063C0
40FF00
3FE000
006000
006000
006380
607F80
1FF800
006000
006000
006000
006000
3FF000
407E00
8067C0
8061E0
C0E060
3F8000
ENDCHAR
STARTCHAR 307F
ENCODING 12415
SWIDTH 1000 0
DWIDTH 28 0
BBX 25 22 2 -2
BITMAP
040C0000
07FE0000
078E0000
000C0000
000C0000
00180000
00184000
00303800
00301800
00201800
0FFC1800
38479800
70C0F800
60803800
C1003E00
C3003700
C2006380
CC006180
7800C000
00018000
00030000
000C0000
ENDCHAR
STARTCHAR 3080
ENCODING 12416
SWIDTH 1000 0
DWIDTH 28 0
BBX 22 23 3 0
BITMAP
070000
030000
030000
030000
033800
83F860
7FC030
020018
020008
06000C
3E004C
72003C
E2000C
C20004
C20000
C60080
C40080
7C0080
0C0080
0C00C0
0C00E0
0E01E0
03FFC0
ENDCHAR
STARTCHAR 3081
ENCODING 12417
SWIDTH 1000 0
DWIDTH 28 0
BBX 22 24 3 -1
BITMAP
002000
001800
001800
081800
081800
083C00
0DD3C0
0F1060
0C3030
1C3018
3C2018
34600C
64400C
64400C
C6C00C
C2800C
C3000C
C38018
C38018
C4C030
48C070
7001E0
000780
003800
ENDCHAR
STARTCHAR 3082
ENCODING 12418
SWIDTH 1000 0
DWIDTH 28 0
BBX 19 24 4 -1
BITMAP
040000
038000
018000
018000
010000
030000
833C00
C7F800
3E0000
060000
060000
040000
841800
77F840
1F8040
080020
080020
080020
080020
080060
0400C0
070380
03FF00
00FC00
ENDCHAR
STARTCHAR 3083
ENCODING 12419
SWIDTH 1000 0
DWIDTH 28 0
BBX 21 21 3 -2
BITMAP
008000
007000
001800
1C1800
060000
0607E0
023830
03E018
038018
8F0018
798018
308870
00C7E0
004000
006000
006000
003000
003000
001800
001800
001800
ENDCHAR
STARTCHAR 3084
ENCODING 12420
SWIDTH 1000 0
DWIDTH 28 0
BBX 24 23 2 0
BITMAP
007800
001C00
1C0E00
2E0600
060000
0201F8
031E0E
01F006
03C003
0F8003
FC8003
70C006
00440C
0063F8
006000
003000
003000
001000
001800
001800
000C00
000C00
000C00
ENDCHAR
STARTCHAR 3085
ENCODING 12421
SWIDTH 1000 0
DWIDTH 28 0
BBX 19 21 5 -3
BITMAP
006000
003000
803000
603000
603E00
40F380
4330C0
C63060
843060
883060
903060
903060
B030E0
A230C0
E13180
60EF00
607C00
204000
00C000
018000
030000
ENDCHAR
STARTCHAR 3086
ENCODING 12422
SWIDTH 1000 0
DWIDTH 28 0
BBX 22 24 3 -2
BITMAP
001800
000C00
000C00
C00400
600400
601FC0
602670
60C618
418618
43060C
42060C
44060C
4C060C
48060C
58061C
590618
708438
306C70
303FE0
300F80
101000
003000
006000
00C000
ENDCHAR
STARTCHAR 3087
ENCODING 12423
SWIDTH 1000 0
DWIDTH 28 0
BBX 16 20 6 -1
BITMAP
0380
0180
0180
0180
0180
0186
01BE
01FC
0180
0180
0180
0180
0080
0080
3F80
C0F0
81BC
818F
4383
3E00
ENDCHAR
STARTCHAR 3088
ENCODING 12424
SWIDTH 1000 0
DWIDTH 28 0
BBX 18 22 5 1
BITMAP
03C000
00C000
00C000
00C000
00C000
00C000
00C380
00FF00
00C000
00C000
00C000
00C000
004000
004000
004000
3F4000
61F000
807E00
804780
80C1C0
C0C0C0
3F0000
ENDCHAR
STARTCHAR 3089
ENCODING 12425
SWIDTH 1000 0
DWIDTH 28 0
BBX 17 24 6 -1
BITMAP
200000
1C0000
0FC000
07C000
180000
000000
200000
200000
600000
600000
600000
C0FC00
878600
8E0300
BC0180
F00180
E00180
C00180
000380
000300
000E00
003C00
01E000
060000
ENDCHAR
STARTCHAR 308A
ENCODING 12426
SWIDTH 1000 0
DWIDTH 28 0
BBX 14 24 7 -2
BITMAP
0070
4018
6018
6008
600C
400C
400C
C00C
900C
900C
A00C
E00C
E00C
C00C
C018
4018
0018
0030
0030
0060
00C0
0380
0E00
1000
ENDCHAR
STARTCHAR 308B
ENCODING 12427
SWIDTH 1000 0
DWIDTH 28 0
BBX 19 22 4 0
BITMAP
000C00
10FE00
1FCE00
0E1800
003000
006000
00C000
018000
030000
067E00
0F8380
1C00C0
3800E0
700060
E00060
C78060
88C060
0860C0
0830C0
043180
061F00
01FC00
ENDCHAR
STARTCHAR 308C
ENCODING 12428
SWIDTH 1000 0
DWIDTH 28 0
BBX 26 23 2 0
BITMAP
04000000
03800000
01800000
01800000
01000000
0101E000
03823000
7FCC3000
31903000
01203000
01403000
03803000
07003000
0D003000
19003040
19003080
31003080
69003080
6B003100
C7003300
87001E00
03001C00
02000000
ENDCHAR
STARTCHAR 308D
ENCODING 12429
SWIDTH 1000 0
DWIDTH 28 0
BBX 19 23 4 -1
BITMAP
000C00
10FE00
1FCE00
0E1800
003000
006000
00C000
018000
030000
060000
0CFE00
1B0180
3C00C0
780060
E00060
C00060
C00060
0000E0
0001C0
000380
000F00
01F800
020000
ENDCHAR
STARTCHAR 308E
ENCODING 12430
SWIDTH 1000 0
DWIDTH 28 0
BBX 20 19 4 0
BITMAP
070000
030000
030000
020000
030780
7F98C0
336060
028020
030030
060030
0E0030
1A0030
320030
220060
6A0060
CA00C0
860F80
061E00
060000
ENDCHAR
STARTCHAR 308F
ENCODING 12431
SWIDTH 1000 0
DWIDTH 28 0
BBX 24 23 2 0
BITMAP
040000
038000
018000
018000
018000
010000
0181F0
7FC618
31980C
01A006
014003
038003
070003
0D0003
190003
190003
310006
690006
C5000C
C50038
0303E0
030400
030000
ENDCHAR
STARTCHAR 3090
ENCODING 12432
SWIDTH 1000 0
DWIDTH 28 0
BBX 22 22 3 0
BITMAP
001800
087C00
0F9800
061800
003000
003000
003000
003F80
01E0E0
076030
0C4018
18C018
30800C
70800C
61000C
C1000C
C23C0C
C24318
C44198
C840F0
7020E0
001F80
ENDCHAR
STARTCHAR 3091
ENCODING 12433
SWIDTH 1000 0
DWIDTH 28 0
BBX 24 22 2 0
BITMAP
020700
03FB80
018E00
001800
007000
00C000
019FC0
06E060
0F0030
1CF030
191830
010C60
018DC0
007F00
006000
018000
0300F0
0F831C
34660E
783407
E01C03
C00803
ENDCHAR
STARTCHAR 3092
ENCODING 12434
SWIDTH 1000 0
DWIDTH 28 0
BBX 18 22 5 1
BITMAP
038000
018000
010000
031C00
83F800
7F8000
040000
080100
180080
3F01C0
798780
60DE00
C07000
C1E000
036000
0C6000
086000
106000
100000
180000
0FFF80
03FF80
ENDCHAR
STARTCHAR 3093
ENCODING 12435
SWIDTH 1000 0
DWIDTH 28 0
BBX 23 22 3 0
BITMAP
004000
002000
003000
003000
006000
00C000
00C000
018000
010000
020000
060000
04E000
0D3002
0A1004
141804
181804
301808
701818
601830
E00C70
C00FE0
C00780
ENDCHAR
STARTCHAR 3094
ENCODING 12436
SWIDTH 1000 0
DWIDTH 28 0
BBX 21 25 5 0
BITMAP
000060
080030
060398
03F8D8
01F8C0
030000
040000
000000
00F800
870C00
5C0600
700200
600300
000300
000300
000300
000300
000600
000600
000C00
001C00
003000
006000
038000
0C0000
ENDCHAR
STARTCHAR 3095
ENCODING 12437
SWIDTH 1000 0
DWIDTH 28 0
BBX 21 18 4 1
BITMAP
030000
018000
018000
010200
010180
87E0C0
7E1060
620830
060810
040818
0C09F8
080838
181808
181000
373000
31E000
60C000
408000
ENDCHAR
STARTCHAR 3096
ENCODING 12438
SWIDTH 1000 0
DWIDTH 28 0
BBX 18 21 6 -3
BITMAP
001800
400C00
600400
600400
600400
6004C0
4607C0
C1FE00
C00400
800400
800400
800400
900400
900400
A00C00
A00800
E00800
E01800
603000
606000
00C000
ENDCHAR
STARTCHAR 3099
ENCODING 12441
SWIDTH 1000 0
DWIDTH 28 0
BBX 6 6 20 18
BITMAP
10
18
CC
64
30
30
ENDCHAR
STARTCHAR 309A
ENCODING 12442
SWIDTH 1000 0
DWIDTH 28 0
BBX 5 5 21 18
BITMAP
70
88
88
88
70
ENDCHAR
STARTCHAR 309B
ENCODING 12443
SWIDTH 1000 0
DWIDTH 28 0
BBX 7 6 1 18
BITMAP
18
0C
C6
66
30
30
ENDCHAR
STARTCHAR 309C
ENCODING 12444
SWIDTH 1000 0
DWIDTH 28 0
BBX 6 5 1 18
BITMAP
78
CC
84
CC
78
ENDCHAR
STARTCHAR 309D
ENCODING 12445
SWIDTH 1000 0
DWIDTH 28 0
BBX 9 16 9 3
BITMAP
8000
8000
4000
4000
6000
3000
3800
1C00
0E00
0700
0300
0380
0780
0C80
1000
2000
ENDCHAR
STARTCHAR 309E
ENCODING 12446
SWIDTH 1000 0
DWIDTH 28 0
BBX 13 17 9 4
BITMAP
0060
8030
8198
40D8
4060
6060
3000
3800
1C00
0E00
0700
0300
0380
0780
0C80
1000
2000
ENDCHAR
STARTCHAR 309F
ENCODING 12447
SWIDTH 1000 0
DWIDTH 28 0
BBX 17 24 5 0
BITMAP
008000
006000
006000
00C000
008180
01BF80
010000
030000
020000
040000
0CF000
0B1800
140C00
380C00
600C00
600C00
C00C00
801800
001800
101800
103000
106000
08C000
078000
ENDCHAR
STARTCHAR 30A0
ENCODING 12448
SWIDTH 1000 0
DWIDTH 28 0
BBX 12 5 8 8
BITMAP
FFF0
0000
0000
0000
FFF0
ENDCHAR
STARTCHAR 30A1
ENCODING 12449
SWIDTH 1000 0
DWIDTH 28 0
BBX 18 19 5 -2
BITMAP
800380
7FFFC0
7C0380
000700
000C00
031800
00E000
00C000
00C000
00C000
00C000
008000
018000
018000
030000
020000
040000
080000
300000
ENDCHAR
STARTCHAR 30A2
ENCODING 12450
SWIDTH 1000 0
DWIDTH 28 0
BBX 20 23 4 -2
BITMAP
000060
800FF0
FFF860
7800C0
000180
000300
000600
01E800
007000
006000
006000
006000
006000
004000
00C000
00C000
008000
018000
030000
060000
0C0000
180000
200000
ENDCHAR
STARTCHAR 30A3
ENCODING 12451
SWIDTH 1000 0
DWIDTH 28 0
BBX 16 20 4 -1
BITMAP
0006
0003
0007
000E
0018
0030
00E0
01A0
0720
1C20
6020
8020
0020
0020
0060
0060
0060
0060
0060
0060
ENDCHAR
STARTCHAR 30A4
ENCODING 12452
SWIDTH 1000 0
DWIDTH 28 0
BBX 19 23 2 0
BITMAP
0000C0
0000E0
0001E0
0001C0
000380
000F00
001C00
003800
007800
01D800
071800
1C1800
601800
801800
001800
001800
001800
001800
001800
001800
001800
001800
001800
ENDCHAR
STARTCHAR 30A5
ENCODING 12453
SWIDTH 1000 0
DWIDTH 28 0
BBX 16 20 6 -2
BITMAP
0300
0180
0180
0180
810E
7FF7
4007
4006
4006
6006
600C
600C
6018
0018
0030
0060
00C0
0180
0300
0C00
ENDCHAR
STARTCHAR 30A6
ENCODING 12454
SWIDTH 1000 0
DWIDTH 28 0
BBX 18 23 5 0
BITMAP
01C000
00C000
00C000
00C000
80C180
7FFFC0
6000C0
6001C0
600180
600180
600180
600300
600300
600300
000600
000600
000C00
001800
003000
006000
00C000
030000
040000
ENDCHAR
STARTCHAR 30A7
ENCODING 12455
SWIDTH 1000 0
DWIDTH 28 0
BBX 22 13 3 2
BITMAP
1001C0
0FFFE0
003000
003000
003000
003000
003000
003000
003000
003000
803018
7FFFFC
3E000C
ENDCHAR
STARTCHAR 30A8
ENCODING 12456
SWIDTH 1000 0
DWIDTH 28 0
BBX 24 15 2 3
BITMAP
1FFFF0
0FFFF8
001800
001800
001800
001800
001800
001800
001800
001800
001800
001800
80181E
7FFFFF
3C0000
ENDCHAR
STARTCHAR 30A9
ENCODING 12457
SWIDTH 1000 0
DWIDTH 28 0
BBX 20 20 4 -1
BITMAP
002000
001C00
000C00
000C00
000C00
000CE0
603FF0
3FFC00
006C00
006C00
00CC00
008C00
018C00
030C00
060C00
0C0400
104400
601C00
800C00
000C00
ENDCHAR
STARTCHAR 30AA
ENCODING 12458
SWIDTH 1000 0
DWIDTH 28 0
BBX 24 23 2 0
BITMAP
000400
000300
000300
000100
000100
000100
00011E
3FFFFF
1FCD00
000D00
001900
003100
003100
006100
00C100
00C100
018180
030180
060180
181980
300780
400380
800100
ENDCHAR
STARTCHAR 30AB
ENCODING 12459
SWIDTH 1000 0
DWIDTH 28 0
BBX 21 23 3 0
BITMAP
007000
001800
001800
001800
001000
003030
203FF8
3FF018
1E2010
006010
006030
004030
00C030
00C020
018020
018060
031060
060840
0C06C0
080380
100380
600300
800000
ENDCHAR
STARTCHAR 30AC
ENCODING 12460
SWIDTH 1000 0
DWIDTH 28 0
BBX 23 25 3 -1
BITMAP
000008
00000C
007066
001832
001818
001818
001000
003030
203FF8
3FF018
1E2010
006010
006030
004030
00C030
00C020
018020
018060
031060
060840
0C06C0
080380
100380
600300
800000
ENDCHAR
STARTCHAR 30AD
ENCODING 12461
SWIDTH 1000 0
DWIDTH 28 0
BBX 22 23 3 -1
BITMAP
03C000
00C000
004000
006000
0060C0
0067E0
007C00
7FA000
3C2000
003000
001018
0010FC
001FC0
01F800
FF9800
380800
000800
000C00
000C00
000C00
000600
000600
000600
ENDCHAR
STARTCHAR 30AE
ENCODING 12462
SWIDTH 1000 0
DWIDTH 28 0
BBX 23 24 3 0
BITMAP
00000C
03C046
00C032
004018
006018
0060C0
0067E0
007C00
7FA000
3C2000
003000
001018
0010FC
001FC0
01F800
FF9800
380800
000800
000C00
000C00
000C00
000600
000600
000600
ENDCHAR
STARTCHAR 30AF
ENCODING 12463
SWIDTH 1000 0
DWIDTH 28 0
BBX 19 23 4 -1
BITMAP
018000
006000
006000
0040C0
00FFE0
0180E0
0100C0
0200C0
060180
0C0180
100300
200300
C00600
000C00
001C00
001800
003000
00E000
018000
030000
0C0000
300000
400000
ENDCHAR
STARTCHAR 30B0
ENCODING 12464
SWIDTH 1000 0
DWIDTH 28 0
BBX 24 25 4 0
BITMAP
00000C
000006
018073
00601B
006018
0040C0
00FFE0
0180E0
0100C0
0200C0
060180
0C0180
100300
200300
C00600
000C00
001C00
001800
003000
00E000
018000
030000
0C0000
300000
400000
ENDCHAR
STARTCHAR 30B1
ENCODING 12465
SWIDTH 1000 0
DWIDTH 28 0
BBX 22 23 3 -1
BITMAP
060000
018000
018000
010000
030000
020078
07FFFC
040600
080600
100C00
300C00
600C00
800C00
000C00
001800
001800
003000
003000
006000
00C000
018000
060000
080000
ENDCHAR
STARTCHAR 30B2
ENCODING 12466
SWIDTH 1000 0
DWIDTH 28 0
BBX 25 25 3 0
BITMAP
00000600
00000300
06003180
01801D80
01800C00
01000C00
03000000
02007800
07FFFC00
04060000
08060000
100C0000
300C0000
600C0000
800C0000
000C0000
00180000
00180000
00300000
00300000
00600000
00C00000
01800000
06000000
08000000
ENDCHAR
STARTCHAR 30B3
ENCODING 12467
SWIDTH 1000 0
DWIDTH 28 0
BBX 18 17 5 2
BITMAP
000180
7FFFC0
3F81C0
000180
000180
000180
000100
000100
000100
000100
000300
000300
000300
000300
C00380
7FFF80
3C0000
ENDCHAR
STARTCHAR 30B4
ENCODING 12468
SWIDTH 1000 0
DWIDTH 28 0
BBX 22 22 5 2
BITMAP
000030
000018
00008C
00004C
000060
0001E0
7FFFC0
3F81C0
000180
000180
000180
000100
000100
000100
000100
000300
000300
000300
000300
C00380
7FFF80
3C0000
ENDCHAR
STARTCHAR 30B5
ENCODING 12469
SWIDTH 1000 0
DWIDTH 28 0
BBX 23 23 2 -1
BITMAP
000780
070180
030180
030180
030180
030180
03019C
FFFFFE
7F0180
030180
030180
030180
030180
030100
030300
000300
000200
000600
000C00
001800
003000
00C000
030000
ENDCHAR
STARTCHAR 30B6
ENCODING 12470
SWIDTH 1000 0
DWIDTH 28 0
BBX 25 25 2 -2
BITMAP
00000600
00000300
0007B180
07019980
03018C00
03018C00
03018000
03018000
03019C00
FFFFFE00
7F018000
03018000
03018000
03018000
03018000
03010000
03030000
00030000
00020000
00060000
000C0000
00180000
00300000
00C00000
03000000
ENDCHAR
STARTCHAR 30B7
ENCODING 12471
SWIDTH 1000 0
DWIDTH 28 0
BBX 22 21 3 1
BITMAP
0E0000
038000
00E000
00E004
006004
E00004
380008
1C0010
0E0010
060020
000040
000080
000180
000300
000600
000800
003000
206000
118000
1E0000
0C0000
ENDCHAR
STARTCHAR 30B8
ENCODING 12472
SWIDTH 1000 0
DWIDTH 28 0
BBX 23 24 3 1
BITMAP
000018
00008C
000066
0E0036
038030
00E000
00E004
006004
E00004
380008
1C0010
0E0010
060020
000040
000080
000180
000300
000600
000800
003000
206000
118000
1E0000
0C0000
ENDCHAR
STARTCHAR 30B9
ENCODING 12473
SWIDTH 1000 0
DWIDTH 28 0
BBX 23 20 2 0
BITMAP
000180
0FFFC0
07C1C0
000180
000100
000300
000300
000600
000C00
000C00
001E00
003380
0060E0
00E030
01801C
03000E
06000E
180006
600000
800000
ENDCHAR
STARTCHAR 30BA
ENCODING 12474
SWIDTH 1000 0
DWIDTH 28 0
BBX 24 24 2 1
BITMAP
000004
000002
000033
000019
00018C
0FFFCC
07C1C0
000180
000100
000300
000300
000600
000C00
000C00
001E00
003380
0060E0
00E030
01801C
03000E
06000E
180006
600000
800000
ENDCHAR
STARTCHAR 30BB
ENCODING 12475
SWIDTH 1000 0
DWIDTH 28 0
BBX 23 22 1 0
BITMAP
020000
01C000
00C000
00C000
00C000
00C00C
00C07E
00CF8E
81F818
7FC030
38C060
00C0C0
00C080
00C100
00C000
00C000
00C000
00C000
00C000
007018
007FFC
000FF8
ENDCHAR
STARTCHAR 30BC
ENCODING 12476
SWIDTH 1000 0
DWIDTH 28 0
BBX 26 24 1 0
BITMAP
00000200
00000180
020008C0
01C006C0
00C00300
00C00300
00C00000
00C00C00
00C07E00
00CF8E00
81F81800
7FC03000
38C06000
00C0C000
00C08000
00C10000
00C00000
00C00000
00C00000
00C00000
00C00000
00701800
007FFC00
000FF800
ENDCHAR
STARTCHAR 30BD
ENCODING 12477
SWIDTH 1000 0
DWIDTH 28 0
BBX 19 21 4 -1
BITMAP
0000C0
000060
C00060
600060
3000C0
1800C0
1C00C0
1C0180
0C0180
000100
000300
000600
000600
000C00
001800
003000
006000
00C000
018000
060000
180000
ENDCHAR
STARTCHAR 30BE
ENCODING 12478
SWIDTH 1000 0
DWIDTH 28 0
BBX 24 24 4 0
BITMAP
00000E
000023
000073
000098
000058
C00060
600060
300060
1800C0
1C00C0
1C0080
0C0180
000180
000300
000600
000600
000C00
001800
003000
006000
00C000
018000
060000
180000
ENDCHAR
STARTCHAR 30BF
ENCODING 12479
SWIDTH 1000 0
DWIDTH 28 0
BBX 19 23 4 0
BITMAP
01C000
006000
006000
00C0C0
00FFE0
0180E0
0100C0
0201C0
040180
0B0180
10C300
206700
403E00
801C00
001E00
001F00
003300
00E100
018000
030000
0C0000
300000
400000
ENDCHAR
STARTCHAR 30C0
ENCODING 12480
SWIDTH 1000 0
DWIDTH 28 0
BBX 24 25 4 0
BITMAP
00000E
000047
01C033
006018
006018
00C0C0
00FFE0
0180E0
0100C0
0201C0
040180
0B0180
10C300
206700
403E00
801C00
001E00
001F00
003300
00E100
018000
030000
0C0000
300000
400000
ENDCHAR
STARTCHAR 30C1
ENCODING 12481
SWIDTH 1000 0
DWIDTH 28 0
BBX 22 23 3 0
BITMAP
000180
0001C0
0007C0
003E00
07D800
381800
001800
001800
001838
801FFC
FFF800
701000
001000
003000
003000
003000
006000
006000
00C000
018000
030000
0C0000
100000
ENDCHAR
STARTCHAR 30C2
ENCODING 12482
SWIDTH 1000 0
DWIDTH 28 0
BBX 24 25 3 0
BITMAP
000006
000043
0001BB
0001CC
0007CC
003E00
07D800
381800
001800
001800
001838
801FFC
FFF800
701000
001000
003000
003000
003000
006000
006000
00C000
018000
030000
0C0000
100000
ENDCHAR
STARTCHAR 30C3
ENCODING 12483
SWIDTH 1000 0
DWIDTH 28 0
BBX 17 18 5 -1
BITMAP
040300
020180
810180
418180
618300
318300
318200
300600
000400
000C00
000800
001000
003000
006000
018000
030000
040000
180000
ENDCHAR
STARTCHAR 30C4
ENCODING 12484
SWIDTH 1000 0
DWIDTH 28 0
BBX 21 21 3 -1
BITMAP
000040
010030
808018
40C018
60E018
306030
386030
386060
180060
1800C0
0000C0
000180
000100
000300
000600
000C00
001800
003000
00C000
038000
0E0000
ENDCHAR
STARTCHAR 30C5
ENCODING 12485
SWIDTH 1000 0
DWIDTH 28 0
BBX 25 24 3 0
BITMAP
00000700
00001180
00000D80
00000600
01007600
80801800
40C01800
60E01800
30603000
38603000
38607000
18006000
1800C000
0000C000
00018000
00038000
00070000
00060000
000C0000
00180000
00700000
00C00000
03800000
0E000000
ENDCHAR
STARTCHAR 30C6
ENCODING 12486
SWIDTH 1000 0
DWIDTH 28 0
BBX 23 23 2 -2
BITMAP
0401C0
03FF20
000000
000000
000000
000000
000000
8000FC
7FFFFE
3E0C00
000C00
000C00
000800
001800
001800
001800
001000
003000
006000
00C000
018000
020000
040000
ENDCHAR
STARTCHAR 30C7
ENCODING 12487
SWIDTH 1000 0
DWIDTH 28 0
BBX 26 26 2 -1
BITMAP
00000380
000010C0
00000CC0
0401C600
03FF2600
00000000
00000000
00000000
00000000
00000000
8000FC00
7FFFFE00
3E0C0000
000C0000
000C0000
00080000
00180000
00180000
00180000
00100000
00300000
00600000
00C00000
01800000
02000000
04000000
ENDCHAR
STARTCHAR 30C8
ENCODING 12488
SWIDTH 1000 0
DWIDTH 28 0
BBX 13 23 9 0
BITMAP
C000
6000
2000
2000
2000
2000
2000
2000
3000
2E00
23C0
20E0
2070
2038
2018
2000
2000
2000
6000
6000
6000
6000
6000
ENDCHAR
STARTCHAR 30C9
ENCODING 12489
SWIDTH 1000 0
DWIDTH 28 0
BBX 14 23 9 0
BITMAP
C000
6000
2038
210C
20CC
2060
2020
2000
3000
2E00
23C0
20E0
2070
2038
2018
2000
2000
2000
6000
6000
6000
6000
6000
ENDCHAR
STARTCHAR 30CA
ENCODING 12490
SWIDTH 1000 0
DWIDTH 28 0
BBX 24 24 2 -1
BITMAP
003800
000C00
000C00
000C00
000C00
000C00
000C00
800C1E
7FFFFF
3F0C00
000C00
000C00
000C00
001800
001800
001800
003000
003000
006000
00C000
008000
030000
060000
080000
ENDCHAR
STARTCHAR 30CB
ENCODING 12491
SWIDTH 1000 0
DWIDTH 28 0
BBX 24 14 2 4
BITMAP
000060
0FFFF0
078030
000000
000000
000000
000000
000000
000000
000000
000000
80003E
7FFFFF
3F0000
ENDCHAR
STARTCHAR 30CC
ENCODING 12492
SWIDTH 1000 0
DWIDTH 28 0
BBX 18 21 4 0
BITMAP
000080
200FC0
1FF9C0
1E0180
000300
000300
000700
080600
060C00
01CC00
007800
001C00
003E00
006380
00C180
0180C0
0300C0
0E0000
180000
600000
800000
ENDCHAR
STARTCHAR 30CD
ENCODING 12493
SWIDTH 1000 0
DWIDTH 28 0
BBX 22 25 2 -2
BITMAP
01E000
003C00
000E00
000600
000000
000180
0FFFC0
07E1C0
000380
000700
000E00
001C00
003A00
0079C0
00C870
018818
06081C
0C080C
300800
C00800
001800
001800
001800
001800
001800
ENDCHAR
STARTCHAR 30CE
ENCODING 12494
SWIDTH 1000 0
DWIDTH 28 0
BBX 16 21 5 0
BITMAP
0008
0007
0003
0003
0006
0006
0006
000C
000C
0018
0018
0030
0060
00C0
01C0
0300
0600
0C00
1800
6000
8000
ENDCHAR
ENDFONT
